<?xml version="1.0" encoding="utf8" standalone="no"?>
<svg viewBox="0 0 338 267" xmlns="http://www.w3.org/2000/svg" xmlns:xlink="http://www.w3.org/1999/xlink">
<defs>
<clipPath id="clipPath4834">
<path d="m309.12248,87.98018-23.8522-5.62211c0,0-14.73776,22.0541-20.58547,33.91568-2.95924,6.00255-6.17759,12.11195-7.27022,18.71453-.89361,5.39986-.48164,11.06043.6982,16.40505 1.29117,5.84893 2.32531,8.94113 6.86498,16.60621 2.6858,4.53489 10.64289,11.69347 10.64289,11.69347l-2.09283-35.26172c-5.49897-.97776-4.85272-8.68154-2.89341-11.63601l11.47927-17.30968c1.65642-2.49772 8.71879-3.45517 12.35209-.79614s4.96547,8.51455 3.54224,12.6061-8.95794,7.01852-8.95794,7.01852 1.44625,3.40934 7.54509,2.26734c5.7178-1.07067 9.7118-4.78377 12.30195-11.23285 .92284-2.29776 1.93072-4.6288 2.22499-7.0874 1.2022-10.04396-1.99963-30.28099-1.99963-30.28099z"/>
</clipPath>
<clipPath id="clipPath4611">
<path d="m452.87932-150.77495 2.67221-114.6993 5.75552-10.07216h1.43888l6.16663,10.89438v113.26042z"/>
</clipPath>
<clipPath id="clipPath4688">
<path d="m445.15686-168.30943c0,0 13.67001-7.54506 17.16199-11.32079s29.97383-33.40157 36.37697-41.53498 19.49981-24.10927 25.31794-28.46416 16.58115-11.90276 16.58115-11.90276-7.86523,17.14365-17.47077,30.21586-34.92459,42.69917-40.16354,49.3802-17.17284,22.65801-17.17284,22.65801z"/>
</clipPath>
<clipPath id="clipPath5373">
<path d="m147.68624-160.64924c1.37406.27481 4.76961-9.62505 27.08475-17.95273 25.51393-9.5214 51.40362-7.62866 74.65943-8.21006s33.13954-.5814 50.5814-1.16279 41.83683-2.19087 41.83683-2.19087l-2.30195,30.09784-41.74309,3.19402c0,0 .18793-2.44233-4.46323-2.44233s-4.85671,1.91447-4.85671,1.91447-13.32286,1.12614-31.49511,3.72919c-8.56775,1.22728-28.81684,4.58063-50.85143,4.82145-16.28847.17802-26.91447.34058-39.70517-4.89198s-18.74572-6.90621-18.74572-6.90621z"/>
</clipPath>
<filter id="filter6018">
<feGaussianBlur stdDeviation="10.92006"/>
</filter>
<filter id="filter4684">
<feGaussianBlur stdDeviation="1.48269"/>
</filter>
<filter id="filter5359">
<feGaussianBlur stdDeviation="1.1777"/>
</filter>
<filter id="filter5719">
<feGaussianBlur stdDeviation="3.2056"/>
</filter>
<filter id="filter3979">
<feGaussianBlur stdDeviation=".37964"/>
</filter>
<filter id="filter8490">
<feGaussianBlur stdDeviation=".52629"/>
</filter>
<filter height="1.16758" id="filter4838" width="1.22476" x="-.11238" y="-.08379">
<feGaussianBlur stdDeviation=".85637"/>
</filter>
<filter height="1.11164" id="filter4842" width="1.33933" x="-.16966" y="-.05582">
<feGaussianBlur stdDeviation="1.42328"/>
</filter>
<filter height="1.04063" id="filter4603" width="1.31615" x="-.15808" y="-.02031">
<feGaussianBlur stdDeviation="1.05604"/>
</filter>
<filter height="1.04026" id="filter4619" width="1.34036" x="-.17018" y="-.02013">
<feGaussianBlur stdDeviation=".22674"/>
</filter>
<filter height="1.04083" id="filter4633" width="1.30436" x="-.15218" y="-.02041">
<feGaussianBlur stdDeviation=".20276"/>
</filter>
<filter height="1.06817" id="filter5285" width="1.50057" x="-.25029" y="-.03409">
<feGaussianBlur stdDeviation=".37514"/>
</filter>
<filter height="1.7137" id="filter4150" width="1.14425" x="-.07213" y="-.35685">
<feGaussianBlur stdDeviation=".56316"/>
</filter>
<filter height="1.28598" id="filter3913" width="1.04118" x="-.02059" y="-.14299">
<feGaussianBlur stdDeviation=".38211"/>
</filter>
<filter height="7.41995" id="filter3923" width="1.02409" x="-.01205" y="-3.20997">
<feGaussianBlur stdDeviation=".77762"/>
</filter>
<linearGradient id="linearGradient4717">
<stop offset="0" stop-color="#dfe0db"/>
<stop offset=".49415" stop-color="#787976"/>
<stop offset=".60805" stop-color="#81817e"/>
<stop offset="1" stop-color="#8a8a87"/>
</linearGradient>
<linearGradient id="linearGradient5275">
<stop offset="0" stop-color="#2c2c2c"/>
<stop offset="1" stop-color="#2c2c2c" stop-opacity="0"/>
</linearGradient>
<linearGradient id="linearGradient3905">
<stop offset="0" stop-color="#fff"/>
<stop offset="1" stop-color="#fff" stop-opacity="0"/>
</linearGradient>
<linearGradient gradientUnits="userSpaceOnUse" id="linearGradient8624" x1="1267.5662" x2="1268.0529" y1="511.85403" y2="682.36371">
<stop offset="0" stop-color="#dfe0db"/>
<stop offset=".49415" stop-color="#787976"/>
<stop offset=".60805" stop-color="#81817e"/>
<stop offset="1" stop-color="#8a8a87" stop-opacity=".604"/>
</linearGradient>
<linearGradient gradientUnits="userSpaceOnUse" id="linearGradient8628" x1="444.9246" x2="461.95784">
<stop offset="0" stop-color="#2b2b29"/>
<stop offset=".07428" stop-color="#393b3a"/>
<stop offset=".17933" stop-color="#5f6160"/>
<stop offset=".28942" stop-color="#f3f5f4"/>
<stop offset=".57885" stop-color="#dde3e3"/>
<stop offset=".69615" stop-color="#585d60"/>
<stop offset=".88462" stop-color="#a8b0b2"/>
<stop offset="1" stop-color="#6c7477"/>
</linearGradient>
<linearGradient gradientUnits="userSpaceOnUse" id="linearGradient8634" x1="420.93021" x2="427.90586" y1="-138.66279" y2="-132.55648">
<stop offset="0" stop-color="#ebebeb"/>
<stop offset="1" stop-color="#b2b2b2"/>
</linearGradient>
<linearGradient gradientUnits="userSpaceOnUse" id="linearGradient8646" x1="509.22052" x2="602.2442" y1="-94.13786" y2="-95.93023">
<stop offset="0" stop-color="#d8d8d4"/>
<stop offset=".32364" stop-color="#d9dad5"/>
<stop offset=".64729" stop-color="#c0c1bc"/>
<stop offset=".73216" stop-color="#787976"/>
<stop offset=".91443" stop-color="#81817e"/>
<stop offset="1" stop-color="#8a8a87"/>
</linearGradient>
<linearGradient gradientUnits="userSpaceOnUse" id="linearGradient8658" x1="334.33459" x2="335.85031" y1="435.99432" y2="430.99432">
<stop offset="0" stop-color="#414242"/>
<stop offset="1" stop-color="#414242" stop-opacity="0"/>
</linearGradient>
<linearGradient gradientTransform="matrix(.9998,-.01998,.01998,.9998,-51.63193,8.35783)" gradientUnits="userSpaceOnUse" id="linearGradient8618" x1="284.13196" x2="313.05667" xlink:href="#linearGradient4717" y1="-59.3109" y2="4.93329"/>
<linearGradient gradientTransform="matrix(.48302,-.07789,.07789,.48302,-428.37702,132.04574)" gradientUnits="userSpaceOnUse" id="linearGradient8622" x1="1221.4379" x2="1277.0999" xlink:href="#linearGradient4717"/>
<linearGradient gradientTransform="matrix(.48302,-.07789,.07789,.48302,-428.37702,132.04574)" gradientUnits="userSpaceOnUse" id="linearGradient8638" x1="1401.3088" x2="1414.6176" xlink:href="#linearGradient4717" y1="838.13385" y2="806.51611"/>
<linearGradient gradientUnits="userSpaceOnUse" id="linearGradient8640" x1="113.61292" x2="270.36447" xlink:href="#linearGradient4717" y1="-89.40063" y2="-81.17846"/>
<linearGradient gradientUnits="userSpaceOnUse" id="linearGradient8650" x1="933.8385" x2="989.59235" xlink:href="#linearGradient4717" y1="574.78461" y2="772.8045"/>
<linearGradient gradientTransform="matrix(.48302,-.07789,.07789,.48302,-428.37702,132.04574)" gradientUnits="userSpaceOnUse" id="linearGradient8656" x1="1342.5219" x2="1478.0615" xlink:href="#linearGradient4717"/>
<linearGradient gradientUnits="userSpaceOnUse" id="linearGradient8668" x1="233.0397" x2="250.1022" xlink:href="#linearGradient4717"/>
<radialGradient cx="229.37186" cy="-39.34779" gradientTransform="matrix(.99236,-.12341,2.7888,22.42422,111.48657,871.30349)" gradientUnits="userSpaceOnUse" id="radialGradient8620" r="2.55382">
<stop offset="0" stop-color="#292a24"/>
<stop offset="1" stop-color="#292a24" stop-opacity="0"/>
</radialGradient>
<radialGradient cx="390.26163" cy="-207.7697" gradientTransform="matrix(1.25517,-.14751,.70939,6.03604,48.53345,1104.2628)" gradientUnits="userSpaceOnUse" id="radialGradient8630" r="2.64303">
<stop offset="0" stop-color="#3d3d3d"/>
<stop offset="1" stop-color="#3d3d3d" stop-opacity="0"/>
</radialGradient>
<radialGradient cx="386.6279" cy="-208.02315" gradientTransform="matrix(.99912,.04185,-.25831,6.16619,-53.39553,1059.696)" gradientUnits="userSpaceOnUse" id="radialGradient8632" r="3.37616">
<stop offset="0" stop-color="#676767"/>
<stop offset="1" stop-color="#676767" stop-opacity="0"/>
</radialGradient>
<radialGradient cx="448.67365" cy="-170.51378" gradientTransform="matrix(.29896,.24955,-1.40156,1.67903,75.5538,3.81685)" gradientUnits="userSpaceOnUse" id="radialGradient8636" r="12.04407">
<stop offset="0" stop-color="#2b2b29"/>
<stop offset="1" stop-color="#2b2b29" stop-opacity="0"/>
</radialGradient>
<radialGradient cx="220.10092" cy="-88.25311" gradientTransform="matrix(1.05599,-.10851,.03113,.30297,-9.57595,-99.12178)" gradientUnits="userSpaceOnUse" id="radialGradient8644" r="100.90769">
<stop offset="0" stop-color="#d9d9d9"/>
<stop offset="1" stop-color="#d9d9d9" stop-opacity="0"/>
</radialGradient>
<radialGradient cx="526.35767" cy="-69.04929" gradientTransform="matrix(.92336,-.41186,.35677,.79984,64.97305,199.26152)" gradientUnits="userSpaceOnUse" id="radialGradient8648" r="17.11344">
<stop offset="0"/>
<stop offset="1" stop-opacity="0"/>
</radialGradient>
<radialGradient cx="1410.2917" cy="715.25378" gradientTransform="matrix(.48302,-.07789,.08783,.54466,-435.48657,87.95712)" gradientUnits="userSpaceOnUse" id="radialGradient8654" r="67.26982">
<stop offset="0" stop-color="#4d4d4d"/>
<stop offset="1" stop-color="#4d4d4d" stop-opacity="0"/>
</radialGradient>
<radialGradient cx="502.34433" cy="-101.23943" gradientTransform="matrix(.69003,.00171,-.00181,.72871,116.18115,55.78507)" gradientUnits="userSpaceOnUse" id="radialGradient8666" r="14.00844">
<stop offset="0" stop-color="#fbfbfb"/>
<stop offset="1" stop-color="#fbfbfb" stop-opacity="0"/>
</radialGradient>
<radialGradient cx="163.21011" cy="-101.30056" gradientTransform="matrix(-1.91659,.23652,-.02183,-.17691,473.80591,-157.8237)" gradientUnits="userSpaceOnUse" id="radialGradient8642" r="19.11655" xlink:href="#linearGradient5275"/>
<radialGradient cx="163.21011" cy="-101.30056" gradientTransform="matrix(.21974,-3.14291,-.29011,-.02028,882.193,1139.0859)" gradientUnits="userSpaceOnUse" id="radialGradient8652" r="19.11655" xlink:href="#linearGradient5275"/>
<radialGradient cx="186.57098" cy="103.7669" gradientTransform="matrix(1.44667,.14172,-.02212,.22577,-10.51799,-41.38162)" gradientUnits="userSpaceOnUse" id="radialGradient8660" r="22.76708" xlink:href="#linearGradient3905"/>
<radialGradient cx="188.90033" cy="109.62833" gradientTransform="matrix(1.99677,8.2637207e-8,0,.09919,-172.4224,122.85597)" gradientUnits="userSpaceOnUse" id="radialGradient8662" r="22.76708" xlink:href="#linearGradient3905"/>
<radialGradient cx="299.27325" cy="121.80233" gradientTransform="matrix(1,0,0,.0393,68.60465,-30.61199)" gradientUnits="userSpaceOnUse" id="radialGradient8664" r="80.33721" xlink:href="#linearGradient3905"/>
</defs>
<g transform="translate(0,-785.36218)">
<g transform="translate(-62.55778,510.63496)">
<path d="m1237.612,525.96584c0,0-6.0453,8.4836-7.9688,34.3125-1.2759,17.1328 3.3041,63.816 6.5625,93.5937l-8.1563,18.0626c0,0-20.455,10.1026-25.4062,15.8124s-3.8486,3.6402-5,13.3126 6.9859,32.0461 6.4062,43.125c-.2101,4.0234-5.8544,18.9369-12.9062,36.25-.657-.9927-1.24-2.4768-1.5625-4.75-1.0655-7.5136 2-8.2813 2-8.2813s-1.2293-21.7999-1.1875-51.75c.01-7.0603.1979-18.9408-.1875-33.5313-.048-1.8225-.088-3.69-.1563-5.5937-.4755-13.3257-1.493-28.4981-3.5312-44.0937-3.4438-26.3524-5.6177-43.569-17-63.0313s-15.4375-28.6875-15.4375-28.6875c.047.1348.041.284-.031.4688-.034.086-.1291.2123-.1874.3124-.3424-.7264-.6563-1.375-.6563-1.375 .7587,2.1578-14.4412,9.8902-22.7813,47.8438-9.5344,43.394-.5445,84.8015 3.8438,122.5s6.631,53.6616 9.6875,81.9688c1.3317,12.3324 2.6544,26.7076 3.7187,39.1562l-6.75-7.1562c0,0-8.9729,8.1099-12.7187,5.4374s2.8437-14.4997 2.8437-14.5l-7.625,10.125-4.7812-4.4062 3.0312-14.3125-7.8124,9.9375-4.7813-4.4062 3.2187-14.1563-8,9.7813-4.7812-4.4063 3.4062-13.9687-8.1874,9.5937-4.7813-4.4063 3.625-13.7812-8.4063,9.4062-4.7812-4.4062 3.8125-13.5938-8.5937,9.2188-4.7813-4.4062 4-13.4376-8.7813,9.0626-4.7812-4.4063 4.1875-13.25-8.9687,8.875-4.7813-4.4063 4.4063-13.0624-9.1876,8.6874-4.7812-4.4062 4.5938-12.875-9.375,8.5-4.7813-4.4062 4.7813-12.7188-9.5626,8.3438-4.7812-4.4063 4.9688-12.5313-9.75,8.1563-4.7813-4.4063 5.1563-12.3437-9.9376,7.9687-4.7812-4.4062 5.375-12.1562-10.15623,7.7812-4.7813-4.4062 5.5625-12-10.3438,7.625-4.7812-4.4063 5.75-11.8125-10.5312,7.4375-4.7813-4.4063 5.9375-11.625-10.7188,7.25-4.7812-4.4062 6.1562-11.4375-10.9374,7.0625-4.7813-4.4062 6.5937-11.0313-22.375-18.4063c0,0-5.3941,29.0038 1.7813,41.2188 5.606,9.5433 119.68913,137.7842 170.50003,194.75l-6.8437-1.9062c0,0-31.5398,35.1078-31.9688,36.1562-.345.843 10.6908-2.3566 18.5938-5.9688-4.205,4.1946-6.8061,9.4978-7.8126,16.0626-1.6842,10.996 3.3438,13.5937 3.3438,13.5937s4.3368-13.5899 10.375-16.1563 14.6696-.1764 18.5938,6.375 2.5298,19.2945-1.1563,22.2813l-25.5625,20.7187c-4.3602,3.5342-15.7133,4.6968-17.1562-5.2187l-52.0626-3.7813c0,0 10.5887,14.3446 17.2813,19.1876 11.312,8.1845 15.8682,10.046 24.5,12.375 7.8875,2.1268 16.2499,2.8608 24.2187,1.25 9.7446-1.9714 18.7353-7.7579 27.5938-13.0938 17.5052-10.5444 50.0625-37.125 50.0625-37.125l-.6875-3.625c5.4928,2.6107 10.1117,3.0212 28.5,1.6875 17.2695-1.2524 100.5846-72.3589 145.2812-111.5l103.625,140.3125 16.4062,7.6875 1.8125-1.2813-1.9062-19.4374-79.0312-112.4376c3.5941,1.7437 6.3729,2.9846 7.5625,3.2813 6.595,1.6447 10.6048-1.8975 15.2812-4.2813s14.6876-9.5312 14.6876-9.5312 1.4882,22.1673 5.625,27.3438 3.1155,4.8513 9.0312,3.9687 19.7812-14.9375 19.7812-14.9375 .9522,21.7103 3.375,25.6562 4.8854,4.7332 10.7187,3.6563 18.6562-13.5313 18.6562-13.5313l2.25,20.9063c0,0 1.3404,5.1807 4.5,7.0313s6.3038,2.4088 11.875-.5626 15.5-18.9062 15.5-18.9062l-2.5312-1.9375-20.3125,14.375c0,0-.4511-22.1433-4.25-27.375s-3.1419-4.7046-9.0313-3.9687-18.9062,14.4062-18.9062,14.4062-2.0605-20.836-4.8125-25.9688-4.1299-5.0244-6.7812-5.6562-5.3437,1.6875-5.3437,1.6875-11.6138,11.2625-15.25,14.6875c-3.6362,3.425-4.25-25.8849-6.1875-29.3438s-2.6626-4.5293-9.0312-3.9687-23.7188,15.8125-23.7188,15.8125l-10.4688-5.6562 5.8126-21.9063c5.794-.7156 11.3011-1.3518 15.2812-1.7813 13.9104-1.5005 78.0246-5.6769 104.4999-9.375s55.75-14.1562 55.75-14.1562-21.2938-4.0171-33.125-5.875-45.7553,1.0777-62.7188,2.875-82.3713,4.5913-90.8436,4.8125c-2.5801.067-6.6691-.5708-11.0937-1.5-.8788-5.4601-1.7053-10.7001-1.9688-13-.6929-6.0497 142.7811-115.1875 142.7811-115.1875s-7.7527-18.4075-14.6562-24.8438-15.0196-11.371-24.8438-12.4062c-9.2464-.9744-9.5786-3.5192-27.0311,5.9688l.9062-3.25-68-62.875-31.8124-19.5313-14.2188,14.1875 17.2812,25.625 36.4376,17.7812c0,0 13.1746,8.709 14.1562,17.8126s-2.4906,14.3922-6.0625,18.5624-3.0625,3.5626-3.0625,3.5626l-8.4375-8.25-3.0625,10.8124 8.75,8.5c0,0 8.0963-10.0668 11.9688-6.75s-4.1563,14.5002-4.1563,14.5l4,3.3126c-29.313,23.5173-69.5589,56.5818-109.4375,89.6562l-14.0625-84.2188c11.3057-30.4692 29.2721-85.9688 32.1875-105.75 3.9264-26.6399 0-26.5312 0-26.5312l-42,87.8438-22.4062-94.3438zm19.2812,162.4375c1.3301,1.2782 2.6428,2.7377 3.875,4.4375 8.3514,11.5204 13.5958,57.497 14.25,63.5-22.8217,18.9521-44.0487,36.6642-63.4688,52.9375l-3.8124-13.6875-5.6563-5.6562c0,0 22.3445-91.2563 29.9375-95.9688 6.0631-3.763 17.6578-2.3403 24.875-5.5625z" filter="url(#filter6018)" opacity=".5" transform="matrix(.48302,-.07789,.07789,.48302,-428.37702,132.04574)"/>
<g transform="matrix(-.14045,-.87097,-.71284,.11495,173.11259,742.2214)">
<g transform="matrix(.83872,.54456,-.54456,.83872,43.94303,-152.56906)">
<path d="m248.07597-86.72913-23.06691,8.27365c0,0-.351,26.52285 1.20378,39.65584 .7868,6.64595 1.41446,13.52263 4.09357,19.65534 2.19107,5.0156 5.61914,9.53889 9.51918,13.37904 4.26804,4.20249 6.81929,6.23282 14.80092,10.18954 4.72217,2.34091 15.29424,4.01182 15.29424,4.01182l-20.95753-28.43503c-5.14455,2.17447-8.79772-4.63877-8.7633-8.18371l.20168-20.76916c.0291-2.99691 5.43106-7.64585 9.92639-7.39423s8.80135,4.43732 9.83576,8.64402-3.69117,10.76473-3.69117,10.76473 3.0696,2.07191 7.56292-2.20711c4.21259-4.01169 5.54042-9.30093 4.2009-16.1204-.47727-2.42972-.90134-4.93367-1.99339-7.156-4.46126-9.07874-18.16704-24.30834-18.16704-24.30834z" fill="url(#linearGradient8618)"/>
<path d="m226.81804-57.66174 3.48837,36.62791c0,0 2.47093-5.66861 1.30814-17.58721s-4.79651-19.0407-4.79651-19.0407z" fill="url(#radialGradient8620)"/>
</g>
<g clip-path="url(#clipPath4834)" transform="translate(-9.88372,-178.19768)">
<path d="m270.93023,137.5c0,0-2.97164.0466 2.76163-9.88372 7.12209-10.75581 11.19489-18.5195 15.84605-12.99625s-18.60768,22.87997-18.60768,22.87997z" fill="none" filter="url(#filter4838)" stroke="#000"/>
<path d="m313.22674,82.70349-4.10426,5.27669c0,0 2.21473,14.6361 1.63333,24.08377s-1.30814,11.19186-3.77907,15.84303-5.3779,16.27907-4.79651,15.98837 20.05814-21.65698 20.05814-21.65698z" fill="none" filter="url(#filter4842)" stroke="#fff"/>
</g>
</g>
<path d="m205.54444,284.17638c0,0-2.26524,4.58028-1.18251,17.20611s13.95708,57.10545 13.95708,57.10545 6.13414-.76434 11.40845,4.49165 11.97984,30.12048 11.97984,30.12048l4.68409-1.4771-16.0865-47.70892z" fill="url(#linearGradient8622)"/>
<g fill="#fff" transform="matrix(.48302,-.07789,.07789,.48302,-428.37702,132.04574)">
<path d="m1154.0166,835.88752c0,0 41.4594-93.32455 42.039-104.4035s-7.5519-33.47148-6.4006-43.14359 .062-7.60676 5.0129-13.31657 25.4071-15.80885 25.4071-15.80885l21.4549-47.42653 9.0336-1.1292 43.4743-90.90086c0,0 3.9264-.10455 0,26.53628s-35.1862,118.13789-40.6513,125.90615c-5.465,7.76826-21.7663,4.32111-29.3593,9.03362s-29.9239,95.98227-29.9239,95.98227l5.6461,5.64602 5.646,20.32566-49.685,39.52211z" fill="#fff"/>
</g>
<g fill="url(#linearGradient8624)" transform="matrix(.48302,-.07789,.07789,.48302,-428.37702,132.04574)">
<path d="m1154.0166,835.88752c0,0 41.4594-93.32455 42.039-104.4035s-7.5519-33.47148-6.4006-43.14359 .062-7.60676 5.0129-13.31657 25.4071-15.80885 25.4071-15.80885l21.4549-47.42653 9.0336-1.1292 43.4743-90.90086c0,0 3.9264-.10455 0,26.53628s-35.1862,118.13789-40.6513,125.90615c-5.465,7.76826-21.7663,4.32111-29.3593,9.03362s-29.9239,95.98227-29.9239,95.98227l5.6461,5.64602 5.646,20.32566-49.685,39.52211z" fill="url(#linearGradient8624)"/>
</g>
<g transform="matrix(.54678,-.53306,-.53306,-.54678,15.59825,570.11897)">
<path d="m445.42461-174.58327 2.67221-114.6993 5.75552-10.07216h1.43888l6.16663,10.89438v113.26041z" fill="url(#linearGradient8628)" transform="translate(-65.46564,75.98845)"/>
<path clip-path="url(#clipPath4611)" d="m452.87932-150.77495 2.67221-114.6993 5.75552-10.07216h1.43888l6.16663,10.89438v113.26042z" fill="none" filter="url(#filter4603)" stroke="#000" transform="translate(-72.92035,52.18013)"/>
<path d="m390.26162-225.2907c0,0 .5814,7.99419.43605,14.68023s3.05233,16.27907 3.05233,16.27907" fill="none" filter="url(#filter4619)" stroke="url(#radialGradient8630)" stroke-linecap="round" stroke-linejoin="round" stroke-width="2"/>
<path d="m387.49999-220.20349c0,0-.24664,8.11841-.87208,13.37209-.72675,6.10466-2.90698,10.17441-2.90698,10.17441" fill="none" filter="url(#filter4633)" stroke="url(#radialGradient8632)" stroke-linecap="round" stroke-linejoin="round" stroke-width="2"/>
</g>
<g transform="matrix(.647,.4811,-.4811,.647,-28.34381,283.36266)">
<path d="m387.7907-110.75582c0,0 13.66279-7.55814 17.15116-11.33721s29.94186-33.43023 36.33721-41.56976 19.47674-24.12791 25.2907-28.48837 16.56976-11.91861 16.56976-11.91861-7.84883,17.15116-17.44186,30.23256-34.88372,42.73256-40.11628,49.4186-17.15116,22.67442-17.15116,22.67442z" fill="url(#linearGradient8634)"/>
<path d="m460.71772-184.98735-24.08815,28.94713c0,0 10.89162-8.89464 14.98461-14.02944s9.10354-14.91769 9.10354-14.91769z" fill="url(#radialGradient8636)"/>
</g>
<path clip-path="url(#clipPath4688)" d="m445.15686-168.30943c0,0 13.67001-7.54506 17.16199-11.32079s29.97383-33.40157 36.37697-41.53498 19.49981-24.10927 25.31794-28.46416 16.58115-11.90276 16.58115-11.90276-7.86523,17.14365-17.47077,30.21586-34.92459,42.69917-40.16354,49.3802-17.17284,22.65801-17.17284,22.65801z" fill="none" filter="url(#filter4684)" opacity=".5" stroke="#3d3d3d" transform="matrix(.64746,.48048,-.48048,.64746,-93.2494,293.35371)"/>
<path d="m271.33459,417.81169c0,0 27.69334,9.95688 31.00699,10.23761s4.98156-1.73237 7.0547-3.24801 6.34671-5.75649 6.34671-5.75649 2.45695,10.59721 4.85822,12.7754 1.88261,2.09249 4.67129,1.20539 8.38149-8.75463 8.38149-8.75463 2.15771,10.41587 3.63544,12.13317 2.73369,1.91161 5.46743.93709 7.94601-7.98488 7.94601-7.98488l2.71802,9.91458c0,0 1.05923,2.39791 2.72962,3.04558s3.22346.67298 5.68304-1.19623 6.01675-10.33194 6.01675-10.33194l-1.36773-.74694-8.69819,8.52589c0,0-1.9358-10.66575-4.17825-12.8969s-1.88398-2.01955-4.67133-1.20537-8.01455,8.42748-8.01455,8.42748-2.62349-9.90437-4.35256-12.16926-2.38264-2.10073-3.71235-2.19944-2.44737,1.23408-2.44737,1.23408-4.73031,6.34039-6.2199,8.27799-4.08142-12.17774-5.28668-13.69748-1.63871-1.97222-4.67133-1.20537-10.22267,9.48307-10.22267,9.48307l-5.48505-1.91357 1.1246-11.24559-11.54446-2.18375z" fill="url(#linearGradient8638)"/>
<path d="m166.33723,297.80984c.53444.98259-6.21017,5.91232-7.28227,24.89437-1.22575,21.70305 6.33931,40.99349 11.39536,58.86094s7.39321,25.4027 11.07438,38.83767 8.2228,32.41401 8.2228,32.41401l22.40194-8.87218-7.43584-32.57975c0,0-1.81758.72081-2.91744-2.82518s.31113-4.15542.31113-4.15542-2.29186-10.4235-4.6045-24.89336c-1.0902-6.82219-3.32207-23.05281-8.34896-39.90869-3.71598-12.46024-6.10479-20.59982-13.11863-29.11397s-9.69797-12.65844-9.69797-12.65844z" fill="#fff"/>
<g transform="matrix(.23647,.76239,.76239,-.23647,201.72068,192.57202)">
<path d="m112.7907-81.39535c1.37406.27481 4.76961-9.62505 27.08475-17.95273 25.51393-9.52141 51.40362-7.62867 74.65943-8.21007s33.13954-.5814 50.5814-1.16279 41.83683-2.19087 41.83683-2.19087l-2.30195,30.09785-41.74309,3.19402c0,0 .18793-2.44234-4.46323-2.44234s-4.85671,1.91447-4.85671,1.91447-13.32286,1.12614-31.49511,3.72919c-8.56775,1.22727-28.81684,4.58063-50.85143,4.82145-16.28847.17802-26.91447.34057-39.70517-4.89198s-18.74572-6.90621-18.74572-6.90621z" fill="url(#linearGradient8640)" opacity=".60153"/>
<path d="m255.9151-106.89473 1.23333,26.41372 2.36387-.30833z" fill="#585856" filter="url(#filter5285)"/>
<path d="m144.09356-98.98089 38.2331-5.34441c0,0-6.98884,4.31664-15.82768,5.54996s-22.40542-.20555-22.40542-.20555z" fill="url(#radialGradient8642)"/>
<path clip-path="url(#clipPath5373)" d="m147.68624-160.64924c1.37406.27481 4.76961-9.62505 27.08475-17.95273 25.51393-9.5214 51.40362-7.62866 74.65943-8.21006s33.13954-.5814 50.5814-1.16279 41.83683-2.19087 41.83683-2.19087l-2.30195,30.09784-41.74309,3.19402c0,0 .18793-2.44233-4.46323-2.44233s-4.85671,1.91447-4.85671,1.91447-13.32286,1.12614-31.49511,3.72919c-8.56775,1.22728-28.81684,4.58063-50.85143,4.82145-16.28847.17802-26.91447.34058-39.70517-4.89198s-18.74572-6.90621-18.74572-6.90621z" fill="none" filter="url(#filter5359)" stroke="url(#radialGradient8644)" stroke-width="4" transform="translate(-35.33159,78.78006)"/>
</g>
<g transform="matrix(-.56331,-.34413,-.34413,.56331,559.32334,547.78826)">
<path d="m505.52326-104.65116 68.60465-2.61628 27.32558,4.36046 1.16279,14.82558-22.09302,6.10465-29.06977-7.55814c0,0-11.62791-1.45349-16.56977,3.19767s-5.52325,9.30233-5.52325,13.37209v3.48837l8.72093-.5814-3.48838,7.55814-9.01162.5814c0,0 .29069-9.59302-3.48838-9.59302s-4.65116,10.17442-4.65116,10.17442l-31.97674-.5814z" fill="url(#linearGradient8646)"/>
<path d="m508.94998-71.03399c0,0 7.69207,1.57838 13.19788.15958 7.64631-1.97039 12.17529-5.85656 16.32582-11.45286" fill="none" filter="url(#filter4150)" opacity=".53257" stroke="url(#radialGradient8648)" stroke-width="4" transform="matrix(.85261,-.52255,.52255,.85261,104.94323,264.12564)"/>
</g>
<g transform="matrix(.26931,-.40847,.40847,.26931,-422.69176,610.23577)">
<path d="m976.34228,564.91631c0,0-25.01217,15.63746-29.15669,29.18423s-32.01029,296.11214-32.01029,296.11214l58.70915,1.05168 4.02935-55.43239c0,0-12.03904-1.13003-12.60393-5.69662s12.60393-7.72108 12.60393-7.72108l-12.60393,1.22955v-6.49152l12.60393-7.45615-12.60393.96462v-6.49153l12.60393-7.1912-12.60393.69968v-6.49153l12.60393-6.92627-12.60393.43475v-6.49153l12.60393-6.66134-12.60393.16981v-6.49152l12.60393-6.39641-12.60393-.0951v-6.49153l12.60393-6.13146-12.60393-.36006v-6.49153l12.60393-5.86653-12.60393-.62505v-6.49152l12.60393-5.60155-12.60393-.88998v-6.49153l12.60393-5.3366-12.60393-1.15497v-6.49153l12.60393-5.07162-12.60393-1.4199v-6.49153l12.60393-4.80669-12.60393-1.68484v-6.49152l12.60393-4.54175-12.60393-1.94978v-6.49153l12.60393-4.27681-12.60393-2.21471v-6.49153l12.60393-4.01188-12.60393-2.47965v-6.49152l12.60393-3.74695-12.60393-2.74458v-6.49152l12.60393-3.48201-12.60393-3.00952v-6.49153l12.60393-3.21707-12.60393-3.27445v-6.49153l12.60393-2.61543z" fill="#fff"/>
<path d="m976.34228,564.91631c0,0-25.01217,15.63746-29.15669,29.18423s-32.01029,296.11214-32.01029,296.11214l58.70915,1.05168 4.02935-55.43239c0,0-12.03904-1.13003-12.60393-5.69662s12.60393-7.72108 12.60393-7.72108l-12.60393,1.22955v-6.49152l12.60393-7.45615-12.60393.96462v-6.49153l12.60393-7.1912-12.60393.69968v-6.49153l12.60393-6.92627-12.60393.43475v-6.49153l12.60393-6.66134-12.60393.16981v-6.49152l12.60393-6.39641-12.60393-.0951v-6.49153l12.60393-6.13146-12.60393-.36006v-6.49153l12.60393-5.86653-12.60393-.62505v-6.49152l12.60393-5.60155-12.60393-.88998v-6.49153l12.60393-5.3366-12.60393-1.15497v-6.49153l12.60393-5.07162-12.60393-1.4199v-6.49153l12.60393-4.80669-12.60393-1.68484v-6.49152l12.60393-4.54175-12.60393-1.94978v-6.49153l12.60393-4.27681-12.60393-2.21471v-6.49153l12.60393-4.01188-12.60393-2.47965v-6.49152l12.60393-3.74695-12.60393-2.74458v-6.49152l12.60393-3.48201-12.60393-3.00952v-6.49153l12.60393-3.21707-12.60393-3.27445v-6.49153l12.60393-2.61543z" fill="url(#linearGradient8650)" opacity=".602"/>
<path d="m255.9151-106.89473 1.23333,26.41372 2.36387-.30833z" fill="#585856" filter="url(#filter5285)" transform="matrix(.22908,1.61531,1.61531,-.22908,1045.7261,408.59972)"/>
<path d="m949.57178,596.8404-5.4037,62.75044c0,0 6.42876-11.75905 7.6744-26.26569s-2.2707-36.48475-2.2707-36.48475z" fill="url(#radialGradient8652)"/>
</g>
<path d="m281.28276,390.67537 7.6134,17.76625c0,0 36.50685-40.47462 44.7153-51.52984s.54843-30.95362.54843-30.95362l-56.80822,55.06273z" fill="url(#radialGradient8654)"/>
<path d="m281.28276,390.67537 7.6134,17.76625c0,0 36.50685-40.47462 44.7153-51.52984s.54843-30.95362.54843-30.95362l-56.80822,55.06273z" fill="url(#linearGradient8656)"/>
<path d="m271.33459,417.81169c0,0 27.69334,9.95688 31.00699,10.23761s4.98156-1.73237 7.0547-3.24801 6.34671-5.75649 6.34671-5.75649 2.45695,10.59721 4.85822,12.7754 1.88261,2.09249 4.67129,1.20539 8.38149-8.75463 8.38149-8.75463 2.15771,10.41587 3.63544,12.13317 2.73369,1.91161 5.46743.93709 7.94601-7.98488 7.94601-7.98488l2.71802,9.91458c0,0 1.05923,2.39791 2.72962,3.04558s3.22346.67298 5.68304-1.19623 6.01675-10.33194 6.01675-10.33194l-1.36773-.74694-8.69819,8.52589c0,0-1.9358-10.66575-4.17825-12.8969s-1.88398-2.01955-4.67133-1.20537-8.01455,8.42748-8.01455,8.42748-2.62349-9.90437-4.35256-12.16926-2.38264-2.10073-3.71235-2.19944-2.44737,1.23408-2.44737,1.23408-4.73031,6.34039-6.2199,8.27799-4.08142-12.17774-5.28668-13.69748-1.63871-1.97222-4.67133-1.20537-10.22267,9.48307-10.22267,9.48307l-5.48505-1.91357 1.1246-11.24559-11.54446-2.18375z" fill="url(#linearGradient8658)"/>
<path d="m187.97394,454.65025c4.23748-5.60204 111.68582-129.64795 120.87875-136.94364s9.28508-5.92761 14.11098-6.19278 9.1311,1.49369 12.96701,4.06475 9.02558,10.8561 9.02558,10.8561-60.81233,63.8889-60.00642,66.75711 4.89778,14.87942 4.89778,14.87942-62.48143,77.49542-73.81153,80.17556-11.80802,2.19007-16.71477.45689-8.14461-3.82029-11.0314-9.41341-4.55341-19.03797-.31598-24.64z" fill="#c72d25"/>
<path d="m1450.7812,617.84375c-17.69,3.79028-31.697,17.1585-45.4463,28.38611-87.2767,69.98821-173.5908,141.3761-258.4599,214.42639-8.0385,13.45282-7.7753,31.30765-.3125,44.84375 11.659,15.34078 35.789,15.18949 50.125,3.5625 32.7462-22.08888 62.6535-48.07221 93.0191-73.36336 19.1735-16.32347 38.2072-33.06156 56.9809-49.88664-1.6686-11.1823-6.5954-23.42954-1.625-34.375 21.8793-23.97235 49.5567-41.65831 74.2756-62.57735 20.9305-16.406 41.9375-32.69517 63.0681-48.86015-5.5302-12.12313-17.6849-22.81307-31.625-22.15625z" fill="#cf453a" filter="url(#filter5719)" transform="matrix(.48302,-.07789,.07789,.48302,-428.37702,132.04574)"/>
<path d="m248.83721,2.0814c0,0 1.74419,5.52326 9.88372,7.26744s35.46512,1.74419 35.46512,1.74419" fill="none" filter="url(#filter3913)" opacity=".50192" stroke="url(#radialGradient8660)" stroke-width="3" transform="matrix(.62769,-.7043,.69679,.62306,46.7912,656.34771)"/>
<path d="m191.86047,126.74418c0,0 1.74419,5.52326 9.88372,7.26744s62.7907.87209 62.7907.87209" fill="none" filter="url(#filter3913)" opacity=".50192" stroke="url(#radialGradient8662)" stroke-width="3" transform="matrix(.62769,-.7043,-.69679,-.62306,160.53559,681.57689)"/>
<path d="m290.40698-25.53487 154.94186-.5814" fill="none" filter="url(#filter3923)" opacity=".61303" stroke="url(#radialGradient8664)" stroke-linecap="round" stroke-width="2" transform="matrix(.62769,-.7043,.69679,.62306,46.7912,656.34771)"/>
<path d="m445.34884-26.11627c14.45142-4.63565 29.35314,8.66073 23.8443,24.66651" fill="none" filter="url(#filter3979)" opacity=".7" stroke="url(#radialGradient8666)" stroke-width="2" transform="matrix(.62769,-.7043,.69679,.62306,46.7912,656.34771)"/>
<g transform="matrix(.44927,-.21547,.21547,.44927,-18.66332,123.36516)">
<path d="m245.60413,604.36206c0,4.84441-3.92717,8.77158-8.77158,8.77158s-8.77158-3.92717-8.77158-8.77158 3.92717-8.77158 8.77158-8.77158 8.77158,3.92717 8.77158,8.77158z" fill="#4d4d4d" filter="url(#filter8490)" transform="translate(4.73841,15.99241)"/>
<path d="m241.57096,611.58884c-4.13884,0-7.60846,2.86273-8.53125,6.71875h17.0625c-.92279-3.85602-4.39241-6.71875-8.53125-6.71875zm-8.40625,11.25c1.07194,3.63352 4.42541,6.28125 8.40625,6.28125s7.33431-2.64773 8.40625-6.28125h-16.8125z" fill="url(#linearGradient8668)"/>
</g>
</g>
</g>
</svg>
