<?xml version="1.0" encoding="UTF-8" standalone="no"?><svg xmlns="http://www.w3.org/2000/svg" xmlns:xlink="http://www.w3.org/1999/xlink" clip-rule="evenodd" stroke-miterlimit="10" viewBox="0 0 1920 1080"><desc>SVG generated by Keynote</desc><defs></defs><g transform="matrix(1.00, 0.00, -0.00, -1.00, 0.0, 1080.0)"><g><clipPath id="clip0x6000026ad020"><path d="M 0.0 1080.0 L 1920.0 1080.0 L 1920.0 0.0 L 0.0 0.0 Z M 0.0 1080.0 "></path></clipPath><g clip-path="url(#clip0x6000026ad020)"><image xlink:href="../../8532EDA3-03AF-4F95-ADCC-1003E38AE155/assets/0F43D2572F34A9AFB59E4515ED9A1249.jpeg" width="3840.00" height="2160.00" transform="matrix(0.50, 0.00, -0.00, -0.50, 0.0, 1080.0)"></image></g></g><g><clipPath id="clip0x6000026ad1a0"><path d="M 1037.0 994.0 L 1787.0 994.0 L 1787.0 88.0 L 1037.0 88.0 Z M 1037.0 994.0 "></path></clipPath><g clip-path="url(#clip0x6000026ad1a0)"><image xlink:href="../../74B0ECFA-81E3-41E9-84C8-B9EF5E762FCE/assets/4E5172FE55927A1CF6671CF92A318A0F.jpeg" width="1650.00" height="2100.00" transform="matrix(0.45, 0.00, -0.00, -0.45, 1037.0, 1018.0)"></image></g></g><image xlink:href="../../FC600657-7DA3-4622-B65E-F7518FC85524/assets/11D80A13AB1384E91E6C4E7486797E6D.png" width="780.00" height="938.00" transform="matrix(1.00, 0.00, -0.00, 1.00, 1022.0, 71.0)"></image><image xlink:href="../../74B0ECFA-81E3-41E9-84C8-B9EF5E762FCE/assets/71AE1DB38B6EEC4E3B10F3049E879B05.png" width="550.00" height="82.00" transform="matrix(1.00, 0.00, -0.00, -1.00, 219.0, 933.0)"></image><text xml:space="preserve" font-family="HelveticaNeue-Light,Helvetica Neue" font-size="100.0" fill="#FEFFFE" transform="matrix(1.00, 0.00, -0.00, -1.00, 221.8, 860.3)">J</text><text xml:space="preserve" font-family="HelveticaNeue-Light,Helvetica Neue" font-size="100.0" fill="#FEFFFE" transform="matrix(1.00, 0.00, -0.00, -1.00, 271.9, 860.3)">o</text><text xml:space="preserve" font-family="HelveticaNeue-Light,Helvetica Neue" font-size="100.0" fill="#FEFFFE" transform="matrix(1.00, 0.00, -0.00, -1.00, 327.4, 860.3)">h</text><text xml:space="preserve" font-family="HelveticaNeue-Light,Helvetica Neue" font-size="100.0" fill="#FEFFFE" transform="matrix(1.00, 0.00, -0.00, -1.00, 381.1, 860.3)">n</text><text xml:space="preserve" font-family="HelveticaNeue-Light,Helvetica Neue" font-size="100.0" fill="#FEFFFE" transform="matrix(1.00, 0.00, -0.00, -1.00, 434.9, 860.3)"> </text><text xml:space="preserve" font-family="HelveticaNeue-Light,Helvetica Neue" font-size="100.0" fill="#FEFFFE" transform="matrix(1.00, 0.00, -0.00, -1.00, 462.6, 860.3)">K</text><text xml:space="preserve" font-family="HelveticaNeue-Light,Helvetica Neue" font-size="100.0" fill="#FEFFFE" transform="matrix(1.00, 0.00, -0.00, -1.00, 527.5, 860.3)">.</text><text xml:space="preserve" font-family="HelveticaNeue-Light,Helvetica Neue" font-size="100.0" fill="#FEFFFE" transform="matrix(1.00, 0.00, -0.00, -1.00, 555.2, 860.3)"> </text><text xml:space="preserve" font-family="HelveticaNeue-Light,Helvetica Neue" font-size="100.0" fill="#FEFFFE" transform="matrix(1.00, 0.00, -0.00, -1.00, 583.1, 860.3)">P</text><text xml:space="preserve" font-family="HelveticaNeue-Light,Helvetica Neue" font-size="100.0" fill="#FEFFFE" transform="matrix(1.00, 0.00, -0.00, -1.00, 646.1, 860.3)">a</text><text xml:space="preserve" font-family="HelveticaNeue-Light,Helvetica Neue" font-size="100.0" fill="#FEFFFE" transform="matrix(1.00, 0.00, -0.00, -1.00, 698.0, 860.3)">u</text><text xml:space="preserve" font-family="HelveticaNeue-Light,Helvetica Neue" font-size="100.0" fill="#FEFFFE" transform="matrix(1.00, 0.00, -0.00, -1.00, 751.7, 860.3)">l</text><text xml:space="preserve" font-family="HelveticaNeue-Light,Helvetica Neue" font-size="100.0" fill="#FEFFFE" transform="matrix(1.00, 0.00, -0.00, -1.00, 770.2, 860.3)"> </text><text xml:space="preserve" font-family="Helvetica-Oblique,Helvetica" font-style="italic" font-size="43.0" fill="#FEFFFE" transform="matrix(1.00, 0.00, -0.00, -1.00, 382.1, 794.0)">@</text><text xml:space="preserve" font-family="Helvetica-Oblique,Helvetica" font-style="italic" font-size="43.0" fill="#FEFFFE" transform="matrix(1.00, 0.00, -0.00, -1.00, 425.8, 794.0)">j</text><text xml:space="preserve" font-family="Helvetica-Oblique,Helvetica" font-style="italic" font-size="43.0" fill="#FEFFFE" transform="matrix(1.00, 0.00, -0.00, -1.00, 435.3, 794.0)">o</text><text xml:space="preserve" font-family="Helvetica-Oblique,Helvetica" font-style="italic" font-size="43.0" fill="#FEFFFE" transform="matrix(1.00, 0.00, -0.00, -1.00, 459.3, 794.0)">h</text><text xml:space="preserve" font-family="Helvetica-Oblique,Helvetica" font-style="italic" font-size="43.0" fill="#FEFFFE" transform="matrix(1.00, 0.00, -0.00, -1.00, 483.2, 794.0)">n</text><text xml:space="preserve" font-family="Helvetica-Oblique,Helvetica" font-style="italic" font-size="43.0" fill="#FEFFFE" transform="matrix(1.00, 0.00, -0.00, -1.00, 507.1, 794.0)">k</text><text xml:space="preserve" font-family="Helvetica-Oblique,Helvetica" font-style="italic" font-size="43.0" fill="#FEFFFE" transform="matrix(1.00, 0.00, -0.00, -1.00, 528.6, 794.0)">p</text><text xml:space="preserve" font-family="Helvetica-Oblique,Helvetica" font-style="italic" font-size="43.0" fill="#FEFFFE" transform="matrix(1.00, 0.00, -0.00, -1.00, 552.5, 794.0)">a</text><text xml:space="preserve" font-family="Helvetica-Oblique,Helvetica" font-style="italic" font-size="43.0" fill="#FEFFFE" transform="matrix(1.00, 0.00, -0.00, -1.00, 576.5, 794.0)">u</text><text xml:space="preserve" font-family="Helvetica-Oblique,Helvetica" font-style="italic" font-size="43.0" fill="#FEFFFE" transform="matrix(1.00, 0.00, -0.00, -1.00, 600.4, 794.0)">l</text><g><clipPath id="clip0x6000026ad9e0"><path d="M 424.8 788.7 L 609.9 788.7 L 609.9 792.8 L 424.8 792.8 Z M 424.8 788.7 "></path></clipPath><g clip-path="url(#clip0x6000026ad9e0)"><path d="M 309.3 263.4 L 493.4 263.4 " fill="none" stroke="#FEFFFE" stroke-width="2.12" transform="matrix(1.00, 0.00, 0.00, -1.00, 116.5, 1054.1)"></path></g></g><g><clipPath id="clip0x6000026adc20"><path d="M 168.0 602.0 L 904.0 602.0 L 904.0 98.0 L 168.0 98.0 Z M 167.9 601.7 "></path></clipPath><g clip-path="url(#clip0x6000026adc20)"><image xlink:href="../../FB94899F-9442-45BD-981E-A47B8488E9AF/assets/DFDB134A98ABF6742E70437DE34397DA.png" width="380.00" height="260.00" transform="matrix(1.94, 0.00, -0.00, -1.94, 168.0, 602.0)"></image></g></g><image xlink:href="../../74B0ECFA-81E3-41E9-84C8-B9EF5E762FCE/assets/F1864A24EF57FE966E378E0ADDE6AB7B.png" width="596.00" height="50.00" transform="matrix(1.17, 0.00, -0.00, -1.18, 188.0, 751.0)"></image><image xlink:href="../../FB94899F-9442-45BD-981E-A47B8488E9AF/assets/CDCC229EB1E3D6DCDF2C93DF253B35D2.png" width="2343.00" height="1983.00" transform="matrix(0.29, 0.00, -0.00, -0.29, 196.0, 638.0)"></image></g></svg>