<?xml version="1.0" encoding="UTF-8" standalone="no"?><svg xmlns="http://www.w3.org/2000/svg" xmlns:xlink="http://www.w3.org/1999/xlink" clip-rule="evenodd" stroke-miterlimit="10" viewBox="0 0 1024 768"><desc>SVG generated by Keynote</desc><defs></defs><g transform="matrix(1.00, 0.00, -0.00, -1.00, 0.0, 768.0)"><g><clipPath id="clip0x6000006bfa40"><path d="M 0.0 768.0 L 1024.0 768.0 L 1024.0 0.0 L 0.0 0.0 Z M 0.0 768.0 "></path></clipPath><g clip-path="url(#clip0x6000006bfa40)"><image xlink:href="../../8532EDA3-03AF-4F95-ADCC-1003E38AE155/assets/3B74C7A20D96CA1FC5403CB9FFDFC0BB.jpeg" width="2048.00" height="1536.00" transform="matrix(0.50, 0.00, -0.00, -0.50, 0.0, 768.0)"></image></g></g><path d="M 5.0 32.0 L 363.0 32.0 L 363.0 1.0 L 5.0 1.0 Z M 5.2 32.1 " fill="#FEFFFE"></path><g><clipPath id="clip0x6180004a4200"><path d="M 4.5 0.5 L 363.7 0.5 L 363.7 32.8 L 4.5 32.8 Z M 4.5 0.5 "></path></clipPath><g clip-path="url(#clip0x6180004a4200)"><text xml:space="preserve" font-family="Palatino-Roman,Palatino" font-size="17.0" fill="#535F55" transform="matrix(1.00, 0.00, -0.00, -1.00, 9.7, 9.9)">R</text><text xml:space="preserve" font-family="Palatino-Roman,Palatino" font-size="17.0" fill="#535F55" transform="matrix(1.00, 0.00, -0.00, -1.00, 21.0, 9.9)">e</text><text xml:space="preserve" font-family="Palatino-Roman,Palatino" font-size="17.0" fill="#535F55" transform="matrix(1.00, 0.00, -0.00, -1.00, 29.2, 9.9)">a</text><text xml:space="preserve" font-family="Palatino-Roman,Palatino" font-size="17.0" fill="#535F55" transform="matrix(1.00, 0.00, -0.00, -1.00, 37.7, 9.9)">c</text><text xml:space="preserve" font-family="Palatino-Roman,Palatino" font-size="17.0" fill="#535F55" transform="matrix(1.00, 0.00, -0.00, -1.00, 45.2, 9.9)">t</text><text xml:space="preserve" font-family="Palatino-Roman,Palatino" font-size="17.0" fill="#535F55" transform="matrix(1.00, 0.00, -0.00, -1.00, 50.8, 9.9)"> </text><text xml:space="preserve" font-family="Palatino-Roman,Palatino" font-size="17.0" fill="#535F55" transform="matrix(1.00, 0.00, -0.00, -1.00, 55.0, 9.9)">i</text><text xml:space="preserve" font-family="Palatino-Roman,Palatino" font-size="17.0" fill="#535F55" transform="matrix(1.00, 0.00, -0.00, -1.00, 60.0, 9.9)">s</text><text xml:space="preserve" font-family="Palatino-Roman,Palatino" font-size="17.0" fill="#535F55" transform="matrix(1.00, 0.00, -0.00, -1.00, 67.2, 9.9)"> </text><text xml:space="preserve" font-family="Palatino-Roman,Palatino" font-size="17.0" fill="#535F55" transform="matrix(1.00, 0.00, -0.00, -1.00, 71.4, 9.9)">“</text><text xml:space="preserve" font-family="Palatino-Roman,Palatino" font-size="17.0" fill="#535F55" transform="matrix(1.00, 0.00, -0.00, -1.00, 79.9, 9.9)">f</text><text xml:space="preserve" font-family="Palatino-Roman,Palatino" font-size="17.0" fill="#535F55" transform="matrix(1.00, 0.00, -0.00, -1.00, 85.6, 9.9)">u</text><text xml:space="preserve" font-family="Palatino-Roman,Palatino" font-size="17.0" fill="#535F55" transform="matrix(1.00, 0.00, -0.00, -1.00, 95.8, 9.9)">n</text><text xml:space="preserve" font-family="Palatino-Roman,Palatino" font-size="17.0" fill="#535F55" transform="matrix(1.00, 0.00, -0.00, -1.00, 105.7, 9.9)">c</text><text xml:space="preserve" font-family="Palatino-Roman,Palatino" font-size="17.0" fill="#535F55" transform="matrix(1.00, 0.00, -0.00, -1.00, 113.3, 9.9)">t</text><text xml:space="preserve" font-family="Palatino-Roman,Palatino" font-size="17.0" fill="#535F55" transform="matrix(1.00, 0.00, -0.00, -1.00, 118.8, 9.9)">i</text><text xml:space="preserve" font-family="Palatino-Roman,Palatino" font-size="17.0" fill="#535F55" transform="matrix(1.00, 0.00, -0.00, -1.00, 123.8, 9.9)">o</text><text xml:space="preserve" font-family="Palatino-Roman,Palatino" font-size="17.0" fill="#535F55" transform="matrix(1.00, 0.00, -0.00, -1.00, 133.0, 9.9)">n</text><text xml:space="preserve" font-family="Palatino-Roman,Palatino" font-size="17.0" fill="#535F55" transform="matrix(1.00, 0.00, -0.00, -1.00, 142.9, 9.9)">a</text><text xml:space="preserve" font-family="Palatino-Roman,Palatino" font-size="17.0" fill="#535F55" transform="matrix(1.00, 0.00, -0.00, -1.00, 151.4, 9.9)">l</text><text xml:space="preserve" font-family="Palatino-Roman,Palatino" font-size="17.0" fill="#535F55" transform="matrix(1.00, 0.00, -0.00, -1.00, 156.4, 9.9)">”</text><text xml:space="preserve" font-family="Palatino-Roman,Palatino" font-size="17.0" fill="#535F55" transform="matrix(1.00, 0.00, -0.00, -1.00, 164.9, 9.9)"> </text><text xml:space="preserve" font-family="Palatino-Roman,Palatino" font-size="17.0" fill="#535F55" transform="matrix(1.00, 0.00, -0.00, -1.00, 169.1, 9.9)">|</text><text xml:space="preserve" font-family="Palatino-Roman,Palatino" font-size="17.0" fill="#535F55" transform="matrix(1.00, 0.00, -0.00, -1.00, 179.4, 9.9)"> </text><text xml:space="preserve" font-family="Palatino-Roman,Palatino" font-size="17.0" fill="#535F55" transform="matrix(1.00, 0.00, -0.00, -1.00, 183.7, 9.9)">@</text><text xml:space="preserve" font-family="Palatino-Roman,Palatino" font-size="17.0" fill="#535F55" transform="matrix(1.00, 0.00, -0.00, -1.00, 196.4, 9.9)">j</text><text xml:space="preserve" font-family="Palatino-Roman,Palatino" font-size="17.0" fill="#535F55" transform="matrix(1.00, 0.00, -0.00, -1.00, 200.4, 9.9)">o</text><text xml:space="preserve" font-family="Palatino-Roman,Palatino" font-size="17.0" fill="#535F55" transform="matrix(1.00, 0.00, -0.00, -1.00, 209.6, 9.9)">h</text><text xml:space="preserve" font-family="Palatino-Roman,Palatino" font-size="17.0" fill="#535F55" transform="matrix(1.00, 0.00, -0.00, -1.00, 219.5, 9.9)">n</text><text xml:space="preserve" font-family="Palatino-Roman,Palatino" font-size="17.0" fill="#535F55" transform="matrix(1.00, 0.00, -0.00, -1.00, 229.4, 9.9)">k</text><text xml:space="preserve" font-family="Palatino-Roman,Palatino" font-size="17.0" fill="#535F55" transform="matrix(1.00, 0.00, -0.00, -1.00, 238.9, 9.9)">p</text><text xml:space="preserve" font-family="Palatino-Roman,Palatino" font-size="17.0" fill="#535F55" transform="matrix(1.00, 0.00, -0.00, -1.00, 249.1, 9.9)">a</text><text xml:space="preserve" font-family="Palatino-Roman,Palatino" font-size="17.0" fill="#535F55" transform="matrix(1.00, 0.00, -0.00, -1.00, 257.6, 9.9)">u</text><text xml:space="preserve" font-family="Palatino-Roman,Palatino" font-size="17.0" fill="#535F55" transform="matrix(1.00, 0.00, -0.00, -1.00, 267.9, 9.9)">l</text><text xml:space="preserve" font-family="Palatino-Roman,Palatino" font-size="17.0" fill="#535F55" transform="matrix(1.00, 0.00, -0.00, -1.00, 272.8, 9.9)"> </text><text xml:space="preserve" font-family="Palatino-Roman,Palatino" font-size="17.0" fill="#535F55" transform="matrix(1.00, 0.00, -0.00, -1.00, 277.1, 9.9)">|</text><text xml:space="preserve" font-family="Palatino-Roman,Palatino" font-size="17.0" fill="#535F55" transform="matrix(1.00, 0.00, -0.00, -1.00, 287.4, 9.9)"> </text><text xml:space="preserve" font-family="Palatino-Roman,Palatino" font-size="17.0" fill="#535F55" transform="matrix(1.00, 0.00, -0.00, -1.00, 291.6, 9.9)">N</text><text xml:space="preserve" font-family="Palatino-Roman,Palatino" font-size="17.0" fill="#535F55" transform="matrix(1.00, 0.00, -0.00, -1.00, 305.7, 9.9)">a</text><text xml:space="preserve" font-family="Palatino-Roman,Palatino" font-size="17.0" fill="#535F55" transform="matrix(1.00, 0.00, -0.00, -1.00, 314.2, 9.9)">t</text><text xml:space="preserve" font-family="Palatino-Roman,Palatino" font-size="17.0" fill="#535F55" transform="matrix(1.00, 0.00, -0.00, -1.00, 319.8, 9.9)">i</text><text xml:space="preserve" font-family="Palatino-Roman,Palatino" font-size="17.0" fill="#535F55" transform="matrix(1.00, 0.00, -0.00, -1.00, 324.7, 9.9)">o</text><text xml:space="preserve" font-family="Palatino-Roman,Palatino" font-size="17.0" fill="#535F55" transform="matrix(1.00, 0.00, -0.00, -1.00, 334.0, 9.9)">n</text><text xml:space="preserve" font-family="Palatino-Roman,Palatino" font-size="17.0" fill="#535F55" transform="matrix(1.00, 0.00, -0.00, -1.00, 343.9, 9.9)">J</text><text xml:space="preserve" font-family="Palatino-Roman,Palatino" font-size="17.0" fill="#535F55" transform="matrix(1.00, 0.00, -0.00, -1.00, 349.6, 9.9)">S</text></g></g><text xml:space="preserve" font-family="Palatino-Roman,Palatino" font-size="70.0" fill="#535F55" transform="matrix(1.00, 0.00, -0.00, -1.00, 186.3, 403.4)">t</text><text xml:space="preserve" font-family="Palatino-Roman,Palatino" font-size="70.0" fill="#535F55" transform="matrix(1.00, 0.00, -0.00, -1.00, 209.1, 403.4)">h</text><text xml:space="preserve" font-family="Palatino-Roman,Palatino" font-size="70.0" fill="#535F55" transform="matrix(1.00, 0.00, -0.00, -1.00, 249.8, 403.4)">e</text><text xml:space="preserve" font-family="Palatino-Roman,Palatino" font-size="70.0" fill="#535F55" transform="matrix(1.00, 0.00, -0.00, -1.00, 283.4, 403.4)"> </text><text xml:space="preserve" font-family="Palatino-Roman,Palatino" font-size="70.0" fill="#535F55" transform="matrix(1.00, 0.00, -0.00, -1.00, 300.9, 403.4)">v</text><text xml:space="preserve" font-family="Palatino-Roman,Palatino" font-size="70.0" fill="#535F55" transform="matrix(1.00, 0.00, -0.00, -1.00, 340.4, 403.4)">i</text><text xml:space="preserve" font-family="Palatino-Roman,Palatino" font-size="70.0" fill="#535F55" transform="matrix(1.00, 0.00, -0.00, -1.00, 360.8, 403.4)">r</text><text xml:space="preserve" font-family="Palatino-Roman,Palatino" font-size="70.0" fill="#535F55" transform="matrix(1.00, 0.00, -0.00, -1.00, 388.4, 403.4)">t</text><text xml:space="preserve" font-family="Palatino-Roman,Palatino" font-size="70.0" fill="#535F55" transform="matrix(1.00, 0.00, -0.00, -1.00, 411.3, 403.4)">u</text><text xml:space="preserve" font-family="Palatino-Roman,Palatino" font-size="70.0" fill="#535F55" transform="matrix(1.00, 0.00, -0.00, -1.00, 453.5, 403.4)">a</text><text xml:space="preserve" font-family="Palatino-Roman,Palatino" font-size="70.0" fill="#535F55" transform="matrix(1.00, 0.00, -0.00, -1.00, 488.5, 403.4)">l</text><text xml:space="preserve" font-family="Palatino-Roman,Palatino" font-size="70.0" fill="#535F55" transform="matrix(1.00, 0.00, -0.00, -1.00, 508.9, 403.4)"> </text><text xml:space="preserve" font-family="Palatino-Roman,Palatino" font-size="70.0" fill="#535F55" transform="matrix(1.00, 0.00, -0.00, -1.00, 526.4, 403.4)">D</text><text xml:space="preserve" font-family="Palatino-Roman,Palatino" font-size="70.0" fill="#535F55" transform="matrix(1.00, 0.00, -0.00, -1.00, 580.5, 403.4)">O</text><text xml:space="preserve" font-family="Palatino-Roman,Palatino" font-size="70.0" fill="#535F55" transform="matrix(1.00, 0.00, -0.00, -1.00, 635.6, 403.4)">M</text><text xml:space="preserve" font-family="Palatino-Roman,Palatino" font-size="70.0" fill="#535F55" transform="matrix(1.00, 0.00, -0.00, -1.00, 701.8, 403.4)"> </text><text xml:space="preserve" font-family="Palatino-Roman,Palatino" font-size="70.0" fill="#535F55" transform="matrix(1.00, 0.00, -0.00, -1.00, 719.3, 403.4)">a</text><text xml:space="preserve" font-family="Palatino-Roman,Palatino" font-size="70.0" fill="#535F55" transform="matrix(1.00, 0.00, -0.00, -1.00, 754.3, 403.4)">n</text><text xml:space="preserve" font-family="Palatino-Roman,Palatino" font-size="70.0" fill="#535F55" transform="matrix(1.00, 0.00, -0.00, -1.00, 795.0, 403.4)">d</text><text xml:space="preserve" font-family="Palatino-Roman,Palatino" font-size="70.0" fill="#535F55" transform="matrix(1.00, 0.00, -0.00, -1.00, 837.7, 403.4)"> </text><text xml:space="preserve" font-family="Palatino-Roman,Palatino" font-size="70.0" fill="#535F55" transform="matrix(1.00, 0.00, -0.00, -1.00, 129.9, 311.4)">f</text><text xml:space="preserve" font-family="Palatino-Roman,Palatino" font-size="70.0" fill="#535F55" transform="matrix(1.00, 0.00, -0.00, -1.00, 153.2, 311.4)">u</text><text xml:space="preserve" font-family="Palatino-Roman,Palatino" font-size="70.0" fill="#535F55" transform="matrix(1.00, 0.00, -0.00, -1.00, 195.4, 311.4)">n</text><text xml:space="preserve" font-family="Palatino-Roman,Palatino" font-size="70.0" fill="#535F55" transform="matrix(1.00, 0.00, -0.00, -1.00, 236.1, 311.4)">c</text><text xml:space="preserve" font-family="Palatino-Roman,Palatino" font-size="70.0" fill="#535F55" transform="matrix(1.00, 0.00, -0.00, -1.00, 267.2, 311.4)">t</text><text xml:space="preserve" font-family="Palatino-Roman,Palatino" font-size="70.0" fill="#535F55" transform="matrix(1.00, 0.00, -0.00, -1.00, 290.0, 311.4)">i</text><text xml:space="preserve" font-family="Palatino-Roman,Palatino" font-size="70.0" fill="#535F55" transform="matrix(1.00, 0.00, -0.00, -1.00, 310.4, 311.4)">o</text><text xml:space="preserve" font-family="Palatino-Roman,Palatino" font-size="70.0" fill="#535F55" transform="matrix(1.00, 0.00, -0.00, -1.00, 348.6, 311.4)">n</text><text xml:space="preserve" font-family="Palatino-Roman,Palatino" font-size="70.0" fill="#535F55" transform="matrix(1.00, 0.00, -0.00, -1.00, 389.3, 311.4)">a</text><text xml:space="preserve" font-family="Palatino-Roman,Palatino" font-size="70.0" fill="#535F55" transform="matrix(1.00, 0.00, -0.00, -1.00, 424.3, 311.4)">l</text><text xml:space="preserve" font-family="Palatino-Roman,Palatino" font-size="70.0" fill="#535F55" transform="matrix(1.00, 0.00, -0.00, -1.00, 444.7, 311.4)"> </text><text xml:space="preserve" font-family="Palatino-Roman,Palatino" font-size="70.0" fill="#535F55" transform="matrix(1.00, 0.00, -0.00, -1.00, 462.2, 311.4)">p</text><text xml:space="preserve" font-family="Palatino-Roman,Palatino" font-size="70.0" fill="#535F55" transform="matrix(1.00, 0.00, -0.00, -1.00, 504.3, 311.4)">r</text><text xml:space="preserve" font-family="Palatino-Roman,Palatino" font-size="70.0" fill="#535F55" transform="matrix(1.00, 0.00, -0.00, -1.00, 530.7, 311.4)">o</text><text xml:space="preserve" font-family="Palatino-Roman,Palatino" font-size="70.0" fill="#535F55" transform="matrix(1.00, 0.00, -0.00, -1.00, 568.9, 311.4)">g</text><text xml:space="preserve" font-family="Palatino-Roman,Palatino" font-size="70.0" fill="#535F55" transform="matrix(1.00, 0.00, -0.00, -1.00, 607.9, 311.4)">r</text><text xml:space="preserve" font-family="Palatino-Roman,Palatino" font-size="70.0" fill="#535F55" transform="matrix(1.00, 0.00, -0.00, -1.00, 635.5, 311.4)">a</text><text xml:space="preserve" font-family="Palatino-Roman,Palatino" font-size="70.0" fill="#535F55" transform="matrix(1.00, 0.00, -0.00, -1.00, 670.5, 311.4)">m</text><text xml:space="preserve" font-family="Palatino-Roman,Palatino" font-size="70.0" fill="#535F55" transform="matrix(1.00, 0.00, -0.00, -1.00, 732.3, 311.4)">m</text><text xml:space="preserve" font-family="Palatino-Roman,Palatino" font-size="70.0" fill="#535F55" transform="matrix(1.00, 0.00, -0.00, -1.00, 794.1, 311.4)">i</text><text xml:space="preserve" font-family="Palatino-Roman,Palatino" font-size="70.0" fill="#535F55" transform="matrix(1.00, 0.00, -0.00, -1.00, 814.5, 311.4)">n</text><text xml:space="preserve" font-family="Palatino-Roman,Palatino" font-size="70.0" fill="#535F55" transform="matrix(1.00, 0.00, -0.00, -1.00, 855.2, 311.4)">g</text></g></svg>