<?xml version="1.0" encoding="UTF-8" standalone="no"?><svg xmlns="http://www.w3.org/2000/svg" xmlns:xlink="http://www.w3.org/1999/xlink" clip-rule="evenodd" stroke-miterlimit="10" viewBox="0 0 739 104"><desc>SVG generated by Keynote</desc><defs></defs><g transform="matrix(1.00, 0.00, -0.00, -1.00, 0.0, 104.0)"><image xlink:href="6882E02B1ADF2E7EA1F4EEE1BEF7CADC.png" width="17.00" height="18.00" transform="matrix(1.00, 0.00, -0.00, -1.00, 4.0, 92.0)"></image><g><clipPath id="clip0x6000024bcda0"><path d="M 4.0 74.3 L 20.9 74.3 L 20.9 91.2 L 4.0 91.2 Z M 4.0 74.3 "></path></clipPath><g clip-path="url(#clip0x6000024bcda0)"><g><g><clipPath id="clip0x6000024bd100"><path d="M 4.0 91.2 L 20.9 91.2 L 20.9 74.3 L 4.0 74.3 Z M 4.0 91.2 "></path></clipPath><g clip-path="url(#clip0x6000024bd100)"><g><clipPath id="clip0x6000024bd280"><path d="M 0.0 67.0 L 25.0 67.0 L 25.0 99.0 L 0.0 99.0 Z M 0.0 67.0 "></path></clipPath><g clip-path="url(#clip0x6000024bd280)"><path d="M 20.9 87.8 C 20.9 88.6 20.6 89.3 19.8 90.1 C 19.1 90.9 18.4 91.2 17.5 91.2 C 17.2 91.2 16.6 91.0 15.7 90.7 C 14.4 90.0 13.3 89.7 12.4 89.7 C 11.4 89.7 10.3 90.0 9.1 90.7 C 8.3 91.0 7.7 91.2 7.3 91.2 C 6.5 91.2 5.8 90.9 5.1 90.1 C 4.4 89.4 4.0 88.6 4.0 87.8 C 4.0 87.5 4.2 86.8 4.6 86.0 C 5.2 84.7 5.4 83.7 5.4 82.8 C 5.4 81.8 5.2 80.7 4.6 79.4 C 4.2 78.6 4.0 78.1 4.0 77.7 C 4.0 76.9 4.4 76.1 5.1 75.4 C 5.8 74.6 6.5 74.3 7.3 74.3 C 7.7 74.3 8.3 74.5 9.1 74.9 C 10.3 75.5 11.4 75.8 12.4 75.8 C 13.3 75.8 14.4 75.5 15.7 74.9 C 16.6 74.5 17.2 74.3 17.5 74.3 C 18.4 74.3 19.1 74.6 19.8 75.4 C 20.6 76.1 20.9 76.9 20.9 77.7 C 20.9 78.1 20.7 78.6 20.3 79.4 C 19.7 80.7 19.4 81.8 19.4 82.8 C 19.4 83.7 19.7 84.7 20.3 86.0 C 20.7 86.8 20.9 87.5 20.9 87.8 " fill="#FFFFFF"></path></g></g></g></g></g></g></g><image xlink:href="749F9661F83FD471676F37A12A3418BB.png" width="687.00" height="54.00" transform="matrix(1.00, 0.00, -0.00, -1.00, 49.0, 103.0)"></image><text xml:space="preserve" font-family="HelveticaNeue-Light,Helvetica Neue" font-size="48.0" fill="#FEFFFE" transform="matrix(1.00, 0.00, -0.00, -1.00, 52.0, 66.7)">C</text><text xml:space="preserve" font-family="HelveticaNeue-Light,Helvetica Neue" font-size="48.0" fill="#FEFFFE" transform="matrix(1.00, 0.00, -0.00, -1.00, 85.8, 66.7)">o</text><text xml:space="preserve" font-family="HelveticaNeue-Light,Helvetica Neue" font-size="48.0" fill="#FEFFFE" transform="matrix(1.00, 0.00, -0.00, -1.00, 112.5, 66.7)">m</text><text xml:space="preserve" font-family="HelveticaNeue-Light,Helvetica Neue" font-size="48.0" fill="#FEFFFE" transform="matrix(1.00, 0.00, -0.00, -1.00, 152.5, 66.7)">p</text><text xml:space="preserve" font-family="HelveticaNeue-Light,Helvetica Neue" font-size="48.0" fill="#FEFFFE" transform="matrix(1.00, 0.00, -0.00, -1.00, 180.0, 66.7)">i</text><text xml:space="preserve" font-family="HelveticaNeue-Light,Helvetica Neue" font-size="48.0" fill="#FEFFFE" transform="matrix(1.00, 0.00, -0.00, -1.00, 188.9, 66.7)">l</text><text xml:space="preserve" font-family="HelveticaNeue-Light,Helvetica Neue" font-size="48.0" fill="#FEFFFE" transform="matrix(1.00, 0.00, -0.00, -1.00, 197.8, 66.7)">e</text><text xml:space="preserve" font-family="HelveticaNeue-Light,Helvetica Neue" font-size="48.0" fill="#FEFFFE" transform="matrix(1.00, 0.00, -0.00, -1.00, 222.7, 66.7)">d</text><text xml:space="preserve" font-family="HelveticaNeue-Light,Helvetica Neue" font-size="48.0" fill="#FEFFFE" transform="matrix(1.00, 0.00, -0.00, -1.00, 250.2, 66.7)"> </text><text xml:space="preserve" font-family="HelveticaNeue-Light,Helvetica Neue" font-size="48.0" fill="#FEFFFE" transform="matrix(1.00, 0.00, -0.00, -1.00, 263.6, 66.7)">f</text><text xml:space="preserve" font-family="HelveticaNeue-Light,Helvetica Neue" font-size="48.0" fill="#FEFFFE" transform="matrix(1.00, 0.00, -0.00, -1.00, 275.2, 66.7)">f</text><text xml:space="preserve" font-family="HelveticaNeue-Light,Helvetica Neue" font-size="48.0" fill="#FEFFFE" transform="matrix(1.00, 0.00, -0.00, -1.00, 287.6, 66.7)">m</text><text xml:space="preserve" font-family="HelveticaNeue-Light,Helvetica Neue" font-size="48.0" fill="#FEFFFE" transform="matrix(1.00, 0.00, -0.00, -1.00, 327.6, 66.7)">p</text><text xml:space="preserve" font-family="HelveticaNeue-Light,Helvetica Neue" font-size="48.0" fill="#FEFFFE" transform="matrix(1.00, 0.00, -0.00, -1.00, 355.1, 66.7)">e</text><text xml:space="preserve" font-family="HelveticaNeue-Light,Helvetica Neue" font-size="48.0" fill="#FEFFFE" transform="matrix(1.00, 0.00, -0.00, -1.00, 380.0, 66.7)">g</text><text xml:space="preserve" font-family="HelveticaNeue-Light,Helvetica Neue" font-size="48.0" fill="#FEFFFE" transform="matrix(1.00, 0.00, -0.00, -1.00, 406.7, 66.7)"> </text><text xml:space="preserve" font-family="HelveticaNeue-Light,Helvetica Neue" font-size="48.0" fill="#FEFFFE" transform="matrix(1.00, 0.00, -0.00, -1.00, 420.1, 66.7)">s</text><text xml:space="preserve" font-family="HelveticaNeue-Light,Helvetica Neue" font-size="48.0" fill="#FEFFFE" transform="matrix(1.00, 0.00, -0.00, -1.00, 443.2, 66.7)">u</text><text xml:space="preserve" font-family="HelveticaNeue-Light,Helvetica Neue" font-size="48.0" fill="#FEFFFE" transform="matrix(1.00, 0.00, -0.00, -1.00, 468.9, 66.7)">c</text><text xml:space="preserve" font-family="HelveticaNeue-Light,Helvetica Neue" font-size="48.0" fill="#FEFFFE" transform="matrix(1.00, 0.00, -0.00, -1.00, 493.8, 66.7)">c</text><text xml:space="preserve" font-family="HelveticaNeue-Light,Helvetica Neue" font-size="48.0" fill="#FEFFFE" transform="matrix(1.00, 0.00, -0.00, -1.00, 518.8, 66.7)">e</text><text xml:space="preserve" font-family="HelveticaNeue-Light,Helvetica Neue" font-size="48.0" fill="#FEFFFE" transform="matrix(1.00, 0.00, -0.00, -1.00, 543.7, 66.7)">s</text><text xml:space="preserve" font-family="HelveticaNeue-Light,Helvetica Neue" font-size="48.0" fill="#FEFFFE" transform="matrix(1.00, 0.00, -0.00, -1.00, 566.8, 66.7)">s</text><text xml:space="preserve" font-family="HelveticaNeue-Light,Helvetica Neue" font-size="48.0" fill="#FEFFFE" transform="matrix(1.00, 0.00, -0.00, -1.00, 589.8, 66.7)">f</text><text xml:space="preserve" font-family="HelveticaNeue-Light,Helvetica Neue" font-size="48.0" fill="#FEFFFE" transform="matrix(1.00, 0.00, -0.00, -1.00, 602.3, 66.7)">u</text><text xml:space="preserve" font-family="HelveticaNeue-Light,Helvetica Neue" font-size="48.0" fill="#FEFFFE" transform="matrix(1.00, 0.00, -0.00, -1.00, 628.0, 66.7)">l</text><text xml:space="preserve" font-family="HelveticaNeue-Light,Helvetica Neue" font-size="48.0" fill="#FEFFFE" transform="matrix(1.00, 0.00, -0.00, -1.00, 636.9, 66.7)">l</text><text xml:space="preserve" font-family="HelveticaNeue-Light,Helvetica Neue" font-size="48.0" fill="#FEFFFE" transform="matrix(1.00, 0.00, -0.00, -1.00, 645.8, 66.7)">y</text><text xml:space="preserve" font-family="HelveticaNeue-Light,Helvetica Neue" font-size="48.0" fill="#FEFFFE" transform="matrix(1.00, 0.00, -0.00, -1.00, 668.0, 66.7)"> </text><text xml:space="preserve" font-family="HelveticaNeue-Light,Helvetica Neue" font-size="48.0" fill="#FEFFFE" transform="matrix(1.00, 0.00, -0.00, -1.00, 681.4, 66.7)">o</text><text xml:space="preserve" font-family="HelveticaNeue-Light,Helvetica Neue" font-size="48.0" fill="#FEFFFE" transform="matrix(1.00, 0.00, -0.00, -1.00, 708.1, 66.7)">n</text><text xml:space="preserve" font-family="HelveticaNeue-Light,Helvetica Neue" font-size="48.0" fill="#FEFFFE" transform="matrix(1.00, 0.00, -0.00, -1.00, 733.8, 66.7)"> </text><image xlink:href="A8B8F5ACDEB02955989BBE3A0E9BF4DD.png" width="596.00" height="45.00" transform="matrix(1.00, 0.00, -0.00, -1.00, 50.0, 46.0)"></image><text xml:space="preserve" font-family="HelveticaNeue-Light,Helvetica Neue" font-size="48.0" fill="#FEFFFE" transform="matrix(1.00, 0.00, -0.00, -1.00, 52.0, 9.7)">b</text><text xml:space="preserve" font-family="HelveticaNeue-Light,Helvetica Neue" font-size="48.0" fill="#FEFFFE" transform="matrix(1.00, 0.00, -0.00, -1.00, 79.6, 9.7)">o</text><text xml:space="preserve" font-family="HelveticaNeue-Light,Helvetica Neue" font-size="48.0" fill="#FEFFFE" transform="matrix(1.00, 0.00, -0.00, -1.00, 106.2, 9.7)">t</text><text xml:space="preserve" font-family="HelveticaNeue-Light,Helvetica Neue" font-size="48.0" fill="#FEFFFE" transform="matrix(1.00, 0.00, -0.00, -1.00, 120.4, 9.7)">h</text><text xml:space="preserve" font-family="HelveticaNeue-Light,Helvetica Neue" font-size="48.0" fill="#FEFFFE" transform="matrix(1.00, 0.00, -0.00, -1.00, 146.2, 9.7)"> </text><text xml:space="preserve" font-family="HelveticaNeue-Light,Helvetica Neue" font-size="48.0" fill="#FEFFFE" transform="matrix(1.00, 0.00, -0.00, -1.00, 159.6, 9.7)">O</text><text xml:space="preserve" font-family="HelveticaNeue-Light,Helvetica Neue" font-size="48.0" fill="#FEFFFE" transform="matrix(1.00, 0.00, -0.00, -1.00, 195.1, 9.7)">S</text><text xml:space="preserve" font-family="HelveticaNeue-Light,Helvetica Neue" font-size="48.0" fill="#FEFFFE" transform="matrix(1.00, 0.00, -0.00, -1.00, 225.4, 9.7)">X</text><text xml:space="preserve" font-family="HelveticaNeue-Light,Helvetica Neue" font-size="48.0" fill="#FEFFFE" transform="matrix(1.00, 0.00, -0.00, -1.00, 252.9, 9.7)"> </text><text xml:space="preserve" font-family="HelveticaNeue-Light,Helvetica Neue" font-size="48.0" fill="#FEFFFE" transform="matrix(1.00, 0.00, -0.00, -1.00, 266.3, 9.7)">a</text><text xml:space="preserve" font-family="HelveticaNeue-Light,Helvetica Neue" font-size="48.0" fill="#FEFFFE" transform="matrix(1.00, 0.00, -0.00, -1.00, 291.2, 9.7)">n</text><text xml:space="preserve" font-family="HelveticaNeue-Light,Helvetica Neue" font-size="48.0" fill="#FEFFFE" transform="matrix(1.00, 0.00, -0.00, -1.00, 317.0, 9.7)">d</text><text xml:space="preserve" font-family="HelveticaNeue-Light,Helvetica Neue" font-size="48.0" fill="#FEFFFE" transform="matrix(1.00, 0.00, -0.00, -1.00, 344.5, 9.7)"> </text><text xml:space="preserve" font-family="HelveticaNeue-Light,Helvetica Neue" font-size="48.0" fill="#FEFFFE" transform="matrix(1.00, 0.00, -0.00, -1.00, 357.9, 9.7)">U</text><text xml:space="preserve" font-family="HelveticaNeue-Light,Helvetica Neue" font-size="48.0" fill="#FEFFFE" transform="matrix(1.00, 0.00, -0.00, -1.00, 390.7, 9.7)">b</text><text xml:space="preserve" font-family="HelveticaNeue-Light,Helvetica Neue" font-size="48.0" fill="#FEFFFE" transform="matrix(1.00, 0.00, -0.00, -1.00, 418.3, 9.7)">u</text><text xml:space="preserve" font-family="HelveticaNeue-Light,Helvetica Neue" font-size="48.0" fill="#FEFFFE" transform="matrix(1.00, 0.00, -0.00, -1.00, 444.1, 9.7)">n</text><text xml:space="preserve" font-family="HelveticaNeue-Light,Helvetica Neue" font-size="48.0" fill="#FEFFFE" transform="matrix(1.00, 0.00, -0.00, -1.00, 469.8, 9.7)">t</text><text xml:space="preserve" font-family="HelveticaNeue-Light,Helvetica Neue" font-size="48.0" fill="#FEFFFE" transform="matrix(1.00, 0.00, -0.00, -1.00, 484.0, 9.7)">u</text><text xml:space="preserve" font-family="HelveticaNeue-Light,Helvetica Neue" font-size="48.0" fill="#FEFFFE" transform="matrix(1.00, 0.00, -0.00, -1.00, 509.8, 9.7)"> </text><text xml:space="preserve" font-family="HelveticaNeue-Light,Helvetica Neue" font-size="48.0" fill="#FEFFFE" transform="matrix(1.00, 0.00, -0.00, -1.00, 523.2, 9.7)">1</text><text xml:space="preserve" font-family="HelveticaNeue-Light,Helvetica Neue" font-size="48.0" fill="#FEFFFE" transform="matrix(1.00, 0.00, -0.00, -1.00, 549.9, 9.7)">4</text><text xml:space="preserve" font-family="HelveticaNeue-Light,Helvetica Neue" font-size="48.0" fill="#FEFFFE" transform="matrix(1.00, 0.00, -0.00, -1.00, 576.5, 9.7)">.</text><text xml:space="preserve" font-family="HelveticaNeue-Light,Helvetica Neue" font-size="48.0" fill="#FEFFFE" transform="matrix(1.00, 0.00, -0.00, -1.00, 589.9, 9.7)">0</text><text xml:space="preserve" font-family="HelveticaNeue-Light,Helvetica Neue" font-size="48.0" fill="#FEFFFE" transform="matrix(1.00, 0.00, -0.00, -1.00, 616.6, 9.7)">4</text></g></svg>