<?xml version="1.0" encoding="UTF-8" standalone="no"?><svg xmlns="http://www.w3.org/2000/svg" xmlns:xlink="http://www.w3.org/1999/xlink" clip-rule="evenodd" stroke-miterlimit="4.00" viewBox="0 0 1024 768"><desc>SVG generated by Keynote</desc><defs></defs><g transform="matrix(1.00, 0.00, -0.00, -1.00, 0.0, 768.0)"><g><clipPath id="clip-0"><path d="M 0.0 768.0 L 1024.0 768.0 L 1024.0 0.0 L 0.0 0.0 Z M 0.0 768.0 "></path></clipPath><g clip-path="url(#clip-0)"><image xlink:href="75640688B43322D8ECDD2BA9341C9261.jpeg" width="1024.00" height="768.00" transform="matrix(1.00, 0.00, -0.00, -1.00, 0.0, 768.0)"></image></g></g><path d="M 0.0 0.0 L 980.0 0.0 L 980.0 726.0 L 0.0 726.0 Z M 0.0 0.0 " fill="none" stroke="#83817C" stroke-width="2.00" transform="matrix(1.00, 0.00, 0.00, -1.00, 22.0, 746.0)"></path><text xml:space="preserve" font-family="HelveticaNeue-CondensedBold" font-weight="bold" font-size="72.0" fill="#DEDEDE" transform="matrix(1.00, 0.00, -0.00, -1.00, 116.0, 168.0)">A</text><text xml:space="preserve" font-family="HelveticaNeue-CondensedBold" font-weight="bold" font-size="72.0" fill="#DEDEDE" transform="matrix(1.00, 0.00, -0.00, -1.00, 156.0, 168.0)">N</text><text xml:space="preserve" font-family="HelveticaNeue-CondensedBold" font-weight="bold" font-size="72.0" fill="#DEDEDE" transform="matrix(1.00, 0.00, -0.00, -1.00, 197.4, 168.0)">G</text><text xml:space="preserve" font-family="HelveticaNeue-CondensedBold" font-weight="bold" font-size="72.0" fill="#DEDEDE" transform="matrix(1.00, 0.00, -0.00, -1.00, 237.4, 168.0)">U</text><text xml:space="preserve" font-family="HelveticaNeue-CondensedBold" font-weight="bold" font-size="72.0" fill="#DEDEDE" transform="matrix(1.00, 0.00, -0.00, -1.00, 276.1, 168.0)">L</text><text xml:space="preserve" font-family="HelveticaNeue-CondensedBold" font-weight="bold" font-size="72.0" fill="#DEDEDE" transform="matrix(1.00, 0.00, -0.00, -1.00, 309.5, 168.0)">A</text><text xml:space="preserve" font-family="HelveticaNeue-CondensedBold" font-weight="bold" font-size="72.0" fill="#DEDEDE" transform="matrix(1.00, 0.00, -0.00, -1.00, 349.5, 168.0)">R</text><text xml:space="preserve" font-family="HelveticaNeue-CondensedBold" font-weight="bold" font-size="72.0" fill="#DEDEDE" transform="matrix(1.00, 0.00, -0.00, -1.00, 389.5, 168.0)"> </text><text xml:space="preserve" font-family="HelveticaNeue-CondensedBold" font-weight="bold" font-size="72.0" fill="#DEDEDE" transform="matrix(1.00, 0.00, -0.00, -1.00, 406.8, 168.0)">C</text><text xml:space="preserve" font-family="HelveticaNeue-CondensedBold" font-weight="bold" font-size="72.0" fill="#DEDEDE" transform="matrix(1.00, 0.00, -0.00, -1.00, 445.5, 168.0)">L</text><text xml:space="preserve" font-family="HelveticaNeue-CondensedBold" font-weight="bold" font-size="72.0" fill="#DEDEDE" transform="matrix(1.00, 0.00, -0.00, -1.00, 478.8, 168.0)">I</text><text xml:space="preserve" font-family="HelveticaNeue-CondensedBold" font-weight="bold" font-size="36.0" fill="#558AAA" transform="matrix(1.00, 0.00, -0.00, -1.00, 116.0, 110.0)">b</text><text xml:space="preserve" font-family="HelveticaNeue-CondensedBold" font-weight="bold" font-size="36.0" fill="#558AAA" transform="matrix(1.00, 0.00, -0.00, -1.00, 134.0, 110.0)">y</text><text xml:space="preserve" font-family="HelveticaNeue-CondensedBold" font-weight="bold" font-size="36.0" fill="#558AAA" transform="matrix(1.00, 0.00, -0.00, -1.00, 150.0, 110.0)"> </text><text xml:space="preserve" font-family="HelveticaNeue-CondensedBold" font-weight="bold" font-size="36.0" fill="#558AAA" transform="matrix(1.00, 0.00, -0.00, -1.00, 158.6, 110.0)">@</text><text xml:space="preserve" font-family="HelveticaNeue-CondensedBold" font-weight="bold" font-size="36.0" fill="#558AAA" transform="matrix(1.00, 0.00, -0.00, -1.00, 187.4, 110.0)">j</text><text xml:space="preserve" font-family="HelveticaNeue-CondensedBold" font-weight="bold" font-size="36.0" fill="#558AAA" transform="matrix(1.00, 0.00, -0.00, -1.00, 196.1, 110.0)">o</text><text xml:space="preserve" font-family="HelveticaNeue-CondensedBold" font-weight="bold" font-size="36.0" fill="#558AAA" transform="matrix(1.00, 0.00, -0.00, -1.00, 213.3, 110.0)">h</text><text xml:space="preserve" font-family="HelveticaNeue-CondensedBold" font-weight="bold" font-size="36.0" fill="#558AAA" transform="matrix(1.00, 0.00, -0.00, -1.00, 231.3, 110.0)">n</text><text xml:space="preserve" font-family="HelveticaNeue-CondensedBold" font-weight="bold" font-size="36.0" fill="#558AAA" transform="matrix(1.00, 0.00, -0.00, -1.00, 249.3, 110.0)">k</text><text xml:space="preserve" font-family="HelveticaNeue-CondensedBold" font-weight="bold" font-size="36.0" fill="#558AAA" transform="matrix(1.00, 0.00, -0.00, -1.00, 267.3, 110.0)">p</text><text xml:space="preserve" font-family="HelveticaNeue-CondensedBold" font-weight="bold" font-size="36.0" fill="#558AAA" transform="matrix(1.00, 0.00, -0.00, -1.00, 285.3, 110.0)">a</text><text xml:space="preserve" font-family="HelveticaNeue-CondensedBold" font-weight="bold" font-size="36.0" fill="#558AAA" transform="matrix(1.00, 0.00, -0.00, -1.00, 302.7, 110.0)">u</text><text xml:space="preserve" font-family="HelveticaNeue-CondensedBold" font-weight="bold" font-size="36.0" fill="#558AAA" transform="matrix(1.00, 0.00, -0.00, -1.00, 320.7, 110.0)">l</text><g><clipPath id="clip-1"><path d="M 168.0 741.0 L 856.0 741.0 L 856.0 176.0 L 168.0 176.0 Z M 168.0 741.2 "></path></clipPath><g clip-path="url(#clip-1)"><image xlink:href="A1D2259FBF8CF3FE1DFD4FD55A9FA843.png" width="689.00" height="387.00" transform="matrix(1.00, 0.00, -0.00, -1.09, 168.0, 670.0)"></image></g></g></g></svg>