<?xml version="1.0" encoding="UTF-8" standalone="no"?><svg xmlns="http://www.w3.org/2000/svg" xmlns:xlink="http://www.w3.org/1999/xlink" clip-rule="evenodd" stroke-miterlimit="10" viewBox="0 0 1024 768"><desc>SVG generated by Keynote</desc><defs></defs><g transform="matrix(1.00, 0.00, -0.00, -1.00, 0.0, 768.0)"><g><clipPath id="clip0x6000008a03c0"><path d="M 0.0 768.0 L 1024.0 768.0 L 1024.0 0.0 L 0.0 0.0 Z M 0.0 768.0 "></path></clipPath><g clip-path="url(#clip0x6000008a03c0)"><image xlink:href="../../8532EDA3-03AF-4F95-ADCC-1003E38AE155/assets/3B74C7A20D96CA1FC5403CB9FFDFC0BB.jpeg" width="2048.00" height="1536.00" transform="matrix(0.50, 0.00, -0.00, -0.50, 0.0, 768.0)"></image></g></g><path d="M 5.0 32.0 L 363.0 32.0 L 363.0 1.0 L 5.0 1.0 Z M 5.2 32.1 " fill="#FEFFFE"></path><g><clipPath id="clip0x6000006bf380"><path d="M 4.5 0.5 L 363.7 0.5 L 363.7 32.8 L 4.5 32.8 Z M 4.5 0.5 "></path></clipPath><g clip-path="url(#clip0x6000006bf380)"><text xml:space="preserve" font-family="Palatino-Roman,Palatino" font-size="17.0" fill="#535F55" transform="matrix(1.00, 0.00, -0.00, -1.00, 9.7, 9.9)">R</text><text xml:space="preserve" font-family="Palatino-Roman,Palatino" font-size="17.0" fill="#535F55" transform="matrix(1.00, 0.00, -0.00, -1.00, 21.0, 9.9)">e</text><text xml:space="preserve" font-family="Palatino-Roman,Palatino" font-size="17.0" fill="#535F55" transform="matrix(1.00, 0.00, -0.00, -1.00, 29.2, 9.9)">a</text><text xml:space="preserve" font-family="Palatino-Roman,Palatino" font-size="17.0" fill="#535F55" transform="matrix(1.00, 0.00, -0.00, -1.00, 37.7, 9.9)">c</text><text xml:space="preserve" font-family="Palatino-Roman,Palatino" font-size="17.0" fill="#535F55" transform="matrix(1.00, 0.00, -0.00, -1.00, 45.2, 9.9)">t</text><text xml:space="preserve" font-family="Palatino-Roman,Palatino" font-size="17.0" fill="#535F55" transform="matrix(1.00, 0.00, -0.00, -1.00, 50.8, 9.9)"> </text><text xml:space="preserve" font-family="Palatino-Roman,Palatino" font-size="17.0" fill="#535F55" transform="matrix(1.00, 0.00, -0.00, -1.00, 55.0, 9.9)">i</text><text xml:space="preserve" font-family="Palatino-Roman,Palatino" font-size="17.0" fill="#535F55" transform="matrix(1.00, 0.00, -0.00, -1.00, 60.0, 9.9)">s</text><text xml:space="preserve" font-family="Palatino-Roman,Palatino" font-size="17.0" fill="#535F55" transform="matrix(1.00, 0.00, -0.00, -1.00, 67.2, 9.9)"> </text><text xml:space="preserve" font-family="Palatino-Roman,Palatino" font-size="17.0" fill="#535F55" transform="matrix(1.00, 0.00, -0.00, -1.00, 71.4, 9.9)">“</text><text xml:space="preserve" font-family="Palatino-Roman,Palatino" font-size="17.0" fill="#535F55" transform="matrix(1.00, 0.00, -0.00, -1.00, 79.9, 9.9)">f</text><text xml:space="preserve" font-family="Palatino-Roman,Palatino" font-size="17.0" fill="#535F55" transform="matrix(1.00, 0.00, -0.00, -1.00, 85.6, 9.9)">u</text><text xml:space="preserve" font-family="Palatino-Roman,Palatino" font-size="17.0" fill="#535F55" transform="matrix(1.00, 0.00, -0.00, -1.00, 95.8, 9.9)">n</text><text xml:space="preserve" font-family="Palatino-Roman,Palatino" font-size="17.0" fill="#535F55" transform="matrix(1.00, 0.00, -0.00, -1.00, 105.7, 9.9)">c</text><text xml:space="preserve" font-family="Palatino-Roman,Palatino" font-size="17.0" fill="#535F55" transform="matrix(1.00, 0.00, -0.00, -1.00, 113.3, 9.9)">t</text><text xml:space="preserve" font-family="Palatino-Roman,Palatino" font-size="17.0" fill="#535F55" transform="matrix(1.00, 0.00, -0.00, -1.00, 118.8, 9.9)">i</text><text xml:space="preserve" font-family="Palatino-Roman,Palatino" font-size="17.0" fill="#535F55" transform="matrix(1.00, 0.00, -0.00, -1.00, 123.8, 9.9)">o</text><text xml:space="preserve" font-family="Palatino-Roman,Palatino" font-size="17.0" fill="#535F55" transform="matrix(1.00, 0.00, -0.00, -1.00, 133.0, 9.9)">n</text><text xml:space="preserve" font-family="Palatino-Roman,Palatino" font-size="17.0" fill="#535F55" transform="matrix(1.00, 0.00, -0.00, -1.00, 142.9, 9.9)">a</text><text xml:space="preserve" font-family="Palatino-Roman,Palatino" font-size="17.0" fill="#535F55" transform="matrix(1.00, 0.00, -0.00, -1.00, 151.4, 9.9)">l</text><text xml:space="preserve" font-family="Palatino-Roman,Palatino" font-size="17.0" fill="#535F55" transform="matrix(1.00, 0.00, -0.00, -1.00, 156.4, 9.9)">”</text><text xml:space="preserve" font-family="Palatino-Roman,Palatino" font-size="17.0" fill="#535F55" transform="matrix(1.00, 0.00, -0.00, -1.00, 164.9, 9.9)"> </text><text xml:space="preserve" font-family="Palatino-Roman,Palatino" font-size="17.0" fill="#535F55" transform="matrix(1.00, 0.00, -0.00, -1.00, 169.1, 9.9)">|</text><text xml:space="preserve" font-family="Palatino-Roman,Palatino" font-size="17.0" fill="#535F55" transform="matrix(1.00, 0.00, -0.00, -1.00, 179.4, 9.9)"> </text><text xml:space="preserve" font-family="Palatino-Roman,Palatino" font-size="17.0" fill="#535F55" transform="matrix(1.00, 0.00, -0.00, -1.00, 183.7, 9.9)">@</text><text xml:space="preserve" font-family="Palatino-Roman,Palatino" font-size="17.0" fill="#535F55" transform="matrix(1.00, 0.00, -0.00, -1.00, 196.4, 9.9)">j</text><text xml:space="preserve" font-family="Palatino-Roman,Palatino" font-size="17.0" fill="#535F55" transform="matrix(1.00, 0.00, -0.00, -1.00, 200.4, 9.9)">o</text><text xml:space="preserve" font-family="Palatino-Roman,Palatino" font-size="17.0" fill="#535F55" transform="matrix(1.00, 0.00, -0.00, -1.00, 209.6, 9.9)">h</text><text xml:space="preserve" font-family="Palatino-Roman,Palatino" font-size="17.0" fill="#535F55" transform="matrix(1.00, 0.00, -0.00, -1.00, 219.5, 9.9)">n</text><text xml:space="preserve" font-family="Palatino-Roman,Palatino" font-size="17.0" fill="#535F55" transform="matrix(1.00, 0.00, -0.00, -1.00, 229.4, 9.9)">k</text><text xml:space="preserve" font-family="Palatino-Roman,Palatino" font-size="17.0" fill="#535F55" transform="matrix(1.00, 0.00, -0.00, -1.00, 238.9, 9.9)">p</text><text xml:space="preserve" font-family="Palatino-Roman,Palatino" font-size="17.0" fill="#535F55" transform="matrix(1.00, 0.00, -0.00, -1.00, 249.1, 9.9)">a</text><text xml:space="preserve" font-family="Palatino-Roman,Palatino" font-size="17.0" fill="#535F55" transform="matrix(1.00, 0.00, -0.00, -1.00, 257.6, 9.9)">u</text><text xml:space="preserve" font-family="Palatino-Roman,Palatino" font-size="17.0" fill="#535F55" transform="matrix(1.00, 0.00, -0.00, -1.00, 267.9, 9.9)">l</text><text xml:space="preserve" font-family="Palatino-Roman,Palatino" font-size="17.0" fill="#535F55" transform="matrix(1.00, 0.00, -0.00, -1.00, 272.8, 9.9)"> </text><text xml:space="preserve" font-family="Palatino-Roman,Palatino" font-size="17.0" fill="#535F55" transform="matrix(1.00, 0.00, -0.00, -1.00, 277.1, 9.9)">|</text><text xml:space="preserve" font-family="Palatino-Roman,Palatino" font-size="17.0" fill="#535F55" transform="matrix(1.00, 0.00, -0.00, -1.00, 287.4, 9.9)"> </text><text xml:space="preserve" font-family="Palatino-Roman,Palatino" font-size="17.0" fill="#535F55" transform="matrix(1.00, 0.00, -0.00, -1.00, 291.6, 9.9)">N</text><text xml:space="preserve" font-family="Palatino-Roman,Palatino" font-size="17.0" fill="#535F55" transform="matrix(1.00, 0.00, -0.00, -1.00, 305.7, 9.9)">a</text><text xml:space="preserve" font-family="Palatino-Roman,Palatino" font-size="17.0" fill="#535F55" transform="matrix(1.00, 0.00, -0.00, -1.00, 314.2, 9.9)">t</text><text xml:space="preserve" font-family="Palatino-Roman,Palatino" font-size="17.0" fill="#535F55" transform="matrix(1.00, 0.00, -0.00, -1.00, 319.8, 9.9)">i</text><text xml:space="preserve" font-family="Palatino-Roman,Palatino" font-size="17.0" fill="#535F55" transform="matrix(1.00, 0.00, -0.00, -1.00, 324.7, 9.9)">o</text><text xml:space="preserve" font-family="Palatino-Roman,Palatino" font-size="17.0" fill="#535F55" transform="matrix(1.00, 0.00, -0.00, -1.00, 334.0, 9.9)">n</text><text xml:space="preserve" font-family="Palatino-Roman,Palatino" font-size="17.0" fill="#535F55" transform="matrix(1.00, 0.00, -0.00, -1.00, 343.9, 9.9)">J</text><text xml:space="preserve" font-family="Palatino-Roman,Palatino" font-size="17.0" fill="#535F55" transform="matrix(1.00, 0.00, -0.00, -1.00, 349.6, 9.9)">S</text></g></g><text xml:space="preserve" font-family="Palatino-Roman,Palatino" font-size="70.0" fill="#535F55" transform="matrix(1.00, 0.00, -0.00, -1.00, 308.0, 357.4)">V</text><text xml:space="preserve" font-family="Palatino-Roman,Palatino" font-size="70.0" fill="#535F55" transform="matrix(1.00, 0.00, -0.00, -1.00, 354.7, 357.4)">i</text><text xml:space="preserve" font-family="Palatino-Roman,Palatino" font-size="70.0" fill="#535F55" transform="matrix(1.00, 0.00, -0.00, -1.00, 375.1, 357.4)">r</text><text xml:space="preserve" font-family="Palatino-Roman,Palatino" font-size="70.0" fill="#535F55" transform="matrix(1.00, 0.00, -0.00, -1.00, 402.7, 357.4)">t</text><text xml:space="preserve" font-family="Palatino-Roman,Palatino" font-size="70.0" fill="#535F55" transform="matrix(1.00, 0.00, -0.00, -1.00, 425.6, 357.4)">u</text><text xml:space="preserve" font-family="Palatino-Roman,Palatino" font-size="70.0" fill="#535F55" transform="matrix(1.00, 0.00, -0.00, -1.00, 467.8, 357.4)">a</text><text xml:space="preserve" font-family="Palatino-Roman,Palatino" font-size="70.0" fill="#535F55" transform="matrix(1.00, 0.00, -0.00, -1.00, 502.8, 357.4)">l</text><text xml:space="preserve" font-family="Palatino-Roman,Palatino" font-size="70.0" fill="#535F55" transform="matrix(1.00, 0.00, -0.00, -1.00, 523.2, 357.4)"> </text><text xml:space="preserve" font-family="Palatino-Roman,Palatino" font-size="70.0" fill="#535F55" transform="matrix(1.00, 0.00, -0.00, -1.00, 540.7, 357.4)">D</text><text xml:space="preserve" font-family="Palatino-Roman,Palatino" font-size="70.0" fill="#535F55" transform="matrix(1.00, 0.00, -0.00, -1.00, 594.8, 357.4)">O</text><text xml:space="preserve" font-family="Palatino-Roman,Palatino" font-size="70.0" fill="#535F55" transform="matrix(1.00, 0.00, -0.00, -1.00, 649.9, 357.4)">M</text></g></svg>