<?xml version="1.0" encoding="UTF-8" standalone="no"?><svg xmlns="http://www.w3.org/2000/svg" xmlns:xlink="http://www.w3.org/1999/xlink" clip-rule="evenodd" stroke-miterlimit="10" viewBox="0 0 1024 768"><desc>SVG generated by Keynote</desc><defs><pattern id="B48BD1B4-D671-49E8-A672-D041D36D1CE2" patternUnits="userSpaceOnUse" width="350" height="350" viewBox="0 0 350 350"><image xlink:href="../../FCC9A679-7DFC-415C-B9B4-AAB41459A8B8/assets/BD0E4D3ED136EAFC11894D4BCB958156.png" width="350.00" height="350.00"></image></pattern></defs><g transform="matrix(1.00, 0.00, -0.00, -1.00, 0.0, 768.0)"><g><clipPath id="clip0x7ffbba5c8500"><path d="M 0.0 768.0 L 1024.0 768.0 L 1024.0 0.0 L 0.0 0.0 Z M 0.0 768.0 "></path></clipPath><g clip-path="url(#clip0x7ffbba5c8500)"><image xlink:href="../../8532EDA3-03AF-4F95-ADCC-1003E38AE155/assets/3B74C7A20D96CA1FC5403CB9FFDFC0BB.jpeg" width="2048.00" height="1536.00" transform="matrix(0.50, 0.00, -0.00, -0.50, 0.0, 768.0)"></image></g></g><path d="M -4.0 32.0 L 372.0 32.0 L 372.0 1.0 L -4.0 1.0 Z M -3.6 32.1 " fill="#FEFFFE"></path><g><clipPath id="clip0x7ffbb77e5490"><path d="M -4.3 0.5 L 372.5 0.5 L 372.5 32.8 L -4.3 32.8 Z M -4.3 0.5 "></path></clipPath><g clip-path="url(#clip0x7ffbb77e5490)"><text xml:space="preserve" font-family="Palatino-Roman,Palatino" font-size="17.0" fill="#535F55" transform="matrix(1.00, 0.00, -0.00, -1.00, 0.9, 9.9)">R</text><text xml:space="preserve" font-family="Palatino-Roman,Palatino" font-size="17.0" fill="#535F55" transform="matrix(1.00, 0.00, -0.00, -1.00, 12.2, 9.9)">e</text><text xml:space="preserve" font-family="Palatino-Roman,Palatino" font-size="17.0" fill="#535F55" transform="matrix(1.00, 0.00, -0.00, -1.00, 20.4, 9.9)">a</text><text xml:space="preserve" font-family="Palatino-Roman,Palatino" font-size="17.0" fill="#535F55" transform="matrix(1.00, 0.00, -0.00, -1.00, 28.9, 9.9)">c</text><text xml:space="preserve" font-family="Palatino-Roman,Palatino" font-size="17.0" fill="#535F55" transform="matrix(1.00, 0.00, -0.00, -1.00, 36.4, 9.9)">t</text><text xml:space="preserve" font-family="Palatino-Roman,Palatino" font-size="17.0" fill="#535F55" transform="matrix(1.00, 0.00, -0.00, -1.00, 41.9, 9.9)"> </text><text xml:space="preserve" font-family="Palatino-Roman,Palatino" font-size="17.0" fill="#535F55" transform="matrix(1.00, 0.00, -0.00, -1.00, 46.2, 9.9)">i</text><text xml:space="preserve" font-family="Palatino-Roman,Palatino" font-size="17.0" fill="#535F55" transform="matrix(1.00, 0.00, -0.00, -1.00, 51.1, 9.9)">s</text><text xml:space="preserve" font-family="Palatino-Roman,Palatino" font-size="17.0" fill="#535F55" transform="matrix(1.00, 0.00, -0.00, -1.00, 58.3, 9.9)"> </text><text xml:space="preserve" font-family="Palatino-Roman,Palatino" font-size="17.0" fill="#535F55" transform="matrix(1.00, 0.00, -0.00, -1.00, 62.6, 9.9)">“</text><text xml:space="preserve" font-family="Palatino-Roman,Palatino" font-size="17.0" fill="#535F55" transform="matrix(1.00, 0.00, -0.00, -1.00, 71.1, 9.9)">f</text><text xml:space="preserve" font-family="Palatino-Roman,Palatino" font-size="17.0" fill="#535F55" transform="matrix(1.00, 0.00, -0.00, -1.00, 76.8, 9.9)">u</text><text xml:space="preserve" font-family="Palatino-Roman,Palatino" font-size="17.0" fill="#535F55" transform="matrix(1.00, 0.00, -0.00, -1.00, 87.0, 9.9)">n</text><text xml:space="preserve" font-family="Palatino-Roman,Palatino" font-size="17.0" fill="#535F55" transform="matrix(1.00, 0.00, -0.00, -1.00, 96.9, 9.9)">c</text><text xml:space="preserve" font-family="Palatino-Roman,Palatino" font-size="17.0" fill="#535F55" transform="matrix(1.00, 0.00, -0.00, -1.00, 104.4, 9.9)">t</text><text xml:space="preserve" font-family="Palatino-Roman,Palatino" font-size="17.0" fill="#535F55" transform="matrix(1.00, 0.00, -0.00, -1.00, 110.0, 9.9)">i</text><text xml:space="preserve" font-family="Palatino-Roman,Palatino" font-size="17.0" fill="#535F55" transform="matrix(1.00, 0.00, -0.00, -1.00, 114.9, 9.9)">o</text><text xml:space="preserve" font-family="Palatino-Roman,Palatino" font-size="17.0" fill="#535F55" transform="matrix(1.00, 0.00, -0.00, -1.00, 124.2, 9.9)">n</text><text xml:space="preserve" font-family="Palatino-Roman,Palatino" font-size="17.0" fill="#535F55" transform="matrix(1.00, 0.00, -0.00, -1.00, 134.1, 9.9)">a</text><text xml:space="preserve" font-family="Palatino-Roman,Palatino" font-size="17.0" fill="#535F55" transform="matrix(1.00, 0.00, -0.00, -1.00, 142.6, 9.9)">l</text><text xml:space="preserve" font-family="Palatino-Roman,Palatino" font-size="17.0" fill="#535F55" transform="matrix(1.00, 0.00, -0.00, -1.00, 147.6, 9.9)">”</text><text xml:space="preserve" font-family="Palatino-Roman,Palatino" font-size="17.0" fill="#535F55" transform="matrix(1.00, 0.00, -0.00, -1.00, 156.1, 9.9)"> </text><text xml:space="preserve" font-family="Palatino-Roman,Palatino" font-size="17.0" fill="#535F55" transform="matrix(1.00, 0.00, -0.00, -1.00, 160.3, 9.9)">|</text><text xml:space="preserve" font-family="Palatino-Roman,Palatino" font-size="17.0" fill="#535F55" transform="matrix(1.00, 0.00, -0.00, -1.00, 170.6, 9.9)"> </text><text xml:space="preserve" font-family="Palatino-Roman,Palatino" font-size="17.0" fill="#535F55" transform="matrix(1.00, 0.00, -0.00, -1.00, 174.9, 9.9)">@</text><text xml:space="preserve" font-family="Palatino-Roman,Palatino" font-size="17.0" fill="#535F55" transform="matrix(1.00, 0.00, -0.00, -1.00, 187.6, 9.9)">j</text><text xml:space="preserve" font-family="Palatino-Roman,Palatino" font-size="17.0" fill="#535F55" transform="matrix(1.00, 0.00, -0.00, -1.00, 191.5, 9.9)">o</text><text xml:space="preserve" font-family="Palatino-Roman,Palatino" font-size="17.0" fill="#535F55" transform="matrix(1.00, 0.00, -0.00, -1.00, 200.8, 9.9)">h</text><text xml:space="preserve" font-family="Palatino-Roman,Palatino" font-size="17.0" fill="#535F55" transform="matrix(1.00, 0.00, -0.00, -1.00, 210.7, 9.9)">n</text><text xml:space="preserve" font-family="Palatino-Roman,Palatino" font-size="17.0" fill="#535F55" transform="matrix(1.00, 0.00, -0.00, -1.00, 220.6, 9.9)">k</text><text xml:space="preserve" font-family="Palatino-Roman,Palatino" font-size="17.0" fill="#535F55" transform="matrix(1.00, 0.00, -0.00, -1.00, 230.1, 9.9)">p</text><text xml:space="preserve" font-family="Palatino-Roman,Palatino" font-size="17.0" fill="#535F55" transform="matrix(1.00, 0.00, -0.00, -1.00, 240.3, 9.9)">a</text><text xml:space="preserve" font-family="Palatino-Roman,Palatino" font-size="17.0" fill="#535F55" transform="matrix(1.00, 0.00, -0.00, -1.00, 248.8, 9.9)">u</text><text xml:space="preserve" font-family="Palatino-Roman,Palatino" font-size="17.0" fill="#535F55" transform="matrix(1.00, 0.00, -0.00, -1.00, 259.0, 9.9)">l</text><text xml:space="preserve" font-family="Palatino-Roman,Palatino" font-size="17.0" fill="#535F55" transform="matrix(1.00, 0.00, -0.00, -1.00, 264.0, 9.9)"> </text><text xml:space="preserve" font-family="Palatino-Roman,Palatino" font-size="17.0" fill="#535F55" transform="matrix(1.00, 0.00, -0.00, -1.00, 268.2, 9.9)">|</text><text xml:space="preserve" font-family="Palatino-Roman,Palatino" font-size="17.0" fill="#535F55" transform="matrix(1.00, 0.00, -0.00, -1.00, 278.5, 9.9)"> </text><text xml:space="preserve" font-family="Palatino-Roman,Palatino" font-size="17.0" fill="#535F55" transform="matrix(1.00, 0.00, -0.00, -1.00, 282.8, 9.9)">R</text><text xml:space="preserve" font-family="Palatino-Roman,Palatino" font-size="17.0" fill="#535F55" transform="matrix(1.00, 0.00, -0.00, -1.00, 294.1, 9.9)">e</text><text xml:space="preserve" font-family="Palatino-Roman,Palatino" font-size="17.0" fill="#535F55" transform="matrix(1.00, 0.00, -0.00, -1.00, 302.3, 9.9)">a</text><text xml:space="preserve" font-family="Palatino-Roman,Palatino" font-size="17.0" fill="#535F55" transform="matrix(1.00, 0.00, -0.00, -1.00, 310.8, 9.9)">c</text><text xml:space="preserve" font-family="Palatino-Roman,Palatino" font-size="17.0" fill="#535F55" transform="matrix(1.00, 0.00, -0.00, -1.00, 318.3, 9.9)">t</text><text xml:space="preserve" font-family="Palatino-Roman,Palatino" font-size="17.0" fill="#535F55" transform="matrix(1.00, 0.00, -0.00, -1.00, 323.9, 9.9)"> </text><text xml:space="preserve" font-family="Palatino-Roman,Palatino" font-size="17.0" fill="#535F55" transform="matrix(1.00, 0.00, -0.00, -1.00, 328.1, 9.9)">R</text><text xml:space="preserve" font-family="Palatino-Roman,Palatino" font-size="17.0" fill="#535F55" transform="matrix(1.00, 0.00, -0.00, -1.00, 339.5, 9.9)">a</text><text xml:space="preserve" font-family="Palatino-Roman,Palatino" font-size="17.0" fill="#535F55" transform="matrix(1.00, 0.00, -0.00, -1.00, 348.0, 9.9)">l</text><text xml:space="preserve" font-family="Palatino-Roman,Palatino" font-size="17.0" fill="#535F55" transform="matrix(1.00, 0.00, -0.00, -1.00, 352.9, 9.9)">l</text><text xml:space="preserve" font-family="Palatino-Roman,Palatino" font-size="17.0" fill="#535F55" transform="matrix(1.00, 0.00, -0.00, -1.00, 357.9, 9.9)">y</text></g></g><text xml:space="preserve" font-family="Palatino-Roman,Palatino" font-size="56.0" fill="#535F55" transform="matrix(1.00, 0.00, -0.00, -1.00, 413.1, 436.5)">v</text><text xml:space="preserve" font-family="Palatino-Roman,Palatino" font-size="56.0" fill="#535F55" transform="matrix(1.00, 0.00, -0.00, -1.00, 444.8, 436.5)"> </text><text xml:space="preserve" font-family="Palatino-Roman,Palatino" font-size="56.0" fill="#535F55" transform="matrix(1.00, 0.00, -0.00, -1.00, 458.8, 436.5)">=</text><text xml:space="preserve" font-family="Palatino-Roman,Palatino" font-size="56.0" fill="#535F55" transform="matrix(1.00, 0.00, -0.00, -1.00, 492.7, 436.5)"> </text><text xml:space="preserve" font-family="Palatino-Roman,Palatino" font-size="56.0" fill="#535F55" transform="matrix(1.00, 0.00, -0.00, -1.00, 506.7, 436.5)">f</text><text xml:space="preserve" font-family="Palatino-Roman,Palatino" font-size="56.0" fill="#535F55" transform="matrix(1.00, 0.00, -0.00, -1.00, 525.4, 436.5)">(</text><text xml:space="preserve" font-family="Palatino-Roman,Palatino" font-size="56.0" fill="#535F55" transform="matrix(1.00, 0.00, -0.00, -1.00, 544.0, 436.5)">d</text><text xml:space="preserve" font-family="Palatino-Roman,Palatino" font-size="56.0" fill="#535F55" transform="matrix(1.00, 0.00, -0.00, -1.00, 578.2, 436.5)">)</text><text xml:space="preserve" font-family="Palatino-Roman,Palatino" font-size="56.0" fill="#535F55" transform="matrix(1.00, 0.00, -0.00, -1.00, 596.8, 436.5)">;</text><text xml:space="preserve" font-family="Palatino-Roman,Palatino" font-size="56.0" fill="#535F55" transform="matrix(1.00, 0.00, -0.00, -1.00, 452.4, 362.5)">u</text><text xml:space="preserve" font-family="Palatino-Roman,Palatino" font-size="56.0" fill="#535F55" transform="matrix(1.00, 0.00, -0.00, -1.00, 486.1, 362.5)">(</text><text xml:space="preserve" font-family="Palatino-Roman,Palatino" font-size="56.0" fill="#535F55" transform="matrix(1.00, 0.00, -0.00, -1.00, 504.8, 362.5)">d</text><text xml:space="preserve" font-family="Palatino-Roman,Palatino" font-size="56.0" fill="#535F55" transform="matrix(1.00, 0.00, -0.00, -1.00, 539.0, 362.5)">)</text><text xml:space="preserve" font-family="Palatino-Roman,Palatino" font-size="56.0" fill="#535F55" transform="matrix(1.00, 0.00, -0.00, -1.00, 557.6, 362.5)">;</text><text xml:space="preserve" font-family="Palatino-Roman,Palatino" font-size="56.0" fill="#535F55" transform="matrix(1.00, 0.00, -0.00, -1.00, 368.7, 288.5)">t</text><text xml:space="preserve" font-family="Palatino-Roman,Palatino" font-size="56.0" fill="#535F55" transform="matrix(1.00, 0.00, -0.00, -1.00, 387.0, 288.5)">T</text><text xml:space="preserve" font-family="Palatino-Roman,Palatino" font-size="56.0" fill="#535F55" transform="matrix(1.00, 0.00, -0.00, -1.00, 421.3, 288.5)">K</text><text xml:space="preserve" font-family="Palatino-Roman,Palatino" font-size="56.0" fill="#535F55" transform="matrix(1.00, 0.00, -0.00, -1.00, 461.9, 288.5)">I</text><text xml:space="preserve" font-family="Palatino-Roman,Palatino" font-size="56.0" fill="#535F55" transform="matrix(1.00, 0.00, -0.00, -1.00, 480.8, 288.5)">S</text><text xml:space="preserve" font-family="Palatino-Roman,Palatino" font-size="56.0" fill="#535F55" transform="matrix(1.00, 0.00, -0.00, -1.00, 510.2, 288.5)">(</text><text xml:space="preserve" font-family="Palatino-Roman,Palatino" font-size="56.0" fill="#535F55" transform="matrix(1.00, 0.00, -0.00, -1.00, 528.8, 288.5)">d</text><text xml:space="preserve" font-family="Palatino-Roman,Palatino" font-size="56.0" fill="#535F55" transform="matrix(1.00, 0.00, -0.00, -1.00, 563.0, 288.5)">,</text><text xml:space="preserve" font-family="Palatino-Roman,Palatino" font-size="56.0" fill="#535F55" transform="matrix(1.00, 0.00, -0.00, -1.00, 577.0, 288.5)"> </text><text xml:space="preserve" font-family="Palatino-Roman,Palatino" font-size="56.0" fill="#535F55" transform="matrix(1.00, 0.00, -0.00, -1.00, 591.0, 288.5)">v</text><text xml:space="preserve" font-family="Palatino-Roman,Palatino" font-size="56.0" fill="#535F55" transform="matrix(1.00, 0.00, -0.00, -1.00, 622.7, 288.5)">)</text><text xml:space="preserve" font-family="Palatino-Roman,Palatino" font-size="56.0" fill="#535F55" transform="matrix(1.00, 0.00, -0.00, -1.00, 641.3, 288.5)">;</text><g><clipPath id="clip0x7ffbb77c83f0"><path d="M 169.0 608.0 L 855.0 608.0 L 855.0 508.0 L 169.0 508.0 Z M 169.5 608.1 "></path></clipPath><g clip-path="url(#clip0x7ffbb77c83f0)"><path d="M 169.0 508.0 L 855.0 508.0 L 855.0 608.0 L 169.0 608.0 Z M 169.0 508.0 " fill="url(#B48BD1B4-D671-49E8-A672-D041D36D1CE2)"></path></g></g><g><clipPath id="clip0x7ffbb70bee10"><path d="M 154.2 492.9 L 869.8 492.9 L 869.8 623.4 L 154.2 623.4 Z M 154.2 492.9 "></path></clipPath><g clip-path="url(#clip0x7ffbb70bee10)"><text xml:space="preserve" font-family="Palatino-Roman,Palatino" font-size="70.0" fill="#535F55" transform="matrix(1.00, 0.00, -0.00, -1.00, 202.0, 531.5)">C</text><text xml:space="preserve" font-family="Palatino-Roman,Palatino" font-size="70.0" fill="#535F55" transform="matrix(1.00, 0.00, -0.00, -1.00, 251.6, 531.5)">l</text><text xml:space="preserve" font-family="Palatino-Roman,Palatino" font-size="70.0" fill="#535F55" transform="matrix(1.00, 0.00, -0.00, -1.00, 272.0, 531.5)">i</text><text xml:space="preserve" font-family="Palatino-Roman,Palatino" font-size="70.0" fill="#535F55" transform="matrix(1.00, 0.00, -0.00, -1.00, 292.3, 531.5)">e</text><text xml:space="preserve" font-family="Palatino-Roman,Palatino" font-size="70.0" fill="#535F55" transform="matrix(1.00, 0.00, -0.00, -1.00, 325.9, 531.5)">n</text><text xml:space="preserve" font-family="Palatino-Roman,Palatino" font-size="70.0" fill="#535F55" transform="matrix(1.00, 0.00, -0.00, -1.00, 366.6, 531.5)">t</text><text xml:space="preserve" font-family="Palatino-Roman,Palatino" font-size="70.0" fill="#535F55" transform="matrix(1.00, 0.00, -0.00, -1.00, 389.5, 531.5)"> </text><text xml:space="preserve" font-family="Palatino-Roman,Palatino" font-size="70.0" fill="#535F55" transform="matrix(1.00, 0.00, -0.00, -1.00, 407.0, 531.5)">S</text><text xml:space="preserve" font-family="Palatino-Roman,Palatino" font-size="70.0" fill="#535F55" transform="matrix(1.00, 0.00, -0.00, -1.00, 443.7, 531.5)">i</text><text xml:space="preserve" font-family="Palatino-Roman,Palatino" font-size="70.0" fill="#535F55" transform="matrix(1.00, 0.00, -0.00, -1.00, 464.1, 531.5)">d</text><text xml:space="preserve" font-family="Palatino-Roman,Palatino" font-size="70.0" fill="#535F55" transform="matrix(1.00, 0.00, -0.00, -1.00, 506.8, 531.5)">e</text><text xml:space="preserve" font-family="Palatino-Roman,Palatino" font-size="70.0" fill="#535F55" transform="matrix(1.00, 0.00, -0.00, -1.00, 540.3, 531.5)"> </text><text xml:space="preserve" font-family="Palatino-Roman,Palatino" font-size="70.0" fill="#535F55" transform="matrix(1.00, 0.00, -0.00, -1.00, 557.9, 531.5)">F</text><text xml:space="preserve" font-family="Palatino-Roman,Palatino" font-size="70.0" fill="#535F55" transform="matrix(1.00, 0.00, -0.00, -1.00, 596.8, 531.5)">o</text><text xml:space="preserve" font-family="Palatino-Roman,Palatino" font-size="70.0" fill="#535F55" transform="matrix(1.00, 0.00, -0.00, -1.00, 635.0, 531.5)">r</text><text xml:space="preserve" font-family="Palatino-Roman,Palatino" font-size="70.0" fill="#535F55" transform="matrix(1.00, 0.00, -0.00, -1.00, 662.7, 531.5)">m</text><text xml:space="preserve" font-family="Palatino-Roman,Palatino" font-size="70.0" fill="#535F55" transform="matrix(1.00, 0.00, -0.00, -1.00, 724.4, 531.5)">u</text><text xml:space="preserve" font-family="Palatino-Roman,Palatino" font-size="70.0" fill="#535F55" transform="matrix(1.00, 0.00, -0.00, -1.00, 766.6, 531.5)">l</text><text xml:space="preserve" font-family="Palatino-Roman,Palatino" font-size="70.0" fill="#535F55" transform="matrix(1.00, 0.00, -0.00, -1.00, 787.0, 531.5)">a</text></g></g></g></svg>