<?xml version="1.0" encoding="UTF-8" standalone="no"?><svg xmlns="http://www.w3.org/2000/svg" xmlns:xlink="http://www.w3.org/1999/xlink" clip-rule="evenodd" stroke-miterlimit="10" viewBox="0 0 1920 1080"><desc>SVG generated by Keynote</desc><defs></defs><g transform="matrix(1.00, 0.00, -0.00, -1.00, 0.0, 1080.0)"><g><clipPath id="clip0x6080024bf500"><path d="M 0.0 1080.0 L 1920.0 1080.0 L 1920.0 0.0 L 0.0 0.0 Z M 0.0 1080.0 "></path></clipPath><g clip-path="url(#clip0x6080024bf500)"><image xlink:href="../../8532EDA3-03AF-4F95-ADCC-1003E38AE155/assets/0F43D2572F34A9AFB59E4515ED9A1249.jpeg" width="3840.00" height="2160.00" transform="matrix(0.50, 0.00, -0.00, -0.50, 0.0, 1080.0)"></image></g></g><g><clipPath id="clip0x6080024bfb00"><path d="M 0.0 1080.0 L 1920.0 1080.0 L 1920.0 0.0 L 0.0 0.0 Z M 0.0 1080.0 "></path></clipPath><g clip-path="url(#clip0x6080024bfb00)"><image xlink:href="../../DB822D82-1AE6-4210-A4F3-8073AD09AB7D/assets/5D965F14FF9F6B42160705F825F81E02.png" width="2458.00" height="1670.00" transform="matrix(0.78, 0.00, -0.00, -0.78, 0.0, 1192.0)"></image></g></g><path d="M 1377.0 947.0 L 1775.0 947.0 L 1775.0 870.0 L 1377.0 870.0 Z M 1377.4 946.6 " fill="#000000"></path><image xlink:href="../../432CCAE4-F8EA-4AB2-AD5A-7C52AE063474/assets/36FA0F6B939FB9A372A412E31218BB74.png" width="396.00" height="52.00" transform="matrix(1.00, 0.00, -0.00, -1.00, 1379.0, 930.0)"></image><g><clipPath id="clip0x6000022b5fc0"><path d="M 1360.2 850.2 L 1791.7 850.2 L 1791.7 960.7 L 1360.2 960.7 Z M 1360.2 850.2 "></path></clipPath><g clip-path="url(#clip0x6000022b5fc0)"><text xml:space="preserve" font-family="HelveticaNeue-Light,Helvetica Neue" font-size="58.0" fill="#FEFFFE" transform="matrix(1.00, 0.00, -0.00, -1.00, 1381.9, 886.6)">O</text><text xml:space="preserve" font-family="HelveticaNeue-Light,Helvetica Neue" font-size="58.0" fill="#FEFFFE" transform="matrix(1.00, 0.00, -0.00, -1.00, 1424.8, 886.6)">M</text><text xml:space="preserve" font-family="HelveticaNeue-Light,Helvetica Neue" font-size="58.0" fill="#FEFFFE" transform="matrix(1.00, 0.00, -0.00, -1.00, 1472.4, 886.6)">G</text><text xml:space="preserve" font-family="HelveticaNeue-Light,Helvetica Neue" font-size="58.0" fill="#FEFFFE" transform="matrix(1.00, 0.00, -0.00, -1.00, 1515.4, 886.6)"> </text><text xml:space="preserve" font-family="HelveticaNeue-Light,Helvetica Neue" font-size="58.0" fill="#FEFFFE" transform="matrix(1.00, 0.00, -0.00, -1.00, 1531.6, 886.6)">S</text><text xml:space="preserve" font-family="HelveticaNeue-Light,Helvetica Neue" font-size="58.0" fill="#FEFFFE" transform="matrix(1.00, 0.00, -0.00, -1.00, 1568.1, 886.6)">O</text><text xml:space="preserve" font-family="HelveticaNeue-Light,Helvetica Neue" font-size="58.0" fill="#FEFFFE" transform="matrix(1.00, 0.00, -0.00, -1.00, 1611.1, 886.6)"> </text><text xml:space="preserve" font-family="HelveticaNeue-Light,Helvetica Neue" font-size="58.0" fill="#FEFFFE" transform="matrix(1.00, 0.00, -0.00, -1.00, 1627.2, 886.6)">U</text><text xml:space="preserve" font-family="HelveticaNeue-Light,Helvetica Neue" font-size="58.0" fill="#FEFFFE" transform="matrix(1.00, 0.00, -0.00, -1.00, 1666.9, 886.6)">G</text><text xml:space="preserve" font-family="HelveticaNeue-Light,Helvetica Neue" font-size="58.0" fill="#FEFFFE" transform="matrix(1.00, 0.00, -0.00, -1.00, 1709.9, 886.6)">L</text><text xml:space="preserve" font-family="HelveticaNeue-Light,Helvetica Neue" font-size="58.0" fill="#FEFFFE" transform="matrix(1.00, 0.00, -0.00, -1.00, 1734.6, 886.6)">Y</text></g></g><path d="M 1362.0 578.0 L 1790.0 578.0 L 1790.0 502.0 L 1362.0 502.0 Z M 1361.8 578.2 " fill="#000000"></path><image xlink:href="../../432CCAE4-F8EA-4AB2-AD5A-7C52AE063474/assets/45389AABFBBFF6D77FD5219380E105F8.png" width="424.00" height="52.00" transform="matrix(1.00, 0.00, -0.00, -1.00, 1364.0, 562.0)"></image><g><clipPath id="clip0x6000022b6e00"><path d="M 1344.7 481.7 L 1807.2 481.7 L 1807.2 592.3 L 1344.7 592.3 Z M 1344.7 481.7 "></path></clipPath><g clip-path="url(#clip0x6000022b6e00)"><text xml:space="preserve" font-family="HelveticaNeue-Light,Helvetica Neue" font-size="58.0" fill="#FEFFFE" transform="matrix(1.00, 0.00, -0.00, -1.00, 1366.3, 518.2)">O</text><text xml:space="preserve" font-family="HelveticaNeue-Light,Helvetica Neue" font-size="58.0" fill="#FEFFFE" transform="matrix(1.00, 0.00, -0.00, -1.00, 1409.3, 518.2)">M</text><text xml:space="preserve" font-family="HelveticaNeue-Light,Helvetica Neue" font-size="58.0" fill="#FEFFFE" transform="matrix(1.00, 0.00, -0.00, -1.00, 1456.9, 518.2)">G</text><text xml:space="preserve" font-family="HelveticaNeue-Light,Helvetica Neue" font-size="58.0" fill="#FEFFFE" transform="matrix(1.00, 0.00, -0.00, -1.00, 1499.9, 518.2)"> </text><text xml:space="preserve" font-family="HelveticaNeue-Light,Helvetica Neue" font-size="58.0" fill="#FEFFFE" transform="matrix(1.00, 0.00, -0.00, -1.00, 1516.0, 518.2)">I</text><text xml:space="preserve" font-family="HelveticaNeue-Light,Helvetica Neue" font-size="58.0" fill="#FEFFFE" transform="matrix(1.00, 0.00, -0.00, -1.00, 1528.9, 518.2)">T</text><text xml:space="preserve" font-family="HelveticaNeue-Light,Helvetica Neue" font-size="58.0" fill="#FEFFFE" transform="matrix(1.00, 0.00, -0.00, -1.00, 1561.1, 518.2)"> </text><text xml:space="preserve" font-family="HelveticaNeue-Light,Helvetica Neue" font-size="58.0" fill="#FEFFFE" transform="matrix(1.00, 0.00, -0.00, -1.00, 1577.2, 518.2)">W</text><text xml:space="preserve" font-family="HelveticaNeue-Light,Helvetica Neue" font-size="58.0" fill="#FEFFFE" transform="matrix(1.00, 0.00, -0.00, -1.00, 1629.8, 518.2)">O</text><text xml:space="preserve" font-family="HelveticaNeue-Light,Helvetica Neue" font-size="58.0" fill="#FEFFFE" transform="matrix(1.00, 0.00, -0.00, -1.00, 1672.8, 518.2)">R</text><text xml:space="preserve" font-family="HelveticaNeue-Light,Helvetica Neue" font-size="58.0" fill="#FEFFFE" transform="matrix(1.00, 0.00, -0.00, -1.00, 1711.5, 518.2)">K</text><text xml:space="preserve" font-family="HelveticaNeue-Light,Helvetica Neue" font-size="58.0" fill="#FEFFFE" transform="matrix(1.00, 0.00, -0.00, -1.00, 1749.1, 518.2)">S</text></g></g></g></svg>