<?xml version="1.0" encoding="UTF-8" standalone="no"?><svg xmlns="http://www.w3.org/2000/svg" xmlns:xlink="http://www.w3.org/1999/xlink" clip-rule="evenodd" stroke-miterlimit="4.00" viewBox="0 0 1024 768"><desc>SVG generated by Keynote</desc><defs></defs><g transform="matrix(1.00, 0.00, -0.00, -1.00, 0.0, 768.0)"><g><clipPath id="clip-33"><path d="M 0.0 768.0 L 1024.0 768.0 L 1024.0 0.0 L 0.0 0.0 Z M 0.0 768.0 "></path></clipPath><g clip-path="url(#clip-33)"><image xlink:href="../../838CBAF9-4396-4C15-B4D8-C1720683A872/assets/89A446CC20171F8519B02DFAA98F63CF.jpeg" width="1024.00" height="768.00" transform="matrix(1.00, 0.00, -0.00, -1.00, 0.0, 768.0)"></image></g></g><path d="M 0.0 0.0 L 980.0 0.0 L 980.0 726.0 L 0.0 726.0 Z M 0.0 0.0 " fill="none" stroke="#83817C" stroke-width="2.00" transform="matrix(1.00, 0.00, 0.00, -1.00, 22.0, 746.0)"></path><text xml:space="preserve" font-family="HelveticaNeue-Light" font-size="72.0" fill="#558AAA" transform="matrix(1.00, 0.00, -0.00, -1.00, 86.0, 624.0)">D</text><text xml:space="preserve" font-family="HelveticaNeue-Light" font-size="72.0" fill="#558AAA" transform="matrix(1.00, 0.00, -0.00, -1.00, 135.3, 624.0)">e</text><text xml:space="preserve" font-family="HelveticaNeue-Light" font-size="72.0" fill="#558AAA" transform="matrix(1.00, 0.00, -0.00, -1.00, 172.7, 624.0)">m</text><text xml:space="preserve" font-family="HelveticaNeue-Light" font-size="72.0" fill="#558AAA" transform="matrix(1.00, 0.00, -0.00, -1.00, 232.7, 624.0)">o</text><text xml:space="preserve" font-family="HelveticaNeue-Light" font-size="72.0" fill="#558AAA" transform="matrix(1.00, 0.00, -0.00, -1.00, 272.7, 624.0)">s</text><image xlink:href="../../E762732A-49A9-4B30-BB91-CCA0DC019377/assets/509FB886DB0D18A2ED47FAB164A508F8.png" width="400.00" height="400.00" transform="matrix(1.00, 0.00, -0.00, -1.00, 328.0, 583.0)"></image></g></svg>