<?xml version="1.0" encoding="UTF-8" standalone="no"?><svg xmlns="http://www.w3.org/2000/svg" xmlns:xlink="http://www.w3.org/1999/xlink" clip-rule="evenodd" stroke-miterlimit="10" viewBox="0 0 491 47"><desc>SVG generated by Keynote</desc><defs></defs><g transform="matrix(1.00, 0.00, -0.00, -1.00, 0.0, 47.0)"><image xlink:href="../../168EB81C-4DF6-4CC8-AAFB-B1C9EC49E8F3/assets/D78D93A8DEE9B68D58E2A0BAEAF9F97F.png" width="18.00" height="18.00" transform="matrix(1.00, 0.00, -0.00, -1.00, 4.0, 35.0)"></image><g><clipPath id="clip0x6080010b04a0"><path d="M 4.0 17.1 L 21.6 17.1 L 21.6 34.8 L 4.0 34.8 Z M 4.0 17.1 "></path></clipPath><g clip-path="url(#clip0x6080010b04a0)"><g><g><clipPath id="clip0x6080020a40e0"><path d="M 4.0 34.8 L 21.6 34.8 L 21.6 17.1 L 4.0 17.1 Z M 4.0 34.8 "></path></clipPath><g clip-path="url(#clip0x6080020a40e0)"><g><clipPath id="clip0x6080022b3200"><path d="M 0.0 10.0 L 26.0 10.0 L 26.0 42.0 L 0.0 42.0 Z M 0.0 10.0 "></path></clipPath><g clip-path="url(#clip0x6080022b3200)"><path d="M 21.6 31.3 C 21.6 32.0 21.2 32.8 20.5 33.6 C 19.8 34.4 19.0 34.8 18.1 34.8 C 17.7 34.8 17.1 34.6 16.2 34.2 C 14.9 33.5 13.7 33.2 12.8 33.2 C 11.8 33.2 10.6 33.5 9.3 34.2 C 8.5 34.6 7.9 34.8 7.4 34.8 C 6.6 34.8 5.8 34.4 5.1 33.6 C 4.4 32.9 4.0 32.1 4.0 31.3 C 4.0 30.8 4.2 30.2 4.6 29.3 C 5.2 28.0 5.5 26.9 5.5 25.9 C 5.5 25.0 5.2 23.9 4.6 22.5 C 4.2 21.7 4.0 21.1 4.0 20.6 C 4.0 19.8 4.4 19.0 5.1 18.2 C 5.8 17.5 6.6 17.1 7.4 17.1 C 7.9 17.1 8.5 17.3 9.3 17.7 C 10.6 18.4 11.8 18.7 12.8 18.7 C 13.7 18.7 14.9 18.4 16.2 17.7 C 17.1 17.3 17.7 17.1 18.1 17.1 C 19.0 17.1 19.8 17.5 20.5 18.2 C 21.2 19.0 21.6 19.8 21.6 20.6 C 21.6 21.1 21.4 21.7 21.0 22.5 C 20.3 23.9 20.0 25.0 20.0 25.9 C 20.0 26.9 20.3 28.0 21.0 29.3 C 21.4 30.2 21.6 30.8 21.6 31.3 " fill="#FFFFFF"></path></g></g></g></g></g></g></g><image xlink:href="../../168EB81C-4DF6-4CC8-AAFB-B1C9EC49E8F3/assets/0CB788536773F80C8E369034E8D81653.png" width="203.00" height="45.00" transform="matrix(1.00, 0.00, -0.00, -1.00, 53.0, 46.0)"></image><text xml:space="preserve" font-family="HelveticaNeue-Light,Helvetica Neue" font-size="50.0" fill="#FEFFFE" transform="matrix(1.00, 0.00, -0.00, -1.00, 54.0, 9.1)">M</text><text xml:space="preserve" font-family="HelveticaNeue-Light,Helvetica Neue" font-size="50.0" fill="#FEFFFE" transform="matrix(1.00, 0.00, -0.00, -1.00, 95.1, 9.1)">a</text><text xml:space="preserve" font-family="HelveticaNeue-Light,Helvetica Neue" font-size="50.0" fill="#FEFFFE" transform="matrix(1.00, 0.00, -0.00, -1.00, 121.0, 9.1)">x</text><text xml:space="preserve" font-family="HelveticaNeue-Light,Helvetica Neue" font-size="50.0" fill="#FEFFFE" transform="matrix(1.00, 0.00, -0.00, -1.00, 145.1, 9.1)">i</text><text xml:space="preserve" font-family="HelveticaNeue-Light,Helvetica Neue" font-size="50.0" fill="#FEFFFE" transform="matrix(1.00, 0.00, -0.00, -1.00, 154.3, 9.1)">m</text><text xml:space="preserve" font-family="HelveticaNeue-Light,Helvetica Neue" font-size="50.0" fill="#FEFFFE" transform="matrix(1.00, 0.00, -0.00, -1.00, 195.9, 9.1)"> </text><text xml:space="preserve" font-family="HelveticaNeue-Light,Helvetica Neue" font-size="50.0" fill="#FEFFFE" transform="matrix(1.00, 0.00, -0.00, -1.00, 209.8, 9.1)">o</text><text xml:space="preserve" font-family="HelveticaNeue-Light,Helvetica Neue" font-size="50.0" fill="#FEFFFE" transform="matrix(1.00, 0.00, -0.00, -1.00, 237.7, 9.1)">f</text><text xml:space="preserve" font-family="HelveticaNeue-Light,Helvetica Neue" font-size="50.0" fill="#FEFFFE" transform="matrix(1.00, 0.00, -0.00, -1.00, 250.6, 9.1)"> </text><image xlink:href="F122AED938788074FB8BF1538B5B8FEF.png" width="226.00" height="45.00" transform="matrix(1.00, 0.00, -0.00, -1.00, 264.0, 46.0)"></image><text xml:space="preserve" font-family="HelveticaNeue-Light,Helvetica Neue" font-size="50.0" fill="#FEFFFE" transform="matrix(1.00, 0.00, -0.00, -1.00, 264.5, 9.1)">R</text><text xml:space="preserve" font-family="HelveticaNeue-Light,Helvetica Neue" font-size="50.0" fill="#FEFFFE" transform="matrix(1.00, 0.00, -0.00, -1.00, 297.9, 9.1)">e</text><text xml:space="preserve" font-family="HelveticaNeue-Light,Helvetica Neue" font-size="50.0" fill="#FEFFFE" transform="matrix(1.00, 0.00, -0.00, -1.00, 323.8, 9.1)">l</text><text xml:space="preserve" font-family="HelveticaNeue-Light,Helvetica Neue" font-size="50.0" fill="#FEFFFE" transform="matrix(1.00, 0.00, -0.00, -1.00, 333.1, 9.1)">e</text><text xml:space="preserve" font-family="HelveticaNeue-Light,Helvetica Neue" font-size="50.0" fill="#FEFFFE" transform="matrix(1.00, 0.00, -0.00, -1.00, 359.0, 9.1)">v</text><text xml:space="preserve" font-family="HelveticaNeue-Light,Helvetica Neue" font-size="50.0" fill="#FEFFFE" transform="matrix(1.00, 0.00, -0.00, -1.00, 382.1, 9.1)">a</text><text xml:space="preserve" font-family="HelveticaNeue-Light,Helvetica Neue" font-size="50.0" fill="#FEFFFE" transform="matrix(1.00, 0.00, -0.00, -1.00, 408.1, 9.1)">n</text><text xml:space="preserve" font-family="HelveticaNeue-Light,Helvetica Neue" font-size="50.0" fill="#FEFFFE" transform="matrix(1.00, 0.00, -0.00, -1.00, 434.9, 9.1)">c</text><text xml:space="preserve" font-family="HelveticaNeue-Light,Helvetica Neue" font-size="50.0" fill="#FEFFFE" transform="matrix(1.00, 0.00, -0.00, -1.00, 460.9, 9.1)">e</text></g></svg>