<?xml version="1.0" encoding="UTF-8" standalone="no"?><svg xmlns="http://www.w3.org/2000/svg" xmlns:xlink="http://www.w3.org/1999/xlink" clip-rule="evenodd" stroke-miterlimit="10" viewBox="0 0 515 57"><desc>SVG generated by Keynote</desc><defs></defs><g transform="matrix(1.00, 0.00, -0.00, -1.00, 0.0, 57.0)"><image xlink:href="D78D93A8DEE9B68D58E2A0BAEAF9F97F.png" width="18.00" height="18.00" transform="matrix(1.00, 0.00, -0.00, -1.00, 4.0, 44.0)"></image><g><clipPath id="clip0x6080024aeb20"><path d="M 4.0 26.1 L 21.6 26.1 L 21.6 43.8 L 4.0 43.8 Z M 4.0 26.1 "></path></clipPath><g clip-path="url(#clip0x6080024aeb20)"><g><g><clipPath id="clip0x6080022a1080"><path d="M 4.0 43.8 L 21.6 43.8 L 21.6 26.1 L 4.0 26.1 Z M 4.0 43.8 "></path></clipPath><g clip-path="url(#clip0x6080022a1080)"><g><clipPath id="clip0x608001cb2600"><path d="M 0.0 19.0 L 26.0 19.0 L 26.0 51.0 L 0.0 51.0 Z M 0.0 19.0 "></path></clipPath><g clip-path="url(#clip0x608001cb2600)"><path d="M 21.6 40.3 C 21.6 41.0 21.2 41.8 20.5 42.6 C 19.8 43.4 19.0 43.8 18.1 43.8 C 17.7 43.8 17.1 43.6 16.2 43.2 C 14.9 42.5 13.7 42.2 12.8 42.2 C 11.8 42.2 10.6 42.5 9.3 43.2 C 8.5 43.6 7.9 43.8 7.4 43.8 C 6.6 43.8 5.8 43.4 5.1 42.6 C 4.4 41.9 4.0 41.1 4.0 40.3 C 4.0 39.8 4.2 39.2 4.6 38.3 C 5.2 37.0 5.5 35.9 5.5 34.9 C 5.5 34.0 5.2 32.9 4.6 31.5 C 4.2 30.7 4.0 30.1 4.0 29.6 C 4.0 28.8 4.4 28.0 5.1 27.2 C 5.8 26.5 6.6 26.1 7.4 26.1 C 7.9 26.1 8.5 26.3 9.3 26.7 C 10.6 27.4 11.8 27.7 12.8 27.7 C 13.7 27.7 14.9 27.4 16.2 26.7 C 17.1 26.3 17.7 26.1 18.1 26.1 C 19.0 26.1 19.8 26.5 20.5 27.2 C 21.2 28.0 21.6 28.8 21.6 29.6 C 21.6 30.1 21.4 30.7 21.0 31.5 C 20.3 32.9 20.0 34.0 20.0 34.9 C 20.0 35.9 20.3 37.0 21.0 38.3 C 21.4 39.2 21.6 39.8 21.6 40.3 " fill="#FFFFFF"></path></g></g></g></g></g></g></g><image xlink:href="421DCEC57B6E9C58B213364FF838C4C0.png" width="463.00" height="55.00" transform="matrix(1.00, 0.00, -0.00, -1.00, 51.0, 56.0)"></image><text xml:space="preserve" font-family="HelveticaNeue-Light,Helvetica Neue" font-size="50.0" fill="#FEFFFE" transform="matrix(1.00, 0.00, -0.00, -1.00, 54.0, 18.1)">C</text><text xml:space="preserve" font-family="HelveticaNeue-Light,Helvetica Neue" font-size="50.0" fill="#FEFFFE" transform="matrix(1.00, 0.00, -0.00, -1.00, 89.2, 18.1)">o</text><text xml:space="preserve" font-family="HelveticaNeue-Light,Helvetica Neue" font-size="50.0" fill="#FEFFFE" transform="matrix(1.00, 0.00, -0.00, -1.00, 117.0, 18.1)">o</text><text xml:space="preserve" font-family="HelveticaNeue-Light,Helvetica Neue" font-size="50.0" fill="#FEFFFE" transform="matrix(1.00, 0.00, -0.00, -1.00, 144.8, 18.1)">p</text><text xml:space="preserve" font-family="HelveticaNeue-Light,Helvetica Neue" font-size="50.0" fill="#FEFFFE" transform="matrix(1.00, 0.00, -0.00, -1.00, 173.5, 18.1)">e</text><text xml:space="preserve" font-family="HelveticaNeue-Light,Helvetica Neue" font-size="50.0" fill="#FEFFFE" transform="matrix(1.00, 0.00, -0.00, -1.00, 199.4, 18.1)">r</text><text xml:space="preserve" font-family="HelveticaNeue-Light,Helvetica Neue" font-size="50.0" fill="#FEFFFE" transform="matrix(1.00, 0.00, -0.00, -1.00, 215.2, 18.1)">a</text><text xml:space="preserve" font-family="HelveticaNeue-Light,Helvetica Neue" font-size="50.0" fill="#FEFFFE" transform="matrix(1.00, 0.00, -0.00, -1.00, 241.1, 18.1)">t</text><text xml:space="preserve" font-family="HelveticaNeue-Light,Helvetica Neue" font-size="50.0" fill="#FEFFFE" transform="matrix(1.00, 0.00, -0.00, -1.00, 255.9, 18.1)">i</text><text xml:space="preserve" font-family="HelveticaNeue-Light,Helvetica Neue" font-size="50.0" fill="#FEFFFE" transform="matrix(1.00, 0.00, -0.00, -1.00, 265.2, 18.1)">v</text><text xml:space="preserve" font-family="HelveticaNeue-Light,Helvetica Neue" font-size="50.0" fill="#FEFFFE" transform="matrix(1.00, 0.00, -0.00, -1.00, 288.4, 18.1)">e</text><text xml:space="preserve" font-family="HelveticaNeue-Light,Helvetica Neue" font-size="50.0" fill="#FEFFFE" transform="matrix(1.00, 0.00, -0.00, -1.00, 314.3, 18.1)"> </text><text xml:space="preserve" font-family="HelveticaNeue-Light,Helvetica Neue" font-size="50.0" fill="#FEFFFE" transform="matrix(1.00, 0.00, -0.00, -1.00, 328.2, 18.1)">P</text><text xml:space="preserve" font-family="HelveticaNeue-Light,Helvetica Neue" font-size="50.0" fill="#FEFFFE" transform="matrix(1.00, 0.00, -0.00, -1.00, 359.7, 18.1)">r</text><text xml:space="preserve" font-family="HelveticaNeue-Light,Helvetica Neue" font-size="50.0" fill="#FEFFFE" transform="matrix(1.00, 0.00, -0.00, -1.00, 375.4, 18.1)">i</text><text xml:space="preserve" font-family="HelveticaNeue-Light,Helvetica Neue" font-size="50.0" fill="#FEFFFE" transform="matrix(1.00, 0.00, -0.00, -1.00, 384.7, 18.1)">n</text><text xml:space="preserve" font-family="HelveticaNeue-Light,Helvetica Neue" font-size="50.0" fill="#FEFFFE" transform="matrix(1.00, 0.00, -0.00, -1.00, 411.6, 18.1)">c</text><text xml:space="preserve" font-family="HelveticaNeue-Light,Helvetica Neue" font-size="50.0" fill="#FEFFFE" transform="matrix(1.00, 0.00, -0.00, -1.00, 437.5, 18.1)">i</text><text xml:space="preserve" font-family="HelveticaNeue-Light,Helvetica Neue" font-size="50.0" fill="#FEFFFE" transform="matrix(1.00, 0.00, -0.00, -1.00, 446.8, 18.1)">p</text><text xml:space="preserve" font-family="HelveticaNeue-Light,Helvetica Neue" font-size="50.0" fill="#FEFFFE" transform="matrix(1.00, 0.00, -0.00, -1.00, 475.4, 18.1)">l</text><text xml:space="preserve" font-family="HelveticaNeue-Light,Helvetica Neue" font-size="50.0" fill="#FEFFFE" transform="matrix(1.00, 0.00, -0.00, -1.00, 484.7, 18.1)">e</text></g></svg>