<?xml version="1.0" encoding="UTF-8" standalone="no"?><svg xmlns="http://www.w3.org/2000/svg" xmlns:xlink="http://www.w3.org/1999/xlink" clip-rule="evenodd" stroke-miterlimit="10" viewBox="0 0 1024 768"><desc>SVG generated by Keynote</desc><defs></defs><g transform="matrix(1.00, 0.00, -0.00, -1.00, 0.0, 768.0)"><g><clipPath id="clip0x7ffbb779a5a0"><path d="M 0.0 768.0 L 1024.0 768.0 L 1024.0 0.0 L 0.0 0.0 Z M 0.0 768.0 "></path></clipPath><g clip-path="url(#clip0x7ffbb779a5a0)"><image xlink:href="../../8532EDA3-03AF-4F95-ADCC-1003E38AE155/assets/3B74C7A20D96CA1FC5403CB9FFDFC0BB.jpeg" width="2048.00" height="1536.00" transform="matrix(0.50, 0.00, -0.00, -0.50, 0.0, 768.0)"></image></g></g><g><clipPath id="clip0x7ffbb71ccf80"><path d="M 0.0 768.0 L 1024.0 768.0 L 1024.0 0.0 L 0.0 0.0 Z M 0.0 768.0 "></path></clipPath><g clip-path="url(#clip0x7ffbb71ccf80)"><image xlink:href="8A7F1D3BA2133E3CDECD8F5FABACBA56.png" width="3264.00" height="2448.00" transform="matrix(0.31, 0.00, -0.00, -0.31, 0.0, 768.0)"></image></g></g><path d="M 8.7 0.0 L 211.6 -0.1 L 211.6 103.9 L 109.6 103.9 L 109.6 183.9 L 0.0 183.9 L 8.7 0.0 Z M 8.7 0.0 " fill="none" stroke="#707D74" stroke-width="2.00" transform="matrix(1.00, 0.00, 0.00, -1.00, 363.4, 533.9)"></path></g></svg>