<?xml version="1.0" encoding="UTF-8" standalone="no"?><svg xmlns="http://www.w3.org/2000/svg" xmlns:xlink="http://www.w3.org/1999/xlink" clip-rule="evenodd" stroke-miterlimit="10" viewBox="0 0 1920 1080"><desc>SVG generated by Keynote</desc><defs></defs><g transform="matrix(1.00, 0.00, -0.00, -1.00, 0.0, 1080.0)"><g><clipPath id="clip0x6080024ab0a0"><path d="M 0.0 1080.0 L 1920.0 1080.0 L 1920.0 0.0 L 0.0 0.0 Z M 0.0 1080.0 "></path></clipPath><g clip-path="url(#clip0x6080024ab0a0)"><image xlink:href="../../8532EDA3-03AF-4F95-ADCC-1003E38AE155/assets/0F43D2572F34A9AFB59E4515ED9A1249.jpeg" width="3840.00" height="2160.00" transform="matrix(0.50, 0.00, -0.00, -0.50, 0.0, 1080.0)"></image></g></g><image xlink:href="E2BAF08378F59F9F447712FFBB745A8F.png" width="23.00" height="9.00" transform="matrix(1.00, 0.00, -0.00, -1.00, 837.0, 350.0)"></image><text xml:space="preserve" font-family="HelveticaNeue-Italic,Helvetica Neue" font-style="italic" font-size="32.0" fill="#73BFFF" transform="matrix(1.00, 0.00, -0.00, -1.00, 839.0, 338.7)">–</text><image xlink:href="7C413BCD6AE2837A009D69CCA5ACE3BD.png" width="234.00" height="37.00" transform="matrix(1.00, 0.00, -0.00, -1.00, 854.0, 364.0)"></image><text xml:space="preserve" font-family="HelveticaNeue-Italic,Helvetica Neue" font-style="italic" font-size="32.0" fill="#73BFFF" transform="matrix(1.00, 0.00, -0.00, -1.00, 855.0, 338.7)">N</text><text xml:space="preserve" font-family="HelveticaNeue-Italic,Helvetica Neue" font-style="italic" font-size="32.0" fill="#73BFFF" transform="matrix(1.00, 0.00, -0.00, -1.00, 878.1, 338.7)">o</text><text xml:space="preserve" font-family="HelveticaNeue-Italic,Helvetica Neue" font-style="italic" font-size="32.0" fill="#73BFFF" transform="matrix(1.00, 0.00, -0.00, -1.00, 896.5, 338.7)">a</text><text xml:space="preserve" font-family="HelveticaNeue-Italic,Helvetica Neue" font-style="italic" font-size="32.0" fill="#73BFFF" transform="matrix(1.00, 0.00, -0.00, -1.00, 913.1, 338.7)">m</text><text xml:space="preserve" font-family="HelveticaNeue-Italic,Helvetica Neue" font-style="italic" font-size="32.0" fill="#73BFFF" transform="matrix(1.00, 0.00, -0.00, -1.00, 940.4, 338.7)"> </text><text xml:space="preserve" font-family="HelveticaNeue-Italic,Helvetica Neue" font-style="italic" font-size="32.0" fill="#73BFFF" transform="matrix(1.00, 0.00, -0.00, -1.00, 949.3, 338.7)">C</text><text xml:space="preserve" font-family="HelveticaNeue-Italic,Helvetica Neue" font-style="italic" font-size="32.0" fill="#73BFFF" transform="matrix(1.00, 0.00, -0.00, -1.00, 972.4, 338.7)">h</text><text xml:space="preserve" font-family="HelveticaNeue-Italic,Helvetica Neue" font-style="italic" font-size="32.0" fill="#73BFFF" transform="matrix(1.00, 0.00, -0.00, -1.00, 990.2, 338.7)">o</text><text xml:space="preserve" font-family="HelveticaNeue-Italic,Helvetica Neue" font-style="italic" font-size="32.0" fill="#73BFFF" transform="matrix(1.00, 0.00, -0.00, -1.00, 1008.5, 338.7)">m</text><text xml:space="preserve" font-family="HelveticaNeue-Italic,Helvetica Neue" font-style="italic" font-size="32.0" fill="#73BFFF" transform="matrix(1.00, 0.00, -0.00, -1.00, 1035.8, 338.7)">s</text><text xml:space="preserve" font-family="HelveticaNeue-Italic,Helvetica Neue" font-style="italic" font-size="32.0" fill="#73BFFF" transform="matrix(1.00, 0.00, -0.00, -1.00, 1051.2, 338.7)">k</text><text xml:space="preserve" font-family="HelveticaNeue-Italic,Helvetica Neue" font-style="italic" font-size="32.0" fill="#73BFFF" transform="matrix(1.00, 0.00, -0.00, -1.00, 1066.6, 338.7)">y</text><image xlink:href="F4B6B861CE3597CA666A9C07E200DB50.png" width="802.00" height="54.00" transform="matrix(1.00, 0.00, -0.00, -1.00, 555.0, 588.0)"></image><text xml:space="preserve" font-family="HelveticaNeue-Light,Helvetica Neue" font-size="50.0" fill="#FEFFFE" transform="matrix(1.00, 0.00, -0.00, -1.00, 552.1, 551.0)">“</text><text xml:space="preserve" font-family="HelveticaNeue-Light,Helvetica Neue" font-size="50.0" fill="#FEFFFE" transform="matrix(1.00, 0.00, -0.00, -1.00, 570.6, 551.0)">C</text><text xml:space="preserve" font-family="HelveticaNeue-Light,Helvetica Neue" font-size="50.0" fill="#FEFFFE" transform="matrix(1.00, 0.00, -0.00, -1.00, 605.8, 551.0)">o</text><text xml:space="preserve" font-family="HelveticaNeue-Light,Helvetica Neue" font-size="50.0" fill="#FEFFFE" transform="matrix(1.00, 0.00, -0.00, -1.00, 633.6, 551.0)">l</text><text xml:space="preserve" font-family="HelveticaNeue-Light,Helvetica Neue" font-size="50.0" fill="#FEFFFE" transform="matrix(1.00, 0.00, -0.00, -1.00, 642.9, 551.0)">o</text><text xml:space="preserve" font-family="HelveticaNeue-Light,Helvetica Neue" font-size="50.0" fill="#FEFFFE" transform="matrix(1.00, 0.00, -0.00, -1.00, 670.6, 551.0)">r</text><text xml:space="preserve" font-family="HelveticaNeue-Light,Helvetica Neue" font-size="50.0" fill="#FEFFFE" transform="matrix(1.00, 0.00, -0.00, -1.00, 686.4, 551.0)">l</text><text xml:space="preserve" font-family="HelveticaNeue-Light,Helvetica Neue" font-size="50.0" fill="#FEFFFE" transform="matrix(1.00, 0.00, -0.00, -1.00, 695.7, 551.0)">e</text><text xml:space="preserve" font-family="HelveticaNeue-Light,Helvetica Neue" font-size="50.0" fill="#FEFFFE" transform="matrix(1.00, 0.00, -0.00, -1.00, 721.6, 551.0)">s</text><text xml:space="preserve" font-family="HelveticaNeue-Light,Helvetica Neue" font-size="50.0" fill="#FEFFFE" transform="matrix(1.00, 0.00, -0.00, -1.00, 745.7, 551.0)">s</text><text xml:space="preserve" font-family="HelveticaNeue-Light,Helvetica Neue" font-size="50.0" fill="#FEFFFE" transform="matrix(1.00, 0.00, -0.00, -1.00, 769.7, 551.0)"> </text><text xml:space="preserve" font-family="HelveticaNeue-Light,Helvetica Neue" font-size="50.0" fill="#FEFFFE" transform="matrix(1.00, 0.00, -0.00, -1.00, 783.6, 551.0)">g</text><text xml:space="preserve" font-family="HelveticaNeue-Light,Helvetica Neue" font-size="50.0" fill="#FEFFFE" transform="matrix(1.00, 0.00, -0.00, -1.00, 811.4, 551.0)">r</text><text xml:space="preserve" font-family="HelveticaNeue-Light,Helvetica Neue" font-size="50.0" fill="#FEFFFE" transform="matrix(1.00, 0.00, -0.00, -1.00, 826.2, 551.0)">e</text><text xml:space="preserve" font-family="HelveticaNeue-Light,Helvetica Neue" font-size="50.0" fill="#FEFFFE" transform="matrix(1.00, 0.00, -0.00, -1.00, 852.2, 551.0)">e</text><text xml:space="preserve" font-family="HelveticaNeue-Light,Helvetica Neue" font-size="50.0" fill="#FEFFFE" transform="matrix(1.00, 0.00, -0.00, -1.00, 878.2, 551.0)">n</text><text xml:space="preserve" font-family="HelveticaNeue-Light,Helvetica Neue" font-size="50.0" fill="#FEFFFE" transform="matrix(1.00, 0.00, -0.00, -1.00, 905.0, 551.0)"> </text><text xml:space="preserve" font-family="HelveticaNeue-Light,Helvetica Neue" font-size="50.0" fill="#FEFFFE" transform="matrix(1.00, 0.00, -0.00, -1.00, 918.9, 551.0)">i</text><text xml:space="preserve" font-family="HelveticaNeue-Light,Helvetica Neue" font-size="50.0" fill="#FEFFFE" transform="matrix(1.00, 0.00, -0.00, -1.00, 928.2, 551.0)">d</text><text xml:space="preserve" font-family="HelveticaNeue-Light,Helvetica Neue" font-size="50.0" fill="#FEFFFE" transform="matrix(1.00, 0.00, -0.00, -1.00, 956.9, 551.0)">e</text><text xml:space="preserve" font-family="HelveticaNeue-Light,Helvetica Neue" font-size="50.0" fill="#FEFFFE" transform="matrix(1.00, 0.00, -0.00, -1.00, 982.8, 551.0)">a</text><text xml:space="preserve" font-family="HelveticaNeue-Light,Helvetica Neue" font-size="50.0" fill="#FEFFFE" transform="matrix(1.00, 0.00, -0.00, -1.00, 1008.8, 551.0)">s</text><text xml:space="preserve" font-family="HelveticaNeue-Light,Helvetica Neue" font-size="50.0" fill="#FEFFFE" transform="matrix(1.00, 0.00, -0.00, -1.00, 1032.8, 551.0)"> </text><text xml:space="preserve" font-family="HelveticaNeue-Light,Helvetica Neue" font-size="50.0" fill="#FEFFFE" transform="matrix(1.00, 0.00, -0.00, -1.00, 1046.7, 551.0)">s</text><text xml:space="preserve" font-family="HelveticaNeue-Light,Helvetica Neue" font-size="50.0" fill="#FEFFFE" transform="matrix(1.00, 0.00, -0.00, -1.00, 1070.8, 551.0)">l</text><text xml:space="preserve" font-family="HelveticaNeue-Light,Helvetica Neue" font-size="50.0" fill="#FEFFFE" transform="matrix(1.00, 0.00, -0.00, -1.00, 1080.0, 551.0)">e</text><text xml:space="preserve" font-family="HelveticaNeue-Light,Helvetica Neue" font-size="50.0" fill="#FEFFFE" transform="matrix(1.00, 0.00, -0.00, -1.00, 1106.0, 551.0)">e</text><text xml:space="preserve" font-family="HelveticaNeue-Light,Helvetica Neue" font-size="50.0" fill="#FEFFFE" transform="matrix(1.00, 0.00, -0.00, -1.00, 1131.9, 551.0)">p</text><text xml:space="preserve" font-family="HelveticaNeue-Light,Helvetica Neue" font-size="50.0" fill="#FEFFFE" transform="matrix(1.00, 0.00, -0.00, -1.00, 1160.6, 551.0)"> </text><text xml:space="preserve" font-family="HelveticaNeue-Light,Helvetica Neue" font-size="50.0" fill="#FEFFFE" transform="matrix(1.00, 0.00, -0.00, -1.00, 1174.5, 551.0)">f</text><text xml:space="preserve" font-family="HelveticaNeue-Light,Helvetica Neue" font-size="50.0" fill="#FEFFFE" transform="matrix(1.00, 0.00, -0.00, -1.00, 1187.5, 551.0)">u</text><text xml:space="preserve" font-family="HelveticaNeue-Light,Helvetica Neue" font-size="50.0" fill="#FEFFFE" transform="matrix(1.00, 0.00, -0.00, -1.00, 1214.3, 551.0)">r</text><text xml:space="preserve" font-family="HelveticaNeue-Light,Helvetica Neue" font-size="50.0" fill="#FEFFFE" transform="matrix(1.00, 0.00, -0.00, -1.00, 1230.1, 551.0)">i</text><text xml:space="preserve" font-family="HelveticaNeue-Light,Helvetica Neue" font-size="50.0" fill="#FEFFFE" transform="matrix(1.00, 0.00, -0.00, -1.00, 1239.3, 551.0)">o</text><text xml:space="preserve" font-family="HelveticaNeue-Light,Helvetica Neue" font-size="50.0" fill="#FEFFFE" transform="matrix(1.00, 0.00, -0.00, -1.00, 1267.1, 551.0)">u</text><text xml:space="preserve" font-family="HelveticaNeue-Light,Helvetica Neue" font-size="50.0" fill="#FEFFFE" transform="matrix(1.00, 0.00, -0.00, -1.00, 1294.0, 551.0)">s</text><text xml:space="preserve" font-family="HelveticaNeue-Light,Helvetica Neue" font-size="50.0" fill="#FEFFFE" transform="matrix(1.00, 0.00, -0.00, -1.00, 1318.0, 551.0)">l</text><text xml:space="preserve" font-family="HelveticaNeue-Light,Helvetica Neue" font-size="50.0" fill="#FEFFFE" transform="matrix(1.00, 0.00, -0.00, -1.00, 1327.2, 551.0)">y</text><image xlink:href="8415F253B2F6A88901F0A7BC8A80FF28.png" width="17.00" height="19.00" transform="matrix(1.00, 0.00, -0.00, -1.00, 1354.0, 587.0)"></image><text xml:space="preserve" font-family="HelveticaNeue-Light,Helvetica Neue" font-size="50.0" fill="#FEFFFE" transform="matrix(1.00, 0.00, -0.00, -1.00, 1350.4, 551.0)">"</text></g></svg>