<?xml version="1.0" encoding="UTF-8" standalone="no"?><svg xmlns="http://www.w3.org/2000/svg" xmlns:xlink="http://www.w3.org/1999/xlink" clip-rule="evenodd" stroke-miterlimit="4.00" viewBox="0 0 1024 768"><desc>SVG generated by Keynote</desc><defs></defs><g transform="matrix(1.00, 0.00, -0.00, -1.00, 0.0, 768.0)"><g><clipPath id="clip-53"><path d="M 0.0 768.0 L 1024.0 768.0 L 1024.0 0.0 L 0.0 0.0 Z M 0.0 768.0 "></path></clipPath><g clip-path="url(#clip-53)"><image xlink:href="../../4D2A1B4E-BE67-478F-8487-2557E65A501D/assets/36501B0F45C9F7ED4F7A6F2DCB34D373.jpeg" width="1024.00" height="768.00" transform="matrix(1.00, 0.00, -0.00, -1.00, 0.0, 768.0)"></image></g></g><g><clipPath id="clip-54"><path d="M 511.0 719.0 L 975.0 719.0 L 975.0 48.0 L 511.0 48.0 Z M 511.0 719.0 "></path></clipPath><g clip-path="url(#clip-54)"><image xlink:href="../../4D2A1B4E-BE67-478F-8487-2557E65A501D/assets/4292B0DA503CF319243FCA9E668CED2D.jpeg" width="527.00" height="671.00" transform="matrix(1.00, 0.00, -0.00, -1.00, 479.0, 719.0)"></image></g></g><image xlink:href="../../4D2A1B4E-BE67-478F-8487-2557E65A501D/assets/F75CB5034050103CBBFD25175DB65032.png" width="466.00" height="673.00" transform="matrix(1.00, 0.00, -0.00, 1.00, 510.0, 47.0)"></image><text xml:space="preserve" font-family="Palatino-Roman" font-size="70.0" fill="#535F55" transform="matrix(1.00, 0.00, -0.00, -1.00, 78.0, 607.0)">J</text><text xml:space="preserve" font-family="Palatino-Roman" font-size="70.0" fill="#535F55" transform="matrix(1.00, 0.00, -0.00, -1.00, 101.3, 607.0)">o</text><text xml:space="preserve" font-family="Palatino-Roman" font-size="70.0" fill="#535F55" transform="matrix(1.00, 0.00, -0.00, -1.00, 139.5, 607.0)">h</text><text xml:space="preserve" font-family="Palatino-Roman" font-size="70.0" fill="#535F55" transform="matrix(1.00, 0.00, -0.00, -1.00, 180.3, 607.0)">n</text><text xml:space="preserve" font-family="Palatino-Roman" font-size="70.0" fill="#535F55" transform="matrix(1.00, 0.00, -0.00, -1.00, 221.0, 607.0)"> </text><text xml:space="preserve" font-family="Palatino-Roman" font-size="70.0" fill="#535F55" transform="matrix(1.00, 0.00, -0.00, -1.00, 238.5, 607.0)">K</text><text xml:space="preserve" font-family="Palatino-Roman" font-size="70.0" fill="#535F55" transform="matrix(1.00, 0.00, -0.00, -1.00, 289.3, 607.0)">.</text><text xml:space="preserve" font-family="Palatino-Roman" font-size="70.0" fill="#535F55" transform="matrix(1.00, 0.00, -0.00, -1.00, 306.8, 607.0)"> </text><text xml:space="preserve" font-family="Palatino-Roman" font-size="70.0" fill="#535F55" transform="matrix(1.00, 0.00, -0.00, -1.00, 324.3, 607.0)">P</text><text xml:space="preserve" font-family="Palatino-Roman" font-size="70.0" fill="#535F55" transform="matrix(1.00, 0.00, -0.00, -1.00, 366.6, 607.0)">a</text><text xml:space="preserve" font-family="Palatino-Roman" font-size="70.0" fill="#535F55" transform="matrix(1.00, 0.00, -0.00, -1.00, 401.6, 607.0)">u</text><text xml:space="preserve" font-family="Palatino-Roman" font-size="70.0" fill="#535F55" transform="matrix(1.00, 0.00, -0.00, -1.00, 443.8, 607.0)">l</text><text xml:space="preserve" font-family="Helvetica-Oblique" font-style="italic" font-size="30.4" fill="#707D74" transform="matrix(1.00, 0.00, -0.00, -1.00, 191.0, 545.0)">@</text><text xml:space="preserve" font-family="Helvetica-Oblique" font-style="italic" font-size="30.4" fill="#707D74" transform="matrix(1.00, 0.00, -0.00, -1.00, 221.9, 545.0)">j</text><text xml:space="preserve" font-family="Helvetica-Oblique" font-style="italic" font-size="30.4" fill="#707D74" transform="matrix(1.00, 0.00, -0.00, -1.00, 228.6, 545.0)">o</text><text xml:space="preserve" font-family="Helvetica-Oblique" font-style="italic" font-size="30.4" fill="#707D74" transform="matrix(1.00, 0.00, -0.00, -1.00, 245.5, 545.0)">h</text><text xml:space="preserve" font-family="Helvetica-Oblique" font-style="italic" font-size="30.4" fill="#707D74" transform="matrix(1.00, 0.00, -0.00, -1.00, 262.4, 545.0)">n</text><text xml:space="preserve" font-family="Helvetica-Oblique" font-style="italic" font-size="30.4" fill="#707D74" transform="matrix(1.00, 0.00, -0.00, -1.00, 279.4, 545.0)">k</text><text xml:space="preserve" font-family="Helvetica-Oblique" font-style="italic" font-size="30.4" fill="#707D74" transform="matrix(1.00, 0.00, -0.00, -1.00, 294.6, 545.0)">p</text><text xml:space="preserve" font-family="Helvetica-Oblique" font-style="italic" font-size="30.4" fill="#707D74" transform="matrix(1.00, 0.00, -0.00, -1.00, 311.5, 545.0)">a</text><text xml:space="preserve" font-family="Helvetica-Oblique" font-style="italic" font-size="30.4" fill="#707D74" transform="matrix(1.00, 0.00, -0.00, -1.00, 328.4, 545.0)">u</text><text xml:space="preserve" font-family="Helvetica-Oblique" font-style="italic" font-size="30.4" fill="#707D74" transform="matrix(1.00, 0.00, -0.00, -1.00, 345.3, 545.0)">l</text><g><clipPath id="clip-55"><path d="M 220.9 540.8 L 352.0 540.8 L 352.0 544.3 L 220.9 544.3 Z M 220.9 540.8 "></path></clipPath><g clip-path="url(#clip-55)"><path d="M 170.9 35.3 L 301.0 35.3 " fill="none" stroke="#707D74" stroke-width="1.50" stroke-miterlimit="0.00" transform="matrix(1.00, 0.00, 0.00, -1.00, 51.0, 577.9)"></path></g></g><image xlink:href="../../4D2A1B4E-BE67-478F-8487-2557E65A501D/assets/A9B31C56D581EE8BB993F0A9D9CD8EF1.png" width="425.00" height="35.00" transform="matrix(1.00, 0.00, -0.00, -1.03, 59.0, 515.0)"></image><image xlink:href="../../441F2FDF-F3B8-4FA8-BAF6-62F5E789AAB2/assets/95142960CE9991EB2DFDAA73D4352B34.png" width="401.00" height="339.00" transform="matrix(1.00, 0.00, -0.00, -1.00, 71.0, 446.0)"></image></g></svg>