<?xml version="1.0" encoding="UTF-8" standalone="no"?><svg xmlns="http://www.w3.org/2000/svg" xmlns:xlink="http://www.w3.org/1999/xlink" clip-rule="evenodd" stroke-miterlimit="4.00" viewBox="0 0 1024 768"><desc>SVG generated by Keynote</desc><defs></defs><g transform="matrix(1.00, 0.00, -0.00, -1.00, 0.0, 768.0)"><g><clipPath id="clip-38"><path d="M 0.0 768.0 L 1024.0 768.0 L 1024.0 0.0 L 0.0 0.0 Z M 0.0 768.0 "></path></clipPath><g clip-path="url(#clip-38)"><image xlink:href="../../838CBAF9-4396-4C15-B4D8-C1720683A872/assets/89A446CC20171F8519B02DFAA98F63CF.jpeg" width="1024.00" height="768.00" transform="matrix(1.00, 0.00, -0.00, -1.00, 0.0, 768.0)"></image></g></g><path d="M 0.0 0.0 L 980.0 0.0 L 980.0 726.0 L 0.0 726.0 Z M 0.0 0.0 " fill="none" stroke="#83817C" stroke-width="2.00" transform="matrix(1.00, 0.00, 0.00, -1.00, 22.0, 746.0)"></path><text xml:space="preserve" font-family="HelveticaNeue-Light" font-size="72.0" fill="#558AAA" transform="matrix(1.00, 0.00, -0.00, -1.00, 86.0, 623.0)">T</text><text xml:space="preserve" font-family="HelveticaNeue-Light" font-size="72.0" fill="#558AAA" transform="matrix(1.00, 0.00, -0.00, -1.00, 126.0, 623.0)">h</text><text xml:space="preserve" font-family="HelveticaNeue-Light" font-size="72.0" fill="#558AAA" transform="matrix(1.00, 0.00, -0.00, -1.00, 164.7, 623.0)">e</text><text xml:space="preserve" font-family="HelveticaNeue-Light" font-size="72.0" fill="#558AAA" transform="matrix(1.00, 0.00, -0.00, -1.00, 202.1, 623.0)"> </text><text xml:space="preserve" font-family="HelveticaNeue-Light" font-size="72.0" fill="#558AAA" transform="matrix(1.00, 0.00, -0.00, -1.00, 222.1, 623.0)">f</text><text xml:space="preserve" font-family="HelveticaNeue-Light" font-size="72.0" fill="#558AAA" transform="matrix(1.00, 0.00, -0.00, -1.00, 240.7, 623.0)">u</text><text xml:space="preserve" font-family="HelveticaNeue-Light" font-size="72.0" fill="#558AAA" transform="matrix(1.00, 0.00, -0.00, -1.00, 279.4, 623.0)">n</text><text xml:space="preserve" font-family="HelveticaNeue-Light" font-size="72.0" fill="#558AAA" transform="matrix(1.00, 0.00, -0.00, -1.00, 318.1, 623.0)"> </text><text xml:space="preserve" font-family="HelveticaNeue-Light" font-size="72.0" fill="#558AAA" transform="matrix(1.00, 0.00, -0.00, -1.00, 338.1, 623.0)">n</text><text xml:space="preserve" font-family="HelveticaNeue-Light" font-size="72.0" fill="#558AAA" transform="matrix(1.00, 0.00, -0.00, -1.00, 376.7, 623.0)">e</text><text xml:space="preserve" font-family="HelveticaNeue-Light" font-size="72.0" fill="#558AAA" transform="matrix(1.00, 0.00, -0.00, -1.00, 414.1, 623.0)">v</text><text xml:space="preserve" font-family="HelveticaNeue-Light" font-size="72.0" fill="#558AAA" transform="matrix(1.00, 0.00, -0.00, -1.00, 447.4, 623.0)">e</text><text xml:space="preserve" font-family="HelveticaNeue-Light" font-size="72.0" fill="#558AAA" transform="matrix(1.00, 0.00, -0.00, -1.00, 484.8, 623.0)">r</text><text xml:space="preserve" font-family="HelveticaNeue-Light" font-size="72.0" fill="#558AAA" transform="matrix(1.00, 0.00, -0.00, -1.00, 507.5, 623.0)"> </text><text xml:space="preserve" font-family="HelveticaNeue-Light" font-size="72.0" fill="#558AAA" transform="matrix(1.00, 0.00, -0.00, -1.00, 527.5, 623.0)">e</text><text xml:space="preserve" font-family="HelveticaNeue-Light" font-size="72.0" fill="#558AAA" transform="matrix(1.00, 0.00, -0.00, -1.00, 564.9, 623.0)">n</text><text xml:space="preserve" font-family="HelveticaNeue-Light" font-size="72.0" fill="#558AAA" transform="matrix(1.00, 0.00, -0.00, -1.00, 603.5, 623.0)">d</text><text xml:space="preserve" font-family="HelveticaNeue-Light" font-size="72.0" fill="#558AAA" transform="matrix(1.00, 0.00, -0.00, -1.00, 644.9, 623.0)">s</text><image xlink:href="../../E762732A-49A9-4B30-BB91-CCA0DC019377/assets/A7B28404DE943485B7B266E0973AD23F.png" width="720.00" height="539.00" transform="matrix(1.42, 0.00, -0.00, -1.42, 0.0, 768.0)"></image><g><clipPath id="clip-39"><path d="M 136.3 400.6 L 887.7 400.6 L 887.7 530.2 L 136.3 530.2 Z M 136.3 400.6 "></path></clipPath><g clip-path="url(#clip-39)"><text xml:space="preserve" font-family="HelveticaNeue-CondensedBold" font-weight="bold" font-size="72.0" fill="#DEDEDE" transform="matrix(1.00, 0.00, -0.00, -1.00, 158.0, 440.0)">T</text><text xml:space="preserve" font-family="HelveticaNeue-CondensedBold" font-weight="bold" font-size="72.0" fill="#DEDEDE" transform="matrix(1.00, 0.00, -0.00, -1.00, 192.6, 440.0)">H</text><text xml:space="preserve" font-family="HelveticaNeue-CondensedBold" font-weight="bold" font-size="72.0" fill="#DEDEDE" transform="matrix(1.00, 0.00, -0.00, -1.00, 232.6, 440.0)">E</text><text xml:space="preserve" font-family="HelveticaNeue-CondensedBold" font-weight="bold" font-size="72.0" fill="#DEDEDE" transform="matrix(1.00, 0.00, -0.00, -1.00, 267.2, 440.0)">R</text><text xml:space="preserve" font-family="HelveticaNeue-CondensedBold" font-weight="bold" font-size="72.0" fill="#DEDEDE" transform="matrix(1.00, 0.00, -0.00, -1.00, 307.3, 440.0)">E</text><text xml:space="preserve" font-family="HelveticaNeue-CondensedBold" font-weight="bold" font-size="72.0" fill="#DEDEDE" transform="matrix(1.00, 0.00, -0.00, -1.00, 341.9, 440.0)">’</text><text xml:space="preserve" font-family="HelveticaNeue-CondensedBold" font-weight="bold" font-size="72.0" fill="#DEDEDE" transform="matrix(1.00, 0.00, -0.00, -1.00, 360.6, 440.0)">S</text><text xml:space="preserve" font-family="HelveticaNeue-CondensedBold" font-weight="bold" font-size="72.0" fill="#DEDEDE" transform="matrix(1.00, 0.00, -0.00, -1.00, 398.0, 440.0)"> </text><text xml:space="preserve" font-family="HelveticaNeue-CondensedBold" font-weight="bold" font-size="72.0" fill="#DEDEDE" transform="matrix(1.00, 0.00, -0.00, -1.00, 415.3, 440.0)">S</text><text xml:space="preserve" font-family="HelveticaNeue-CondensedBold" font-weight="bold" font-size="72.0" fill="#DEDEDE" transform="matrix(1.00, 0.00, -0.00, -1.00, 452.6, 440.0)">O</text><text xml:space="preserve" font-family="HelveticaNeue-CondensedBold" font-weight="bold" font-size="72.0" fill="#DEDEDE" transform="matrix(1.00, 0.00, -0.00, -1.00, 492.7, 440.0)"> </text><text xml:space="preserve" font-family="HelveticaNeue-CondensedBold" font-weight="bold" font-size="72.0" fill="#DEDEDE" transform="matrix(1.00, 0.00, -0.00, -1.00, 509.9, 440.0)">M</text><text xml:space="preserve" font-family="HelveticaNeue-CondensedBold" font-weight="bold" font-size="72.0" fill="#DEDEDE" transform="matrix(1.00, 0.00, -0.00, -1.00, 563.2, 440.0)">U</text><text xml:space="preserve" font-family="HelveticaNeue-CondensedBold" font-weight="bold" font-size="72.0" fill="#DEDEDE" transform="matrix(1.00, 0.00, -0.00, -1.00, 602.0, 440.0)">C</text><text xml:space="preserve" font-family="HelveticaNeue-CondensedBold" font-weight="bold" font-size="72.0" fill="#DEDEDE" transform="matrix(1.00, 0.00, -0.00, -1.00, 640.6, 440.0)">H</text><text xml:space="preserve" font-family="HelveticaNeue-CondensedBold" font-weight="bold" font-size="72.0" fill="#DEDEDE" transform="matrix(1.00, 0.00, -0.00, -1.00, 680.6, 440.0)"> </text><text xml:space="preserve" font-family="HelveticaNeue-CondensedBold" font-weight="bold" font-size="72.0" fill="#DEDEDE" transform="matrix(1.00, 0.00, -0.00, -1.00, 697.9, 440.0)">M</text><text xml:space="preserve" font-family="HelveticaNeue-CondensedBold" font-weight="bold" font-size="72.0" fill="#DEDEDE" transform="matrix(1.00, 0.00, -0.00, -1.00, 751.2, 440.0)">O</text><text xml:space="preserve" font-family="HelveticaNeue-CondensedBold" font-weight="bold" font-size="72.0" fill="#DEDEDE" transform="matrix(1.00, 0.00, -0.00, -1.00, 791.2, 440.0)">R</text><text xml:space="preserve" font-family="HelveticaNeue-CondensedBold" font-weight="bold" font-size="72.0" fill="#DEDEDE" transform="matrix(1.00, 0.00, -0.00, -1.00, 831.3, 440.0)">E</text></g></g><g><clipPath id="clip-40"><path d="M 256.9 63.8 L 1246.5 63.8 L 1246.5 386.2 L 256.9 386.2 Z M 256.9 63.8 "></path></clipPath><g clip-path="url(#clip-40)"><text xml:space="preserve" font-family="HelveticaNeue-CondensedBold" font-weight="bold" font-size="42.0" fill="#DEDEDE" transform="matrix(1.00, 0.00, -0.00, -1.00, 269.0, 334.0)">L</text><text xml:space="preserve" font-family="HelveticaNeue-CondensedBold" font-weight="bold" font-size="42.0" fill="#DEDEDE" transform="matrix(1.00, 0.00, -0.00, -1.00, 288.4, 334.0)">I</text><text xml:space="preserve" font-family="HelveticaNeue-CondensedBold" font-weight="bold" font-size="42.0" fill="#DEDEDE" transform="matrix(1.00, 0.00, -0.00, -1.00, 299.3, 334.0)">N</text><text xml:space="preserve" font-family="HelveticaNeue-CondensedBold" font-weight="bold" font-size="42.0" fill="#DEDEDE" transform="matrix(1.00, 0.00, -0.00, -1.00, 323.4, 334.0)">T</text><text xml:space="preserve" font-family="HelveticaNeue-CondensedBold" font-weight="bold" font-size="42.0" fill="#DEDEDE" transform="matrix(1.00, 0.00, -0.00, -1.00, 343.6, 334.0)">I</text><text xml:space="preserve" font-family="HelveticaNeue-CondensedBold" font-weight="bold" font-size="42.0" fill="#DEDEDE" transform="matrix(1.00, 0.00, -0.00, -1.00, 354.4, 334.0)">N</text><text xml:space="preserve" font-family="HelveticaNeue-CondensedBold" font-weight="bold" font-size="42.0" fill="#DEDEDE" transform="matrix(1.00, 0.00, -0.00, -1.00, 378.5, 334.0)">G</text><text xml:space="preserve" font-family="HelveticaNeue-CondensedBold" font-weight="bold" font-size="42.0" fill="#DEDEDE" transform="matrix(1.00, 0.00, -0.00, -1.00, 401.8, 334.0)"> </text><text xml:space="preserve" font-family="HelveticaNeue-CondensedBold" font-weight="bold" font-size="42.0" fill="#DEDEDE" transform="matrix(1.00, 0.00, -0.00, -1.00, 269.0, 260.0)">G</text><text xml:space="preserve" font-family="HelveticaNeue-CondensedBold" font-weight="bold" font-size="42.0" fill="#DEDEDE" transform="matrix(1.00, 0.00, -0.00, -1.00, 292.4, 260.0)">I</text><text xml:space="preserve" font-family="HelveticaNeue-CondensedBold" font-weight="bold" font-size="42.0" fill="#DEDEDE" transform="matrix(1.00, 0.00, -0.00, -1.00, 303.2, 260.0)">T</text><text xml:space="preserve" font-family="HelveticaNeue-CondensedBold" font-weight="bold" font-size="42.0" fill="#DEDEDE" transform="matrix(1.00, 0.00, -0.00, -1.00, 323.3, 260.0)">H</text><text xml:space="preserve" font-family="HelveticaNeue-CondensedBold" font-weight="bold" font-size="42.0" fill="#DEDEDE" transform="matrix(1.00, 0.00, -0.00, -1.00, 346.7, 260.0)">U</text><text xml:space="preserve" font-family="HelveticaNeue-CondensedBold" font-weight="bold" font-size="42.0" fill="#DEDEDE" transform="matrix(1.00, 0.00, -0.00, -1.00, 369.3, 260.0)">B</text><text xml:space="preserve" font-family="HelveticaNeue-CondensedBold" font-weight="bold" font-size="42.0" fill="#DEDEDE" transform="matrix(1.00, 0.00, -0.00, -1.00, 392.6, 260.0)"> </text><text xml:space="preserve" font-family="HelveticaNeue-CondensedBold" font-weight="bold" font-size="42.0" fill="#DEDEDE" transform="matrix(1.00, 0.00, -0.00, -1.00, 402.7, 260.0)">P</text><text xml:space="preserve" font-family="HelveticaNeue-CondensedBold" font-weight="bold" font-size="42.0" fill="#DEDEDE" transform="matrix(1.00, 0.00, -0.00, -1.00, 423.0, 260.0)">A</text><text xml:space="preserve" font-family="HelveticaNeue-CondensedBold" font-weight="bold" font-size="42.0" fill="#DEDEDE" transform="matrix(1.00, 0.00, -0.00, -1.00, 446.3, 260.0)">G</text><text xml:space="preserve" font-family="HelveticaNeue-CondensedBold" font-weight="bold" font-size="42.0" fill="#DEDEDE" transform="matrix(1.00, 0.00, -0.00, -1.00, 469.7, 260.0)">E</text><text xml:space="preserve" font-family="HelveticaNeue-CondensedBold" font-weight="bold" font-size="42.0" fill="#DEDEDE" transform="matrix(1.00, 0.00, -0.00, -1.00, 489.9, 260.0)">S</text><text xml:space="preserve" font-family="HelveticaNeue-CondensedBold" font-weight="bold" font-size="42.0" fill="#DEDEDE" transform="matrix(1.00, 0.00, -0.00, -1.00, 511.7, 260.0)"> </text><text xml:space="preserve" font-family="HelveticaNeue-CondensedBold" font-weight="bold" font-size="42.0" fill="#DEDEDE" transform="matrix(1.00, 0.00, -0.00, -1.00, 521.8, 260.0)">I</text><text xml:space="preserve" font-family="HelveticaNeue-CondensedBold" font-weight="bold" font-size="42.0" fill="#DEDEDE" transform="matrix(1.00, 0.00, -0.00, -1.00, 532.6, 260.0)">N</text><text xml:space="preserve" font-family="HelveticaNeue-CondensedBold" font-weight="bold" font-size="42.0" fill="#DEDEDE" transform="matrix(1.00, 0.00, -0.00, -1.00, 556.7, 260.0)">T</text><text xml:space="preserve" font-family="HelveticaNeue-CondensedBold" font-weight="bold" font-size="42.0" fill="#DEDEDE" transform="matrix(1.00, 0.00, -0.00, -1.00, 576.9, 260.0)">E</text><text xml:space="preserve" font-family="HelveticaNeue-CondensedBold" font-weight="bold" font-size="42.0" fill="#DEDEDE" transform="matrix(1.00, 0.00, -0.00, -1.00, 597.1, 260.0)">G</text><text xml:space="preserve" font-family="HelveticaNeue-CondensedBold" font-weight="bold" font-size="42.0" fill="#DEDEDE" transform="matrix(1.00, 0.00, -0.00, -1.00, 620.4, 260.0)">R</text><text xml:space="preserve" font-family="HelveticaNeue-CondensedBold" font-weight="bold" font-size="42.0" fill="#DEDEDE" transform="matrix(1.00, 0.00, -0.00, -1.00, 643.8, 260.0)">A</text><text xml:space="preserve" font-family="HelveticaNeue-CondensedBold" font-weight="bold" font-size="42.0" fill="#DEDEDE" transform="matrix(1.00, 0.00, -0.00, -1.00, 664.8, 260.0)">T</text><text xml:space="preserve" font-family="HelveticaNeue-CondensedBold" font-weight="bold" font-size="42.0" fill="#DEDEDE" transform="matrix(1.00, 0.00, -0.00, -1.00, 685.0, 260.0)">I</text><text xml:space="preserve" font-family="HelveticaNeue-CondensedBold" font-weight="bold" font-size="42.0" fill="#DEDEDE" transform="matrix(1.00, 0.00, -0.00, -1.00, 695.8, 260.0)">O</text><text xml:space="preserve" font-family="HelveticaNeue-CondensedBold" font-weight="bold" font-size="42.0" fill="#DEDEDE" transform="matrix(1.00, 0.00, -0.00, -1.00, 719.2, 260.0)">N</text><text xml:space="preserve" font-family="HelveticaNeue-CondensedBold" font-weight="bold" font-size="42.0" fill="#DEDEDE" transform="matrix(1.00, 0.00, -0.00, -1.00, 743.3, 260.0)"> </text><text xml:space="preserve" font-family="HelveticaNeue-CondensedBold" font-weight="bold" font-size="42.0" fill="#DEDEDE" transform="matrix(1.00, 0.00, -0.00, -1.00, 269.0, 185.0)">G</text><text xml:space="preserve" font-family="HelveticaNeue-CondensedBold" font-weight="bold" font-size="42.0" fill="#DEDEDE" transform="matrix(1.00, 0.00, -0.00, -1.00, 292.4, 185.0)">E</text><text xml:space="preserve" font-family="HelveticaNeue-CondensedBold" font-weight="bold" font-size="42.0" fill="#DEDEDE" transform="matrix(1.00, 0.00, -0.00, -1.00, 312.6, 185.0)">N</text><text xml:space="preserve" font-family="HelveticaNeue-CondensedBold" font-weight="bold" font-size="42.0" fill="#DEDEDE" transform="matrix(1.00, 0.00, -0.00, -1.00, 336.7, 185.0)">E</text><text xml:space="preserve" font-family="HelveticaNeue-CondensedBold" font-weight="bold" font-size="42.0" fill="#DEDEDE" transform="matrix(1.00, 0.00, -0.00, -1.00, 356.9, 185.0)">R</text><text xml:space="preserve" font-family="HelveticaNeue-CondensedBold" font-weight="bold" font-size="42.0" fill="#DEDEDE" transform="matrix(1.00, 0.00, -0.00, -1.00, 380.2, 185.0)">A</text><text xml:space="preserve" font-family="HelveticaNeue-CondensedBold" font-weight="bold" font-size="42.0" fill="#DEDEDE" transform="matrix(1.00, 0.00, -0.00, -1.00, 401.3, 185.0)">T</text><text xml:space="preserve" font-family="HelveticaNeue-CondensedBold" font-weight="bold" font-size="42.0" fill="#DEDEDE" transform="matrix(1.00, 0.00, -0.00, -1.00, 421.4, 185.0)">I</text><text xml:space="preserve" font-family="HelveticaNeue-CondensedBold" font-weight="bold" font-size="42.0" fill="#DEDEDE" transform="matrix(1.00, 0.00, -0.00, -1.00, 432.3, 185.0)">N</text><text xml:space="preserve" font-family="HelveticaNeue-CondensedBold" font-weight="bold" font-size="42.0" fill="#DEDEDE" transform="matrix(1.00, 0.00, -0.00, -1.00, 456.4, 185.0)">G</text><text xml:space="preserve" font-family="HelveticaNeue-CondensedBold" font-weight="bold" font-size="42.0" fill="#DEDEDE" transform="matrix(1.00, 0.00, -0.00, -1.00, 479.7, 185.0)"> </text><text xml:space="preserve" font-family="HelveticaNeue-CondensedBold" font-weight="bold" font-size="42.0" fill="#DEDEDE" transform="matrix(1.00, 0.00, -0.00, -1.00, 489.8, 185.0)">E</text><text xml:space="preserve" font-family="HelveticaNeue-CondensedBold" font-weight="bold" font-size="42.0" fill="#DEDEDE" transform="matrix(1.00, 0.00, -0.00, -1.00, 510.0, 185.0)">V</text><text xml:space="preserve" font-family="HelveticaNeue-CondensedBold" font-weight="bold" font-size="42.0" fill="#DEDEDE" transform="matrix(1.00, 0.00, -0.00, -1.00, 531.8, 185.0)">E</text><text xml:space="preserve" font-family="HelveticaNeue-CondensedBold" font-weight="bold" font-size="42.0" fill="#DEDEDE" transform="matrix(1.00, 0.00, -0.00, -1.00, 552.0, 185.0)">R</text><text xml:space="preserve" font-family="HelveticaNeue-CondensedBold" font-weight="bold" font-size="42.0" fill="#DEDEDE" transform="matrix(1.00, 0.00, -0.00, -1.00, 574.6, 185.0)">Y</text><text xml:space="preserve" font-family="HelveticaNeue-CondensedBold" font-weight="bold" font-size="42.0" fill="#DEDEDE" transform="matrix(1.00, 0.00, -0.00, -1.00, 596.4, 185.0)">T</text><text xml:space="preserve" font-family="HelveticaNeue-CondensedBold" font-weight="bold" font-size="42.0" fill="#DEDEDE" transform="matrix(1.00, 0.00, -0.00, -1.00, 616.6, 185.0)">H</text><text xml:space="preserve" font-family="HelveticaNeue-CondensedBold" font-weight="bold" font-size="42.0" fill="#DEDEDE" transform="matrix(1.00, 0.00, -0.00, -1.00, 639.9, 185.0)">I</text><text xml:space="preserve" font-family="HelveticaNeue-CondensedBold" font-weight="bold" font-size="42.0" fill="#DEDEDE" transform="matrix(1.00, 0.00, -0.00, -1.00, 650.8, 185.0)">N</text><text xml:space="preserve" font-family="HelveticaNeue-CondensedBold" font-weight="bold" font-size="42.0" fill="#DEDEDE" transform="matrix(1.00, 0.00, -0.00, -1.00, 674.9, 185.0)">G</text><text xml:space="preserve" font-family="HelveticaNeue-CondensedBold" font-weight="bold" font-size="42.0" fill="#DEDEDE" transform="matrix(1.00, 0.00, -0.00, -1.00, 698.2, 185.0)"> </text></g></g></g></svg>