<?xml version="1.0" encoding="UTF-8" standalone="no"?><svg xmlns="http://www.w3.org/2000/svg" xmlns:xlink="http://www.w3.org/1999/xlink" clip-rule="evenodd" stroke-miterlimit="4.00" viewBox="0 0 720 418"><desc>SVG generated by Keynote</desc><defs></defs><g transform="matrix(1.00, 0.00, -0.00, -1.00, 0.0, 418.0)"><g><clipPath id="clip-36"><path d="M -15.7 304.6 L 735.7 304.6 L 735.7 434.2 L -15.7 434.2 Z M -15.7 304.6 "></path></clipPath><g clip-path="url(#clip-36)"><text xml:space="preserve" font-family="HelveticaNeue-CondensedBold" font-weight="bold" font-size="72.0" fill="#DEDEDE" transform="matrix(1.00, 0.00, -0.00, -1.00, 6.0, 344.0)">T</text><text xml:space="preserve" font-family="HelveticaNeue-CondensedBold" font-weight="bold" font-size="72.0" fill="#DEDEDE" transform="matrix(1.00, 0.00, -0.00, -1.00, 40.6, 344.0)">H</text><text xml:space="preserve" font-family="HelveticaNeue-CondensedBold" font-weight="bold" font-size="72.0" fill="#DEDEDE" transform="matrix(1.00, 0.00, -0.00, -1.00, 80.6, 344.0)">E</text><text xml:space="preserve" font-family="HelveticaNeue-CondensedBold" font-weight="bold" font-size="72.0" fill="#DEDEDE" transform="matrix(1.00, 0.00, -0.00, -1.00, 115.2, 344.0)">R</text><text xml:space="preserve" font-family="HelveticaNeue-CondensedBold" font-weight="bold" font-size="72.0" fill="#DEDEDE" transform="matrix(1.00, 0.00, -0.00, -1.00, 155.3, 344.0)">E</text><text xml:space="preserve" font-family="HelveticaNeue-CondensedBold" font-weight="bold" font-size="72.0" fill="#DEDEDE" transform="matrix(1.00, 0.00, -0.00, -1.00, 189.9, 344.0)">’</text><text xml:space="preserve" font-family="HelveticaNeue-CondensedBold" font-weight="bold" font-size="72.0" fill="#DEDEDE" transform="matrix(1.00, 0.00, -0.00, -1.00, 208.6, 344.0)">S</text><text xml:space="preserve" font-family="HelveticaNeue-CondensedBold" font-weight="bold" font-size="72.0" fill="#DEDEDE" transform="matrix(1.00, 0.00, -0.00, -1.00, 246.0, 344.0)"> </text><text xml:space="preserve" font-family="HelveticaNeue-CondensedBold" font-weight="bold" font-size="72.0" fill="#DEDEDE" transform="matrix(1.00, 0.00, -0.00, -1.00, 263.3, 344.0)">S</text><text xml:space="preserve" font-family="HelveticaNeue-CondensedBold" font-weight="bold" font-size="72.0" fill="#DEDEDE" transform="matrix(1.00, 0.00, -0.00, -1.00, 300.6, 344.0)">O</text><text xml:space="preserve" font-family="HelveticaNeue-CondensedBold" font-weight="bold" font-size="72.0" fill="#DEDEDE" transform="matrix(1.00, 0.00, -0.00, -1.00, 340.7, 344.0)"> </text><text xml:space="preserve" font-family="HelveticaNeue-CondensedBold" font-weight="bold" font-size="72.0" fill="#DEDEDE" transform="matrix(1.00, 0.00, -0.00, -1.00, 357.9, 344.0)">M</text><text xml:space="preserve" font-family="HelveticaNeue-CondensedBold" font-weight="bold" font-size="72.0" fill="#DEDEDE" transform="matrix(1.00, 0.00, -0.00, -1.00, 411.2, 344.0)">U</text><text xml:space="preserve" font-family="HelveticaNeue-CondensedBold" font-weight="bold" font-size="72.0" fill="#DEDEDE" transform="matrix(1.00, 0.00, -0.00, -1.00, 450.0, 344.0)">C</text><text xml:space="preserve" font-family="HelveticaNeue-CondensedBold" font-weight="bold" font-size="72.0" fill="#DEDEDE" transform="matrix(1.00, 0.00, -0.00, -1.00, 488.6, 344.0)">H</text><text xml:space="preserve" font-family="HelveticaNeue-CondensedBold" font-weight="bold" font-size="72.0" fill="#DEDEDE" transform="matrix(1.00, 0.00, -0.00, -1.00, 528.6, 344.0)"> </text><text xml:space="preserve" font-family="HelveticaNeue-CondensedBold" font-weight="bold" font-size="72.0" fill="#DEDEDE" transform="matrix(1.00, 0.00, -0.00, -1.00, 545.9, 344.0)">M</text><text xml:space="preserve" font-family="HelveticaNeue-CondensedBold" font-weight="bold" font-size="72.0" fill="#DEDEDE" transform="matrix(1.00, 0.00, -0.00, -1.00, 599.2, 344.0)">O</text><text xml:space="preserve" font-family="HelveticaNeue-CondensedBold" font-weight="bold" font-size="72.0" fill="#DEDEDE" transform="matrix(1.00, 0.00, -0.00, -1.00, 639.2, 344.0)">R</text><text xml:space="preserve" font-family="HelveticaNeue-CondensedBold" font-weight="bold" font-size="72.0" fill="#DEDEDE" transform="matrix(1.00, 0.00, -0.00, -1.00, 679.3, 344.0)">E</text></g></g><g><clipPath id="clip-37"><path d="M 104.9 -32.2 L 1094.5 -32.2 L 1094.5 290.2 L 104.9 290.2 Z M 104.9 -32.2 "></path></clipPath><g clip-path="url(#clip-37)"><text xml:space="preserve" font-family="HelveticaNeue-CondensedBold" font-weight="bold" font-size="42.0" fill="#DEDEDE" transform="matrix(1.00, 0.00, -0.00, -1.00, 117.0, 238.0)">L</text><text xml:space="preserve" font-family="HelveticaNeue-CondensedBold" font-weight="bold" font-size="42.0" fill="#DEDEDE" transform="matrix(1.00, 0.00, -0.00, -1.00, 136.4, 238.0)">I</text><text xml:space="preserve" font-family="HelveticaNeue-CondensedBold" font-weight="bold" font-size="42.0" fill="#DEDEDE" transform="matrix(1.00, 0.00, -0.00, -1.00, 147.3, 238.0)">N</text><text xml:space="preserve" font-family="HelveticaNeue-CondensedBold" font-weight="bold" font-size="42.0" fill="#DEDEDE" transform="matrix(1.00, 0.00, -0.00, -1.00, 171.4, 238.0)">T</text><text xml:space="preserve" font-family="HelveticaNeue-CondensedBold" font-weight="bold" font-size="42.0" fill="#DEDEDE" transform="matrix(1.00, 0.00, -0.00, -1.00, 191.6, 238.0)">I</text><text xml:space="preserve" font-family="HelveticaNeue-CondensedBold" font-weight="bold" font-size="42.0" fill="#DEDEDE" transform="matrix(1.00, 0.00, -0.00, -1.00, 202.4, 238.0)">N</text><text xml:space="preserve" font-family="HelveticaNeue-CondensedBold" font-weight="bold" font-size="42.0" fill="#DEDEDE" transform="matrix(1.00, 0.00, -0.00, -1.00, 226.5, 238.0)">G</text><text xml:space="preserve" font-family="HelveticaNeue-CondensedBold" font-weight="bold" font-size="42.0" fill="#DEDEDE" transform="matrix(1.00, 0.00, -0.00, -1.00, 249.8, 238.0)"> </text><text xml:space="preserve" font-family="HelveticaNeue-CondensedBold" font-weight="bold" font-size="42.0" fill="#DEDEDE" transform="matrix(1.00, 0.00, -0.00, -1.00, 117.0, 164.0)">G</text><text xml:space="preserve" font-family="HelveticaNeue-CondensedBold" font-weight="bold" font-size="42.0" fill="#DEDEDE" transform="matrix(1.00, 0.00, -0.00, -1.00, 140.4, 164.0)">I</text><text xml:space="preserve" font-family="HelveticaNeue-CondensedBold" font-weight="bold" font-size="42.0" fill="#DEDEDE" transform="matrix(1.00, 0.00, -0.00, -1.00, 151.2, 164.0)">T</text><text xml:space="preserve" font-family="HelveticaNeue-CondensedBold" font-weight="bold" font-size="42.0" fill="#DEDEDE" transform="matrix(1.00, 0.00, -0.00, -1.00, 171.3, 164.0)">H</text><text xml:space="preserve" font-family="HelveticaNeue-CondensedBold" font-weight="bold" font-size="42.0" fill="#DEDEDE" transform="matrix(1.00, 0.00, -0.00, -1.00, 194.7, 164.0)">U</text><text xml:space="preserve" font-family="HelveticaNeue-CondensedBold" font-weight="bold" font-size="42.0" fill="#DEDEDE" transform="matrix(1.00, 0.00, -0.00, -1.00, 217.3, 164.0)">B</text><text xml:space="preserve" font-family="HelveticaNeue-CondensedBold" font-weight="bold" font-size="42.0" fill="#DEDEDE" transform="matrix(1.00, 0.00, -0.00, -1.00, 240.6, 164.0)"> </text><text xml:space="preserve" font-family="HelveticaNeue-CondensedBold" font-weight="bold" font-size="42.0" fill="#DEDEDE" transform="matrix(1.00, 0.00, -0.00, -1.00, 250.7, 164.0)">P</text><text xml:space="preserve" font-family="HelveticaNeue-CondensedBold" font-weight="bold" font-size="42.0" fill="#DEDEDE" transform="matrix(1.00, 0.00, -0.00, -1.00, 271.0, 164.0)">A</text><text xml:space="preserve" font-family="HelveticaNeue-CondensedBold" font-weight="bold" font-size="42.0" fill="#DEDEDE" transform="matrix(1.00, 0.00, -0.00, -1.00, 294.3, 164.0)">G</text><text xml:space="preserve" font-family="HelveticaNeue-CondensedBold" font-weight="bold" font-size="42.0" fill="#DEDEDE" transform="matrix(1.00, 0.00, -0.00, -1.00, 317.7, 164.0)">E</text><text xml:space="preserve" font-family="HelveticaNeue-CondensedBold" font-weight="bold" font-size="42.0" fill="#DEDEDE" transform="matrix(1.00, 0.00, -0.00, -1.00, 337.9, 164.0)">S</text><text xml:space="preserve" font-family="HelveticaNeue-CondensedBold" font-weight="bold" font-size="42.0" fill="#DEDEDE" transform="matrix(1.00, 0.00, -0.00, -1.00, 359.7, 164.0)"> </text><text xml:space="preserve" font-family="HelveticaNeue-CondensedBold" font-weight="bold" font-size="42.0" fill="#DEDEDE" transform="matrix(1.00, 0.00, -0.00, -1.00, 369.8, 164.0)">I</text><text xml:space="preserve" font-family="HelveticaNeue-CondensedBold" font-weight="bold" font-size="42.0" fill="#DEDEDE" transform="matrix(1.00, 0.00, -0.00, -1.00, 380.6, 164.0)">N</text><text xml:space="preserve" font-family="HelveticaNeue-CondensedBold" font-weight="bold" font-size="42.0" fill="#DEDEDE" transform="matrix(1.00, 0.00, -0.00, -1.00, 404.7, 164.0)">T</text><text xml:space="preserve" font-family="HelveticaNeue-CondensedBold" font-weight="bold" font-size="42.0" fill="#DEDEDE" transform="matrix(1.00, 0.00, -0.00, -1.00, 424.9, 164.0)">E</text><text xml:space="preserve" font-family="HelveticaNeue-CondensedBold" font-weight="bold" font-size="42.0" fill="#DEDEDE" transform="matrix(1.00, 0.00, -0.00, -1.00, 445.1, 164.0)">G</text><text xml:space="preserve" font-family="HelveticaNeue-CondensedBold" font-weight="bold" font-size="42.0" fill="#DEDEDE" transform="matrix(1.00, 0.00, -0.00, -1.00, 468.4, 164.0)">R</text><text xml:space="preserve" font-family="HelveticaNeue-CondensedBold" font-weight="bold" font-size="42.0" fill="#DEDEDE" transform="matrix(1.00, 0.00, -0.00, -1.00, 491.8, 164.0)">A</text><text xml:space="preserve" font-family="HelveticaNeue-CondensedBold" font-weight="bold" font-size="42.0" fill="#DEDEDE" transform="matrix(1.00, 0.00, -0.00, -1.00, 512.8, 164.0)">T</text><text xml:space="preserve" font-family="HelveticaNeue-CondensedBold" font-weight="bold" font-size="42.0" fill="#DEDEDE" transform="matrix(1.00, 0.00, -0.00, -1.00, 533.0, 164.0)">I</text><text xml:space="preserve" font-family="HelveticaNeue-CondensedBold" font-weight="bold" font-size="42.0" fill="#DEDEDE" transform="matrix(1.00, 0.00, -0.00, -1.00, 543.8, 164.0)">O</text><text xml:space="preserve" font-family="HelveticaNeue-CondensedBold" font-weight="bold" font-size="42.0" fill="#DEDEDE" transform="matrix(1.00, 0.00, -0.00, -1.00, 567.2, 164.0)">N</text><text xml:space="preserve" font-family="HelveticaNeue-CondensedBold" font-weight="bold" font-size="42.0" fill="#DEDEDE" transform="matrix(1.00, 0.00, -0.00, -1.00, 591.3, 164.0)"> </text><text xml:space="preserve" font-family="HelveticaNeue-CondensedBold" font-weight="bold" font-size="42.0" fill="#DEDEDE" transform="matrix(1.00, 0.00, -0.00, -1.00, 117.0, 89.0)">G</text><text xml:space="preserve" font-family="HelveticaNeue-CondensedBold" font-weight="bold" font-size="42.0" fill="#DEDEDE" transform="matrix(1.00, 0.00, -0.00, -1.00, 140.4, 89.0)">E</text><text xml:space="preserve" font-family="HelveticaNeue-CondensedBold" font-weight="bold" font-size="42.0" fill="#DEDEDE" transform="matrix(1.00, 0.00, -0.00, -1.00, 160.6, 89.0)">N</text><text xml:space="preserve" font-family="HelveticaNeue-CondensedBold" font-weight="bold" font-size="42.0" fill="#DEDEDE" transform="matrix(1.00, 0.00, -0.00, -1.00, 184.7, 89.0)">E</text><text xml:space="preserve" font-family="HelveticaNeue-CondensedBold" font-weight="bold" font-size="42.0" fill="#DEDEDE" transform="matrix(1.00, 0.00, -0.00, -1.00, 204.9, 89.0)">R</text><text xml:space="preserve" font-family="HelveticaNeue-CondensedBold" font-weight="bold" font-size="42.0" fill="#DEDEDE" transform="matrix(1.00, 0.00, -0.00, -1.00, 228.2, 89.0)">A</text><text xml:space="preserve" font-family="HelveticaNeue-CondensedBold" font-weight="bold" font-size="42.0" fill="#DEDEDE" transform="matrix(1.00, 0.00, -0.00, -1.00, 249.3, 89.0)">T</text><text xml:space="preserve" font-family="HelveticaNeue-CondensedBold" font-weight="bold" font-size="42.0" fill="#DEDEDE" transform="matrix(1.00, 0.00, -0.00, -1.00, 269.4, 89.0)">I</text><text xml:space="preserve" font-family="HelveticaNeue-CondensedBold" font-weight="bold" font-size="42.0" fill="#DEDEDE" transform="matrix(1.00, 0.00, -0.00, -1.00, 280.3, 89.0)">N</text><text xml:space="preserve" font-family="HelveticaNeue-CondensedBold" font-weight="bold" font-size="42.0" fill="#DEDEDE" transform="matrix(1.00, 0.00, -0.00, -1.00, 304.4, 89.0)">G</text><text xml:space="preserve" font-family="HelveticaNeue-CondensedBold" font-weight="bold" font-size="42.0" fill="#DEDEDE" transform="matrix(1.00, 0.00, -0.00, -1.00, 327.7, 89.0)"> </text><text xml:space="preserve" font-family="HelveticaNeue-CondensedBold" font-weight="bold" font-size="42.0" fill="#DEDEDE" transform="matrix(1.00, 0.00, -0.00, -1.00, 337.8, 89.0)">E</text><text xml:space="preserve" font-family="HelveticaNeue-CondensedBold" font-weight="bold" font-size="42.0" fill="#DEDEDE" transform="matrix(1.00, 0.00, -0.00, -1.00, 358.0, 89.0)">V</text><text xml:space="preserve" font-family="HelveticaNeue-CondensedBold" font-weight="bold" font-size="42.0" fill="#DEDEDE" transform="matrix(1.00, 0.00, -0.00, -1.00, 379.8, 89.0)">E</text><text xml:space="preserve" font-family="HelveticaNeue-CondensedBold" font-weight="bold" font-size="42.0" fill="#DEDEDE" transform="matrix(1.00, 0.00, -0.00, -1.00, 400.0, 89.0)">R</text><text xml:space="preserve" font-family="HelveticaNeue-CondensedBold" font-weight="bold" font-size="42.0" fill="#DEDEDE" transform="matrix(1.00, 0.00, -0.00, -1.00, 422.6, 89.0)">Y</text><text xml:space="preserve" font-family="HelveticaNeue-CondensedBold" font-weight="bold" font-size="42.0" fill="#DEDEDE" transform="matrix(1.00, 0.00, -0.00, -1.00, 444.4, 89.0)">T</text><text xml:space="preserve" font-family="HelveticaNeue-CondensedBold" font-weight="bold" font-size="42.0" fill="#DEDEDE" transform="matrix(1.00, 0.00, -0.00, -1.00, 464.6, 89.0)">H</text><text xml:space="preserve" font-family="HelveticaNeue-CondensedBold" font-weight="bold" font-size="42.0" fill="#DEDEDE" transform="matrix(1.00, 0.00, -0.00, -1.00, 487.9, 89.0)">I</text><text xml:space="preserve" font-family="HelveticaNeue-CondensedBold" font-weight="bold" font-size="42.0" fill="#DEDEDE" transform="matrix(1.00, 0.00, -0.00, -1.00, 498.8, 89.0)">N</text><text xml:space="preserve" font-family="HelveticaNeue-CondensedBold" font-weight="bold" font-size="42.0" fill="#DEDEDE" transform="matrix(1.00, 0.00, -0.00, -1.00, 522.9, 89.0)">G</text><text xml:space="preserve" font-family="HelveticaNeue-CondensedBold" font-weight="bold" font-size="42.0" fill="#DEDEDE" transform="matrix(1.00, 0.00, -0.00, -1.00, 546.2, 89.0)"> </text></g></g></g></svg>