<?xml version="1.0" encoding="UTF-8" standalone="no"?><svg xmlns="http://www.w3.org/2000/svg" xmlns:xlink="http://www.w3.org/1999/xlink" clip-rule="evenodd" stroke-miterlimit="4.00" viewBox="0 0 170 42"><desc>SVG generated by Keynote</desc><defs></defs><g transform="matrix(1.00, 0.00, -0.00, -1.00, 0.0, 42.0)"><text xml:space="preserve" font-family="Helvetica-Oblique" font-style="italic" font-size="32.0" fill="#707D74" transform="matrix(1.00, 0.00, -0.00, -1.00, -3.0, 11.0)">@</text><text xml:space="preserve" font-family="Helvetica-Oblique" font-style="italic" font-size="32.0" fill="#707D74" transform="matrix(1.00, 0.00, -0.00, -1.00, 29.5, 11.0)">j</text><text xml:space="preserve" font-family="Helvetica-Oblique" font-style="italic" font-size="32.0" fill="#707D74" transform="matrix(1.00, 0.00, -0.00, -1.00, 36.6, 11.0)">o</text><text xml:space="preserve" font-family="Helvetica-Oblique" font-style="italic" font-size="32.0" fill="#707D74" transform="matrix(1.00, 0.00, -0.00, -1.00, 54.4, 11.0)">h</text><text xml:space="preserve" font-family="Helvetica-Oblique" font-style="italic" font-size="32.0" fill="#707D74" transform="matrix(1.00, 0.00, -0.00, -1.00, 72.2, 11.0)">n</text><text xml:space="preserve" font-family="Helvetica-Oblique" font-style="italic" font-size="32.0" fill="#707D74" transform="matrix(1.00, 0.00, -0.00, -1.00, 90.0, 11.0)">k</text><text xml:space="preserve" font-family="Helvetica-Oblique" font-style="italic" font-size="32.0" fill="#707D74" transform="matrix(1.00, 0.00, -0.00, -1.00, 106.0, 11.0)">p</text><text xml:space="preserve" font-family="Helvetica-Oblique" font-style="italic" font-size="32.0" fill="#707D74" transform="matrix(1.00, 0.00, -0.00, -1.00, 123.8, 11.0)">a</text><text xml:space="preserve" font-family="Helvetica-Oblique" font-style="italic" font-size="32.0" fill="#707D74" transform="matrix(1.00, 0.00, -0.00, -1.00, 141.6, 11.0)">u</text><text xml:space="preserve" font-family="Helvetica-Oblique" font-style="italic" font-size="32.0" fill="#707D74" transform="matrix(1.00, 0.00, -0.00, -1.00, 159.4, 11.0)">l</text><g><clipPath id="clip-48"><path d="M 28.2 7.1 L 166.2 7.1 L 166.2 10.7 L 28.2 10.7 Z M 28.2 7.1 "></path></clipPath><g clip-path="url(#clip-48)"><path d="M 168.2 37.1 L 305.2 37.1 " fill="none" stroke="#707D74" stroke-width="1.58" stroke-miterlimit="0.00" transform="matrix(1.00, 0.00, 0.00, -1.00, -139.0, 46.0)"></path></g></g></g></svg>