<?xml version="1.0" encoding="UTF-8" standalone="no"?><svg xmlns="http://www.w3.org/2000/svg" xmlns:xlink="http://www.w3.org/1999/xlink" clip-rule="evenodd" stroke-miterlimit="10" viewBox="0 0 1920 1080"><desc>SVG generated by Keynote</desc><defs></defs><g transform="matrix(1.00, 0.00, -0.00, -1.00, 0.0, 1080.0)"><g><clipPath id="clip0x600001ca0600"><path d="M 0.0 1080.0 L 1920.0 1080.0 L 1920.0 0.0 L 0.0 0.0 Z M 0.0 1080.0 "></path></clipPath><g clip-path="url(#clip0x600001ca0600)"><image xlink:href="../../8532EDA3-03AF-4F95-ADCC-1003E38AE155/assets/0F43D2572F34A9AFB59E4515ED9A1249.jpeg" width="3840.00" height="2160.00" transform="matrix(0.50, 0.00, -0.00, -0.50, 0.0, 1080.0)"></image></g></g><g><clipPath id="clip0x6000022ac180"><path d="M 1037.0 994.0 L 1787.0 994.0 L 1787.0 88.0 L 1037.0 88.0 Z M 1037.0 994.0 "></path></clipPath><g clip-path="url(#clip0x6000022ac180)"><image xlink:href="../../FC600657-7DA3-4622-B65E-F7518FC85524/assets/55F639F3D869F69DEF501B13785C3535.png" width="385.00" height="691.00" transform="matrix(1.31, 0.00, -0.00, -1.31, 1160.0, 994.0)"></image></g></g><image xlink:href="../../FC600657-7DA3-4622-B65E-F7518FC85524/assets/11D80A13AB1384E91E6C4E7486797E6D.png" width="780.00" height="938.00" transform="matrix(1.00, 0.00, -0.00, 1.00, 1022.0, 71.0)"></image><image xlink:href="../../FC600657-7DA3-4622-B65E-F7518FC85524/assets/E2C284414C95552D142613D5ED7730E2.png" width="378.00" height="101.00" transform="matrix(1.00, 0.00, -0.00, -1.00, 308.0, 889.0)"></image><text xml:space="preserve" font-family="HelveticaNeue-Light,Helvetica Neue" font-size="100.0" fill="#FEFFFE" transform="matrix(1.00, 0.00, -0.00, -1.00, 305.7, 816.2)">D</text><text xml:space="preserve" font-family="HelveticaNeue-Light,Helvetica Neue" font-size="100.0" fill="#FEFFFE" transform="matrix(1.00, 0.00, -0.00, -1.00, 374.2, 816.2)">u</text><text xml:space="preserve" font-family="HelveticaNeue-Light,Helvetica Neue" font-size="100.0" fill="#FEFFFE" transform="matrix(1.00, 0.00, -0.00, -1.00, 427.9, 816.2)">o</text><text xml:space="preserve" font-family="HelveticaNeue-Light,Helvetica Neue" font-size="100.0" fill="#FEFFFE" transform="matrix(1.00, 0.00, -0.00, -1.00, 483.5, 816.2)">l</text><text xml:space="preserve" font-family="HelveticaNeue-Light,Helvetica Neue" font-size="100.0" fill="#FEFFFE" transform="matrix(1.00, 0.00, -0.00, -1.00, 502.0, 816.2)">i</text><text xml:space="preserve" font-family="HelveticaNeue-Light,Helvetica Neue" font-size="100.0" fill="#FEFFFE" transform="matrix(1.00, 0.00, -0.00, -1.00, 520.5, 816.2)">n</text><text xml:space="preserve" font-family="HelveticaNeue-Light,Helvetica Neue" font-size="100.0" fill="#FEFFFE" transform="matrix(1.00, 0.00, -0.00, -1.00, 574.2, 816.2)">g</text><text xml:space="preserve" font-family="HelveticaNeue-Light,Helvetica Neue" font-size="100.0" fill="#FEFFFE" transform="matrix(1.00, 0.00, -0.00, -1.00, 629.8, 816.2)">o</text><image xlink:href="../../74353619-56C6-4DDD-8DE1-E288A540A1EE/assets/82C0113D2ACBCCCE66493A2D55392CCF.png" width="490.00" height="735.00" transform="matrix(0.95, 0.00, -0.00, -0.95, 263.0, 747.0)"></image></g></svg>