<?xml version="1.0" encoding="UTF-8" standalone="no"?><svg xmlns="http://www.w3.org/2000/svg" xmlns:xlink="http://www.w3.org/1999/xlink" clip-rule="evenodd" stroke-miterlimit="10" viewBox="0 0 151 42"><desc>SVG generated by Keynote</desc><defs></defs><g transform="matrix(1.00, 0.00, -0.00, -1.00, 0.0, 42.0)"><text xml:space="preserve" font-family="HoeflerText-Italic,Hoefler Text" font-style="italic" font-size="32.0" fill="#707D74" transform="matrix(1.00, 0.00, -0.00, -1.00, -0.4, 12.9)">@</text><text xml:space="preserve" font-family="HoeflerText-Italic,Hoefler Text" font-style="italic" font-size="32.0" fill="#707D74" transform="matrix(1.00, 0.00, -0.00, -1.00, 24.0, 12.9)">j</text><text xml:space="preserve" font-family="HoeflerText-Italic,Hoefler Text" font-style="italic" font-size="32.0" fill="#707D74" transform="matrix(1.00, 0.00, -0.00, -1.00, 34.1, 12.9)">o</text><text xml:space="preserve" font-family="HoeflerText-Italic,Hoefler Text" font-style="italic" font-size="32.0" fill="#707D74" transform="matrix(1.00, 0.00, -0.00, -1.00, 47.5, 12.9)">h</text><text xml:space="preserve" font-family="HoeflerText-Italic,Hoefler Text" font-style="italic" font-size="32.0" fill="#707D74" transform="matrix(1.00, 0.00, -0.00, -1.00, 63.2, 12.9)">n</text><text xml:space="preserve" font-family="HoeflerText-Italic,Hoefler Text" font-style="italic" font-size="32.0" fill="#707D74" transform="matrix(1.00, 0.00, -0.00, -1.00, 78.6, 12.9)">k</text><text xml:space="preserve" font-family="HoeflerText-Italic,Hoefler Text" font-style="italic" font-size="32.0" fill="#707D74" transform="matrix(1.00, 0.00, -0.00, -1.00, 93.6, 12.9)">p</text><text xml:space="preserve" font-family="HoeflerText-Italic,Hoefler Text" font-style="italic" font-size="32.0" fill="#707D74" transform="matrix(1.00, 0.00, -0.00, -1.00, 108.3, 12.9)">a</text><text xml:space="preserve" font-family="HoeflerText-Italic,Hoefler Text" font-style="italic" font-size="32.0" fill="#707D74" transform="matrix(1.00, 0.00, -0.00, -1.00, 123.1, 12.9)">u</text><text xml:space="preserve" font-family="HoeflerText-Italic,Hoefler Text" font-style="italic" font-size="32.0" fill="#707D74" transform="matrix(1.00, 0.00, -0.00, -1.00, 138.8, 12.9)">l</text><g><clipPath id="clip0x600000ea5220"><path d="M 23.0 7.1 L 147.4 7.1 L 147.4 11.2 L 23.0 11.2 Z M 23.0 7.1 "></path></clipPath><g clip-path="url(#clip0x600000ea5220)"><path d="M 171.0 36.9 L 294.4 36.9 " fill="none" stroke="#707D74" stroke-width="2.13" transform="matrix(1.00, 0.00, 0.00, -1.00, -147.0, 46.0)"></path></g></g></g></svg>