<?xml version="1.0" encoding="UTF-8" standalone="no"?><svg xmlns="http://www.w3.org/2000/svg" xmlns:xlink="http://www.w3.org/1999/xlink" clip-rule="evenodd" stroke-miterlimit="10" viewBox="0 0 388 70"><desc>SVG generated by Keynote</desc><defs></defs><g transform="matrix(1.00, 0.00, -0.00, -1.00, 0.0, 70.0)"><text xml:space="preserve" font-family="Palatino-Roman,Palatino" font-size="70.0" fill="#535F55" transform="matrix(1.00, 0.00, -0.00, -1.00, 2.4, 14.4)">J</text><text xml:space="preserve" font-family="Palatino-Roman,Palatino" font-size="70.0" fill="#535F55" transform="matrix(1.00, 0.00, -0.00, -1.00, 25.7, 14.4)">o</text><text xml:space="preserve" font-family="Palatino-Roman,Palatino" font-size="70.0" fill="#535F55" transform="matrix(1.00, 0.00, -0.00, -1.00, 63.9, 14.4)">h</text><text xml:space="preserve" font-family="Palatino-Roman,Palatino" font-size="70.0" fill="#535F55" transform="matrix(1.00, 0.00, -0.00, -1.00, 104.7, 14.4)">n</text><text xml:space="preserve" font-family="Palatino-Roman,Palatino" font-size="70.0" fill="#535F55" transform="matrix(1.00, 0.00, -0.00, -1.00, 145.4, 14.4)"> </text><text xml:space="preserve" font-family="Palatino-Roman,Palatino" font-size="70.0" fill="#535F55" transform="matrix(1.00, 0.00, -0.00, -1.00, 162.9, 14.4)">K</text><text xml:space="preserve" font-family="Palatino-Roman,Palatino" font-size="70.0" fill="#535F55" transform="matrix(1.00, 0.00, -0.00, -1.00, 213.7, 14.4)">.</text><text xml:space="preserve" font-family="Palatino-Roman,Palatino" font-size="70.0" fill="#535F55" transform="matrix(1.00, 0.00, -0.00, -1.00, 231.2, 14.4)"> </text><text xml:space="preserve" font-family="Palatino-Roman,Palatino" font-size="70.0" fill="#535F55" transform="matrix(1.00, 0.00, -0.00, -1.00, 248.7, 14.4)">P</text><text xml:space="preserve" font-family="Palatino-Roman,Palatino" font-size="70.0" fill="#535F55" transform="matrix(1.00, 0.00, -0.00, -1.00, 291.0, 14.4)">a</text><text xml:space="preserve" font-family="Palatino-Roman,Palatino" font-size="70.0" fill="#535F55" transform="matrix(1.00, 0.00, -0.00, -1.00, 326.0, 14.4)">u</text><text xml:space="preserve" font-family="Palatino-Roman,Palatino" font-size="70.0" fill="#535F55" transform="matrix(1.00, 0.00, -0.00, -1.00, 368.2, 14.4)">l</text></g></svg>