<?xml version="1.0" encoding="UTF-8" standalone="no"?><svg xmlns="http://www.w3.org/2000/svg" xmlns:xlink="http://www.w3.org/1999/xlink" clip-rule="evenodd" stroke-miterlimit="10" viewBox="0 0 360 34"><desc>SVG generated by Keynote</desc><defs></defs><g transform="matrix(1.00, 0.00, -0.00, -1.00, 0.0, 34.0)"><path d="M 1.0 32.0 L 359.0 32.0 L 359.0 1.0 L 1.0 1.0 Z M 1.2 32.1 " fill="#FEFFFE"></path><g><clipPath id="clip0x600000ea33c0"><path d="M 0.5 0.5 L 359.7 0.5 L 359.7 32.8 L 0.5 32.8 Z M 0.5 0.5 "></path></clipPath><g clip-path="url(#clip0x600000ea33c0)"><text xml:space="preserve" font-family="Palatino-Roman,Palatino" font-size="17.0" fill="#535F55" transform="matrix(1.00, 0.00, -0.00, -1.00, 5.7, 9.9)">R</text><text xml:space="preserve" font-family="Palatino-Roman,Palatino" font-size="17.0" fill="#535F55" transform="matrix(1.00, 0.00, -0.00, -1.00, 17.0, 9.9)">e</text><text xml:space="preserve" font-family="Palatino-Roman,Palatino" font-size="17.0" fill="#535F55" transform="matrix(1.00, 0.00, -0.00, -1.00, 25.2, 9.9)">a</text><text xml:space="preserve" font-family="Palatino-Roman,Palatino" font-size="17.0" fill="#535F55" transform="matrix(1.00, 0.00, -0.00, -1.00, 33.7, 9.9)">c</text><text xml:space="preserve" font-family="Palatino-Roman,Palatino" font-size="17.0" fill="#535F55" transform="matrix(1.00, 0.00, -0.00, -1.00, 41.2, 9.9)">t</text><text xml:space="preserve" font-family="Palatino-Roman,Palatino" font-size="17.0" fill="#535F55" transform="matrix(1.00, 0.00, -0.00, -1.00, 46.8, 9.9)"> </text><text xml:space="preserve" font-family="Palatino-Roman,Palatino" font-size="17.0" fill="#535F55" transform="matrix(1.00, 0.00, -0.00, -1.00, 51.0, 9.9)">i</text><text xml:space="preserve" font-family="Palatino-Roman,Palatino" font-size="17.0" fill="#535F55" transform="matrix(1.00, 0.00, -0.00, -1.00, 56.0, 9.9)">s</text><text xml:space="preserve" font-family="Palatino-Roman,Palatino" font-size="17.0" fill="#535F55" transform="matrix(1.00, 0.00, -0.00, -1.00, 63.2, 9.9)"> </text><text xml:space="preserve" font-family="Palatino-Roman,Palatino" font-size="17.0" fill="#535F55" transform="matrix(1.00, 0.00, -0.00, -1.00, 67.4, 9.9)">“</text><text xml:space="preserve" font-family="Palatino-Roman,Palatino" font-size="17.0" fill="#535F55" transform="matrix(1.00, 0.00, -0.00, -1.00, 75.9, 9.9)">f</text><text xml:space="preserve" font-family="Palatino-Roman,Palatino" font-size="17.0" fill="#535F55" transform="matrix(1.00, 0.00, -0.00, -1.00, 81.6, 9.9)">u</text><text xml:space="preserve" font-family="Palatino-Roman,Palatino" font-size="17.0" fill="#535F55" transform="matrix(1.00, 0.00, -0.00, -1.00, 91.8, 9.9)">n</text><text xml:space="preserve" font-family="Palatino-Roman,Palatino" font-size="17.0" fill="#535F55" transform="matrix(1.00, 0.00, -0.00, -1.00, 101.7, 9.9)">c</text><text xml:space="preserve" font-family="Palatino-Roman,Palatino" font-size="17.0" fill="#535F55" transform="matrix(1.00, 0.00, -0.00, -1.00, 109.3, 9.9)">t</text><text xml:space="preserve" font-family="Palatino-Roman,Palatino" font-size="17.0" fill="#535F55" transform="matrix(1.00, 0.00, -0.00, -1.00, 114.8, 9.9)">i</text><text xml:space="preserve" font-family="Palatino-Roman,Palatino" font-size="17.0" fill="#535F55" transform="matrix(1.00, 0.00, -0.00, -1.00, 119.8, 9.9)">o</text><text xml:space="preserve" font-family="Palatino-Roman,Palatino" font-size="17.0" fill="#535F55" transform="matrix(1.00, 0.00, -0.00, -1.00, 129.0, 9.9)">n</text><text xml:space="preserve" font-family="Palatino-Roman,Palatino" font-size="17.0" fill="#535F55" transform="matrix(1.00, 0.00, -0.00, -1.00, 138.9, 9.9)">a</text><text xml:space="preserve" font-family="Palatino-Roman,Palatino" font-size="17.0" fill="#535F55" transform="matrix(1.00, 0.00, -0.00, -1.00, 147.4, 9.9)">l</text><text xml:space="preserve" font-family="Palatino-Roman,Palatino" font-size="17.0" fill="#535F55" transform="matrix(1.00, 0.00, -0.00, -1.00, 152.4, 9.9)">”</text><text xml:space="preserve" font-family="Palatino-Roman,Palatino" font-size="17.0" fill="#535F55" transform="matrix(1.00, 0.00, -0.00, -1.00, 160.9, 9.9)"> </text><text xml:space="preserve" font-family="Palatino-Roman,Palatino" font-size="17.0" fill="#535F55" transform="matrix(1.00, 0.00, -0.00, -1.00, 165.1, 9.9)">|</text><text xml:space="preserve" font-family="Palatino-Roman,Palatino" font-size="17.0" fill="#535F55" transform="matrix(1.00, 0.00, -0.00, -1.00, 175.4, 9.9)"> </text><text xml:space="preserve" font-family="Palatino-Roman,Palatino" font-size="17.0" fill="#535F55" transform="matrix(1.00, 0.00, -0.00, -1.00, 179.7, 9.9)">@</text><text xml:space="preserve" font-family="Palatino-Roman,Palatino" font-size="17.0" fill="#535F55" transform="matrix(1.00, 0.00, -0.00, -1.00, 192.4, 9.9)">j</text><text xml:space="preserve" font-family="Palatino-Roman,Palatino" font-size="17.0" fill="#535F55" transform="matrix(1.00, 0.00, -0.00, -1.00, 196.4, 9.9)">o</text><text xml:space="preserve" font-family="Palatino-Roman,Palatino" font-size="17.0" fill="#535F55" transform="matrix(1.00, 0.00, -0.00, -1.00, 205.6, 9.9)">h</text><text xml:space="preserve" font-family="Palatino-Roman,Palatino" font-size="17.0" fill="#535F55" transform="matrix(1.00, 0.00, -0.00, -1.00, 215.5, 9.9)">n</text><text xml:space="preserve" font-family="Palatino-Roman,Palatino" font-size="17.0" fill="#535F55" transform="matrix(1.00, 0.00, -0.00, -1.00, 225.4, 9.9)">k</text><text xml:space="preserve" font-family="Palatino-Roman,Palatino" font-size="17.0" fill="#535F55" transform="matrix(1.00, 0.00, -0.00, -1.00, 234.9, 9.9)">p</text><text xml:space="preserve" font-family="Palatino-Roman,Palatino" font-size="17.0" fill="#535F55" transform="matrix(1.00, 0.00, -0.00, -1.00, 245.1, 9.9)">a</text><text xml:space="preserve" font-family="Palatino-Roman,Palatino" font-size="17.0" fill="#535F55" transform="matrix(1.00, 0.00, -0.00, -1.00, 253.6, 9.9)">u</text><text xml:space="preserve" font-family="Palatino-Roman,Palatino" font-size="17.0" fill="#535F55" transform="matrix(1.00, 0.00, -0.00, -1.00, 263.9, 9.9)">l</text><text xml:space="preserve" font-family="Palatino-Roman,Palatino" font-size="17.0" fill="#535F55" transform="matrix(1.00, 0.00, -0.00, -1.00, 268.8, 9.9)"> </text><text xml:space="preserve" font-family="Palatino-Roman,Palatino" font-size="17.0" fill="#535F55" transform="matrix(1.00, 0.00, -0.00, -1.00, 273.1, 9.9)">|</text><text xml:space="preserve" font-family="Palatino-Roman,Palatino" font-size="17.0" fill="#535F55" transform="matrix(1.00, 0.00, -0.00, -1.00, 283.4, 9.9)"> </text><text xml:space="preserve" font-family="Palatino-Roman,Palatino" font-size="17.0" fill="#535F55" transform="matrix(1.00, 0.00, -0.00, -1.00, 287.6, 9.9)">N</text><text xml:space="preserve" font-family="Palatino-Roman,Palatino" font-size="17.0" fill="#535F55" transform="matrix(1.00, 0.00, -0.00, -1.00, 301.7, 9.9)">a</text><text xml:space="preserve" font-family="Palatino-Roman,Palatino" font-size="17.0" fill="#535F55" transform="matrix(1.00, 0.00, -0.00, -1.00, 310.2, 9.9)">t</text><text xml:space="preserve" font-family="Palatino-Roman,Palatino" font-size="17.0" fill="#535F55" transform="matrix(1.00, 0.00, -0.00, -1.00, 315.8, 9.9)">i</text><text xml:space="preserve" font-family="Palatino-Roman,Palatino" font-size="17.0" fill="#535F55" transform="matrix(1.00, 0.00, -0.00, -1.00, 320.7, 9.9)">o</text><text xml:space="preserve" font-family="Palatino-Roman,Palatino" font-size="17.0" fill="#535F55" transform="matrix(1.00, 0.00, -0.00, -1.00, 330.0, 9.9)">n</text><text xml:space="preserve" font-family="Palatino-Roman,Palatino" font-size="17.0" fill="#535F55" transform="matrix(1.00, 0.00, -0.00, -1.00, 339.9, 9.9)">J</text><text xml:space="preserve" font-family="Palatino-Roman,Palatino" font-size="17.0" fill="#535F55" transform="matrix(1.00, 0.00, -0.00, -1.00, 345.6, 9.9)">S</text></g></g></g></svg>