<?xml version="1.0" encoding="UTF-8" standalone="no"?><svg xmlns="http://www.w3.org/2000/svg" xmlns:xlink="http://www.w3.org/1999/xlink" clip-rule="evenodd" stroke-miterlimit="10" viewBox="0 0 144 40"><desc>SVG generated by Keynote</desc><defs></defs><g transform="matrix(1.00, 0.00, -0.00, -1.00, 0.0, 40.0)"><text xml:space="preserve" font-family="HoeflerText-Italic,Hoefler Text" font-style="italic" font-size="30.4" fill="#707D74" transform="matrix(1.00, 0.00, -0.00, -1.00, 0.3, 12.4)">@</text><text xml:space="preserve" font-family="HoeflerText-Italic,Hoefler Text" font-style="italic" font-size="30.4" fill="#707D74" transform="matrix(1.00, 0.00, -0.00, -1.00, 23.5, 12.4)">j</text><text xml:space="preserve" font-family="HoeflerText-Italic,Hoefler Text" font-style="italic" font-size="30.4" fill="#707D74" transform="matrix(1.00, 0.00, -0.00, -1.00, 33.1, 12.4)">o</text><text xml:space="preserve" font-family="HoeflerText-Italic,Hoefler Text" font-style="italic" font-size="30.4" fill="#707D74" transform="matrix(1.00, 0.00, -0.00, -1.00, 45.8, 12.4)">h</text><text xml:space="preserve" font-family="HoeflerText-Italic,Hoefler Text" font-style="italic" font-size="30.4" fill="#707D74" transform="matrix(1.00, 0.00, -0.00, -1.00, 60.7, 12.4)">n</text><text xml:space="preserve" font-family="HoeflerText-Italic,Hoefler Text" font-style="italic" font-size="30.4" fill="#707D74" transform="matrix(1.00, 0.00, -0.00, -1.00, 75.3, 12.4)">k</text><text xml:space="preserve" font-family="HoeflerText-Italic,Hoefler Text" font-style="italic" font-size="30.4" fill="#707D74" transform="matrix(1.00, 0.00, -0.00, -1.00, 89.6, 12.4)">p</text><text xml:space="preserve" font-family="HoeflerText-Italic,Hoefler Text" font-style="italic" font-size="30.4" fill="#707D74" transform="matrix(1.00, 0.00, -0.00, -1.00, 103.6, 12.4)">a</text><text xml:space="preserve" font-family="HoeflerText-Italic,Hoefler Text" font-style="italic" font-size="30.4" fill="#707D74" transform="matrix(1.00, 0.00, -0.00, -1.00, 117.7, 12.4)">u</text><text xml:space="preserve" font-family="HoeflerText-Italic,Hoefler Text" font-style="italic" font-size="30.4" fill="#707D74" transform="matrix(1.00, 0.00, -0.00, -1.00, 132.6, 12.4)">l</text><g><clipPath id="clip0x600000ea6060"><path d="M 22.5 6.5 L 140.7 6.5 L 140.7 10.7 L 22.5 10.7 Z M 22.5 6.5 "></path></clipPath><g clip-path="url(#clip0x600000ea6060)"><path d="M 173.5 35.3 L 290.7 35.3 " fill="none" stroke="#707D74" stroke-width="2.13" transform="matrix(1.00, 0.00, 0.00, -1.00, -150.0, 43.9)"></path></g></g></g></svg>