<?xml version="1.0" encoding="UTF-8" standalone="no"?><svg xmlns="http://www.w3.org/2000/svg" xmlns:xlink="http://www.w3.org/1999/xlink" clip-rule="evenodd" stroke-miterlimit="10" viewBox="0 0 370 21"><desc>SVG generated by Keynote</desc><defs></defs><g transform="matrix(1.00, 0.00, -0.00, -1.00, 0.0, 21.0)"><text xml:space="preserve" font-family="Palatino-Roman,Palatino" font-size="17.0" fill="#535F55" transform="matrix(1.00, 0.00, -0.00, -1.00, 1.9, 5.9)">R</text><text xml:space="preserve" font-family="Palatino-Roman,Palatino" font-size="17.0" fill="#535F55" transform="matrix(1.00, 0.00, -0.00, -1.00, 13.2, 5.9)">e</text><text xml:space="preserve" font-family="Palatino-Roman,Palatino" font-size="17.0" fill="#535F55" transform="matrix(1.00, 0.00, -0.00, -1.00, 21.4, 5.9)">a</text><text xml:space="preserve" font-family="Palatino-Roman,Palatino" font-size="17.0" fill="#535F55" transform="matrix(1.00, 0.00, -0.00, -1.00, 29.9, 5.9)">c</text><text xml:space="preserve" font-family="Palatino-Roman,Palatino" font-size="17.0" fill="#535F55" transform="matrix(1.00, 0.00, -0.00, -1.00, 37.4, 5.9)">t</text><text xml:space="preserve" font-family="Palatino-Roman,Palatino" font-size="17.0" fill="#535F55" transform="matrix(1.00, 0.00, -0.00, -1.00, 42.9, 5.9)"> </text><text xml:space="preserve" font-family="Palatino-Roman,Palatino" font-size="17.0" fill="#535F55" transform="matrix(1.00, 0.00, -0.00, -1.00, 47.2, 5.9)">i</text><text xml:space="preserve" font-family="Palatino-Roman,Palatino" font-size="17.0" fill="#535F55" transform="matrix(1.00, 0.00, -0.00, -1.00, 52.1, 5.9)">s</text><text xml:space="preserve" font-family="Palatino-Roman,Palatino" font-size="17.0" fill="#535F55" transform="matrix(1.00, 0.00, -0.00, -1.00, 59.3, 5.9)"> </text><text xml:space="preserve" font-family="Palatino-Roman,Palatino" font-size="17.0" fill="#535F55" transform="matrix(1.00, 0.00, -0.00, -1.00, 63.6, 5.9)">“</text><text xml:space="preserve" font-family="Palatino-Roman,Palatino" font-size="17.0" fill="#535F55" transform="matrix(1.00, 0.00, -0.00, -1.00, 72.1, 5.9)">f</text><text xml:space="preserve" font-family="Palatino-Roman,Palatino" font-size="17.0" fill="#535F55" transform="matrix(1.00, 0.00, -0.00, -1.00, 77.8, 5.9)">u</text><text xml:space="preserve" font-family="Palatino-Roman,Palatino" font-size="17.0" fill="#535F55" transform="matrix(1.00, 0.00, -0.00, -1.00, 88.0, 5.9)">n</text><text xml:space="preserve" font-family="Palatino-Roman,Palatino" font-size="17.0" fill="#535F55" transform="matrix(1.00, 0.00, -0.00, -1.00, 97.9, 5.9)">c</text><text xml:space="preserve" font-family="Palatino-Roman,Palatino" font-size="17.0" fill="#535F55" transform="matrix(1.00, 0.00, -0.00, -1.00, 105.4, 5.9)">t</text><text xml:space="preserve" font-family="Palatino-Roman,Palatino" font-size="17.0" fill="#535F55" transform="matrix(1.00, 0.00, -0.00, -1.00, 111.0, 5.9)">i</text><text xml:space="preserve" font-family="Palatino-Roman,Palatino" font-size="17.0" fill="#535F55" transform="matrix(1.00, 0.00, -0.00, -1.00, 115.9, 5.9)">o</text><text xml:space="preserve" font-family="Palatino-Roman,Palatino" font-size="17.0" fill="#535F55" transform="matrix(1.00, 0.00, -0.00, -1.00, 125.2, 5.9)">n</text><text xml:space="preserve" font-family="Palatino-Roman,Palatino" font-size="17.0" fill="#535F55" transform="matrix(1.00, 0.00, -0.00, -1.00, 135.1, 5.9)">a</text><text xml:space="preserve" font-family="Palatino-Roman,Palatino" font-size="17.0" fill="#535F55" transform="matrix(1.00, 0.00, -0.00, -1.00, 143.6, 5.9)">l</text><text xml:space="preserve" font-family="Palatino-Roman,Palatino" font-size="17.0" fill="#535F55" transform="matrix(1.00, 0.00, -0.00, -1.00, 148.6, 5.9)">”</text><text xml:space="preserve" font-family="Palatino-Roman,Palatino" font-size="17.0" fill="#535F55" transform="matrix(1.00, 0.00, -0.00, -1.00, 157.1, 5.9)"> </text><text xml:space="preserve" font-family="Palatino-Roman,Palatino" font-size="17.0" fill="#535F55" transform="matrix(1.00, 0.00, -0.00, -1.00, 161.3, 5.9)">|</text><text xml:space="preserve" font-family="Palatino-Roman,Palatino" font-size="17.0" fill="#535F55" transform="matrix(1.00, 0.00, -0.00, -1.00, 171.6, 5.9)"> </text><text xml:space="preserve" font-family="Palatino-Roman,Palatino" font-size="17.0" fill="#535F55" transform="matrix(1.00, 0.00, -0.00, -1.00, 175.9, 5.9)">@</text><text xml:space="preserve" font-family="Palatino-Roman,Palatino" font-size="17.0" fill="#535F55" transform="matrix(1.00, 0.00, -0.00, -1.00, 188.6, 5.9)">j</text><text xml:space="preserve" font-family="Palatino-Roman,Palatino" font-size="17.0" fill="#535F55" transform="matrix(1.00, 0.00, -0.00, -1.00, 192.5, 5.9)">o</text><text xml:space="preserve" font-family="Palatino-Roman,Palatino" font-size="17.0" fill="#535F55" transform="matrix(1.00, 0.00, -0.00, -1.00, 201.8, 5.9)">h</text><text xml:space="preserve" font-family="Palatino-Roman,Palatino" font-size="17.0" fill="#535F55" transform="matrix(1.00, 0.00, -0.00, -1.00, 211.7, 5.9)">n</text><text xml:space="preserve" font-family="Palatino-Roman,Palatino" font-size="17.0" fill="#535F55" transform="matrix(1.00, 0.00, -0.00, -1.00, 221.6, 5.9)">k</text><text xml:space="preserve" font-family="Palatino-Roman,Palatino" font-size="17.0" fill="#535F55" transform="matrix(1.00, 0.00, -0.00, -1.00, 231.1, 5.9)">p</text><text xml:space="preserve" font-family="Palatino-Roman,Palatino" font-size="17.0" fill="#535F55" transform="matrix(1.00, 0.00, -0.00, -1.00, 241.3, 5.9)">a</text><text xml:space="preserve" font-family="Palatino-Roman,Palatino" font-size="17.0" fill="#535F55" transform="matrix(1.00, 0.00, -0.00, -1.00, 249.8, 5.9)">u</text><text xml:space="preserve" font-family="Palatino-Roman,Palatino" font-size="17.0" fill="#535F55" transform="matrix(1.00, 0.00, -0.00, -1.00, 260.0, 5.9)">l</text><text xml:space="preserve" font-family="Palatino-Roman,Palatino" font-size="17.0" fill="#535F55" transform="matrix(1.00, 0.00, -0.00, -1.00, 265.0, 5.9)"> </text><text xml:space="preserve" font-family="Palatino-Roman,Palatino" font-size="17.0" fill="#535F55" transform="matrix(1.00, 0.00, -0.00, -1.00, 269.2, 5.9)">|</text><text xml:space="preserve" font-family="Palatino-Roman,Palatino" font-size="17.0" fill="#535F55" transform="matrix(1.00, 0.00, -0.00, -1.00, 279.5, 5.9)"> </text><text xml:space="preserve" font-family="Palatino-Roman,Palatino" font-size="17.0" fill="#535F55" transform="matrix(1.00, 0.00, -0.00, -1.00, 283.8, 5.9)">R</text><text xml:space="preserve" font-family="Palatino-Roman,Palatino" font-size="17.0" fill="#535F55" transform="matrix(1.00, 0.00, -0.00, -1.00, 295.1, 5.9)">e</text><text xml:space="preserve" font-family="Palatino-Roman,Palatino" font-size="17.0" fill="#535F55" transform="matrix(1.00, 0.00, -0.00, -1.00, 303.3, 5.9)">a</text><text xml:space="preserve" font-family="Palatino-Roman,Palatino" font-size="17.0" fill="#535F55" transform="matrix(1.00, 0.00, -0.00, -1.00, 311.8, 5.9)">c</text><text xml:space="preserve" font-family="Palatino-Roman,Palatino" font-size="17.0" fill="#535F55" transform="matrix(1.00, 0.00, -0.00, -1.00, 319.3, 5.9)">t</text><text xml:space="preserve" font-family="Palatino-Roman,Palatino" font-size="17.0" fill="#535F55" transform="matrix(1.00, 0.00, -0.00, -1.00, 324.9, 5.9)"> </text><text xml:space="preserve" font-family="Palatino-Roman,Palatino" font-size="17.0" fill="#535F55" transform="matrix(1.00, 0.00, -0.00, -1.00, 329.1, 5.9)">R</text><text xml:space="preserve" font-family="Palatino-Roman,Palatino" font-size="17.0" fill="#535F55" transform="matrix(1.00, 0.00, -0.00, -1.00, 340.5, 5.9)">a</text><text xml:space="preserve" font-family="Palatino-Roman,Palatino" font-size="17.0" fill="#535F55" transform="matrix(1.00, 0.00, -0.00, -1.00, 349.0, 5.9)">l</text><text xml:space="preserve" font-family="Palatino-Roman,Palatino" font-size="17.0" fill="#535F55" transform="matrix(1.00, 0.00, -0.00, -1.00, 353.9, 5.9)">l</text><text xml:space="preserve" font-family="Palatino-Roman,Palatino" font-size="17.0" fill="#535F55" transform="matrix(1.00, 0.00, -0.00, -1.00, 358.9, 5.9)">y</text></g></svg>