<?xml version="1.0" encoding="UTF-8" standalone="no"?><svg xmlns="http://www.w3.org/2000/svg" xmlns:xlink="http://www.w3.org/1999/xlink" clip-rule="evenodd" stroke-miterlimit="10" viewBox="0 0 96 34"><desc>SVG generated by Keynote</desc><defs></defs><g transform="matrix(1.00, 0.00, -0.00, -1.00, 0.0, 34.0)"><image xlink:href="CB30E4FC919AA7B049D2FB3021A28741.png" width="17.00" height="18.00" transform="matrix(1.00, 0.00, -0.00, -1.00, 4.0, 33.0)"></image><g><clipPath id="clip0x6080026bd760"><path d="M 4.0 15.7 L 20.2 15.7 L 20.2 32.0 L 4.0 32.0 Z M 4.0 15.7 "></path></clipPath><g clip-path="url(#clip0x6080026bd760)"><g><g><clipPath id="clip0x6080026bd8e0"><path d="M 4.0 32.0 L 20.2 32.0 L 20.2 15.7 L 4.0 15.7 Z M 4.0 32.0 "></path></clipPath><g clip-path="url(#clip0x6080026bd8e0)"><g><clipPath id="clip0x6080026bda00"><path d="M 0.0 8.0 L 25.0 8.0 L 25.0 40.0 L 0.0 40.0 Z M 0.0 8.0 "></path></clipPath><g clip-path="url(#clip0x6080026bda00)"><path d="M 20.2 28.8 C 20.2 29.5 19.9 30.2 19.2 30.9 C 18.5 31.6 17.8 32.0 16.9 32.0 C 16.6 32.0 16.0 31.8 15.2 31.4 C 14.0 30.8 12.9 30.5 12.1 30.5 C 11.1 30.5 10.1 30.8 8.9 31.4 C 8.1 31.8 7.6 32.0 7.2 32.0 C 6.4 32.0 5.7 31.7 5.0 31.0 C 4.3 30.2 4.0 29.5 4.0 28.8 C 4.0 28.4 4.2 27.8 4.6 27.0 C 5.1 25.8 5.4 24.7 5.4 23.9 C 5.4 23.0 5.1 21.9 4.6 20.7 C 4.2 19.9 4.0 19.4 4.0 19.0 C 4.0 18.2 4.3 17.5 5.0 16.8 C 5.7 16.1 6.4 15.7 7.2 15.7 C 7.6 15.7 8.1 15.9 8.9 16.3 C 10.1 16.9 11.1 17.2 12.1 17.2 C 12.9 17.2 14.0 16.9 15.2 16.3 C 16.0 15.9 16.6 15.7 16.9 15.7 C 17.8 15.7 18.5 16.1 19.2 16.8 C 19.9 17.5 20.2 18.2 20.2 19.0 C 20.2 19.4 20.0 19.9 19.6 20.7 C 19.0 21.9 18.7 23.0 18.7 23.9 C 18.7 24.7 19.0 25.8 19.6 27.0 C 20.0 27.8 20.2 28.4 20.2 28.8 " fill="#FFFFFF"></path></g></g></g></g></g></g></g><image xlink:href="96BCD7D9FF0F747D33AE9CFCCCAF1A86.png" width="44.00" height="14.00" transform="matrix(1.00, 0.00, -0.00, -1.00, 51.0, 15.0)"></image><text xml:space="preserve" font-family="HelveticaNeue-Light,Helvetica Neue" font-size="46.0" fill="#FEFFFE" transform="matrix(1.00, 0.00, -0.00, -1.00, 50.0, 8.5)">…</text></g></svg>