<?xml version="1.0" encoding="UTF-8" standalone="no"?><svg xmlns="http://www.w3.org/2000/svg" xmlns:xlink="http://www.w3.org/1999/xlink" clip-rule="evenodd" stroke-miterlimit="10" viewBox="0 0 554 53"><desc>SVG generated by Keynote</desc><defs></defs><g transform="matrix(1.00, 0.00, -0.00, -1.00, 0.0, 53.0)"><image xlink:href="1FAB921666259BE4E69356FA3B839D0C.png" width="17.00" height="17.00" transform="matrix(1.00, 0.00, -0.00, -1.00, 4.0, 41.0)"></image><g><clipPath id="clip0x6080026bcbc0"><path d="M 4.0 24.7 L 20.2 24.7 L 20.2 40.9 L 4.0 40.9 Z M 4.0 24.7 "></path></clipPath><g clip-path="url(#clip0x6080026bcbc0)"><g><g><clipPath id="clip0x6080026bcce0"><path d="M 4.0 40.9 L 20.2 40.9 L 20.2 24.7 L 4.0 24.7 Z M 4.0 40.9 "></path></clipPath><g clip-path="url(#clip0x6080026bcce0)"><g><clipPath id="clip0x6080026bce00"><path d="M 0.0 17.0 L 25.0 17.0 L 25.0 48.0 L 0.0 48.0 Z M 0.0 17.0 "></path></clipPath><g clip-path="url(#clip0x6080026bce00)"><path d="M 20.2 37.7 C 20.2 38.4 19.9 39.1 19.2 39.8 C 18.5 40.6 17.8 40.9 16.9 40.9 C 16.6 40.9 16.0 40.7 15.2 40.4 C 14.0 39.8 12.9 39.5 12.1 39.5 C 11.1 39.5 10.1 39.8 8.9 40.4 C 8.1 40.7 7.6 40.9 7.2 40.9 C 6.4 40.9 5.7 40.6 5.0 39.9 C 4.3 39.2 4.0 38.4 4.0 37.7 C 4.0 37.3 4.2 36.7 4.6 35.9 C 5.1 34.7 5.4 33.7 5.4 32.8 C 5.4 31.9 5.1 30.9 4.6 29.6 C 4.2 28.9 4.0 28.3 4.0 27.9 C 4.0 27.1 4.3 26.4 5.0 25.7 C 5.7 25.0 6.4 24.7 7.2 24.7 C 7.6 24.7 8.1 24.8 8.9 25.2 C 10.1 25.8 11.1 26.1 12.1 26.1 C 12.9 26.1 14.0 25.8 15.2 25.2 C 16.0 24.8 16.6 24.7 16.9 24.7 C 17.8 24.7 18.5 25.0 19.2 25.7 C 19.9 26.4 20.2 27.1 20.2 27.9 C 20.2 28.3 20.0 28.9 19.6 29.6 C 19.0 30.9 18.7 31.9 18.7 32.8 C 18.7 33.7 19.0 34.7 19.6 35.9 C 20.0 36.7 20.2 37.3 20.2 37.7 " fill="#FFFFFF"></path></g></g></g></g></g></g></g><image xlink:href="C7E75E2C70697E45CBEEA25EC9E6D5F3.png" width="504.00" height="51.00" transform="matrix(1.00, 0.00, -0.00, -1.00, 49.0, 52.0)"></image><text xml:space="preserve" font-family="HelveticaNeue-Light,Helvetica Neue" font-size="46.0" fill="#FEFFFE" transform="matrix(1.00, 0.00, -0.00, -1.00, 50.0, 17.5)">F</text><text xml:space="preserve" font-family="HelveticaNeue-Light,Helvetica Neue" font-size="46.0" fill="#FEFFFE" transform="matrix(1.00, 0.00, -0.00, -1.00, 74.7, 17.5)">i</text><text xml:space="preserve" font-family="HelveticaNeue-Light,Helvetica Neue" font-size="46.0" fill="#FEFFFE" transform="matrix(1.00, 0.00, -0.00, -1.00, 83.2, 17.5)">n</text><text xml:space="preserve" font-family="HelveticaNeue-Light,Helvetica Neue" font-size="46.0" fill="#FEFFFE" transform="matrix(1.00, 0.00, -0.00, -1.00, 107.9, 17.5)">e</text><text xml:space="preserve" font-family="HelveticaNeue-Light,Helvetica Neue" font-size="46.0" fill="#FEFFFE" transform="matrix(1.00, 0.00, -0.00, -1.00, 131.8, 17.5)"> </text><text xml:space="preserve" font-family="HelveticaNeue-Light,Helvetica Neue" font-size="46.0" fill="#FEFFFE" transform="matrix(1.00, 0.00, -0.00, -1.00, 144.6, 17.5)">t</text><text xml:space="preserve" font-family="HelveticaNeue-Light,Helvetica Neue" font-size="46.0" fill="#FEFFFE" transform="matrix(1.00, 0.00, -0.00, -1.00, 158.2, 17.5)">u</text><text xml:space="preserve" font-family="HelveticaNeue-Light,Helvetica Neue" font-size="46.0" fill="#FEFFFE" transform="matrix(1.00, 0.00, -0.00, -1.00, 182.9, 17.5)">n</text><text xml:space="preserve" font-family="HelveticaNeue-Light,Helvetica Neue" font-size="46.0" fill="#FEFFFE" transform="matrix(1.00, 0.00, -0.00, -1.00, 207.6, 17.5)">e</text><text xml:space="preserve" font-family="HelveticaNeue-Light,Helvetica Neue" font-size="46.0" fill="#FEFFFE" transform="matrix(1.00, 0.00, -0.00, -1.00, 231.5, 17.5)"> </text><text xml:space="preserve" font-family="HelveticaNeue-Light,Helvetica Neue" font-size="46.0" fill="#FEFFFE" transform="matrix(1.00, 0.00, -0.00, -1.00, 244.3, 17.5)">s</text><text xml:space="preserve" font-family="HelveticaNeue-Light,Helvetica Neue" font-size="46.0" fill="#FEFFFE" transform="matrix(1.00, 0.00, -0.00, -1.00, 266.4, 17.5)">y</text><text xml:space="preserve" font-family="HelveticaNeue-Light,Helvetica Neue" font-size="46.0" fill="#FEFFFE" transform="matrix(1.00, 0.00, -0.00, -1.00, 287.7, 17.5)">n</text><text xml:space="preserve" font-family="HelveticaNeue-Light,Helvetica Neue" font-size="46.0" fill="#FEFFFE" transform="matrix(1.00, 0.00, -0.00, -1.00, 312.4, 17.5)">c</text><text xml:space="preserve" font-family="HelveticaNeue-Light,Helvetica Neue" font-size="46.0" fill="#FEFFFE" transform="matrix(1.00, 0.00, -0.00, -1.00, 336.3, 17.5)">h</text><text xml:space="preserve" font-family="HelveticaNeue-Light,Helvetica Neue" font-size="46.0" fill="#FEFFFE" transform="matrix(1.00, 0.00, -0.00, -1.00, 361.0, 17.5)">r</text><text xml:space="preserve" font-family="HelveticaNeue-Light,Helvetica Neue" font-size="46.0" fill="#FEFFFE" transform="matrix(1.00, 0.00, -0.00, -1.00, 374.6, 17.5)">o</text><text xml:space="preserve" font-family="HelveticaNeue-Light,Helvetica Neue" font-size="46.0" fill="#FEFFFE" transform="matrix(1.00, 0.00, -0.00, -1.00, 400.2, 17.5)">n</text><text xml:space="preserve" font-family="HelveticaNeue-Light,Helvetica Neue" font-size="46.0" fill="#FEFFFE" transform="matrix(1.00, 0.00, -0.00, -1.00, 424.9, 17.5)">i</text><text xml:space="preserve" font-family="HelveticaNeue-Light,Helvetica Neue" font-size="46.0" fill="#FEFFFE" transform="matrix(1.00, 0.00, -0.00, -1.00, 433.4, 17.5)">z</text><text xml:space="preserve" font-family="HelveticaNeue-Light,Helvetica Neue" font-size="46.0" fill="#FEFFFE" transform="matrix(1.00, 0.00, -0.00, -1.00, 454.7, 17.5)">a</text><text xml:space="preserve" font-family="HelveticaNeue-Light,Helvetica Neue" font-size="46.0" fill="#FEFFFE" transform="matrix(1.00, 0.00, -0.00, -1.00, 478.6, 17.5)">t</text><text xml:space="preserve" font-family="HelveticaNeue-Light,Helvetica Neue" font-size="46.0" fill="#FEFFFE" transform="matrix(1.00, 0.00, -0.00, -1.00, 492.2, 17.5)">i</text><text xml:space="preserve" font-family="HelveticaNeue-Light,Helvetica Neue" font-size="46.0" fill="#FEFFFE" transform="matrix(1.00, 0.00, -0.00, -1.00, 500.7, 17.5)">o</text><text xml:space="preserve" font-family="HelveticaNeue-Light,Helvetica Neue" font-size="46.0" fill="#FEFFFE" transform="matrix(1.00, 0.00, -0.00, -1.00, 526.3, 17.5)">n</text></g></svg>