<?xml version="1.0" encoding="UTF-8" standalone="no"?><svg xmlns="http://www.w3.org/2000/svg" xmlns:xlink="http://www.w3.org/1999/xlink" clip-rule="evenodd" stroke-miterlimit="10" viewBox="0 0 206 47"><desc>SVG generated by Keynote</desc><defs></defs><g transform="matrix(1.00, 0.00, -0.00, -1.00, 0.0, 47.0)"><image xlink:href="E5C6A53C21592AD1208F8A1A30D1791C.png" width="203.00" height="44.00" transform="matrix(1.00, 0.00, -0.00, -1.00, 1.0, 45.0)"></image><text xml:space="preserve" font-family="HelveticaNeue-Light,Helvetica Neue" font-size="50.0" fill="#FEFFFE" transform="matrix(1.00, 0.00, -0.00, -1.00, -0.1, 8.5)">C</text><text xml:space="preserve" font-family="HelveticaNeue-Light,Helvetica Neue" font-size="50.0" fill="#FEFFFE" transform="matrix(1.00, 0.00, -0.00, -1.00, 35.2, 8.5)">o</text><text xml:space="preserve" font-family="HelveticaNeue-Light,Helvetica Neue" font-size="50.0" fill="#FEFFFE" transform="matrix(1.00, 0.00, -0.00, -1.00, 63.0, 8.5)">l</text><text xml:space="preserve" font-family="HelveticaNeue-Light,Helvetica Neue" font-size="50.0" fill="#FEFFFE" transform="matrix(1.00, 0.00, -0.00, -1.00, 72.2, 8.5)">o</text><text xml:space="preserve" font-family="HelveticaNeue-Light,Helvetica Neue" font-size="50.0" fill="#FEFFFE" transform="matrix(1.00, 0.00, -0.00, -1.00, 100.0, 8.5)">r</text><text xml:space="preserve" font-family="HelveticaNeue-Light,Helvetica Neue" font-size="50.0" fill="#FEFFFE" transform="matrix(1.00, 0.00, -0.00, -1.00, 115.8, 8.5)">l</text><text xml:space="preserve" font-family="HelveticaNeue-Light,Helvetica Neue" font-size="50.0" fill="#FEFFFE" transform="matrix(1.00, 0.00, -0.00, -1.00, 125.0, 8.5)">e</text><text xml:space="preserve" font-family="HelveticaNeue-Light,Helvetica Neue" font-size="50.0" fill="#FEFFFE" transform="matrix(1.00, 0.00, -0.00, -1.00, 150.9, 8.5)">s</text><text xml:space="preserve" font-family="HelveticaNeue-Light,Helvetica Neue" font-size="50.0" fill="#FEFFFE" transform="matrix(1.00, 0.00, -0.00, -1.00, 175.0, 8.5)">s</text></g></svg>