<?xml version="1.0" encoding="UTF-8" standalone="no"?><svg xmlns="http://www.w3.org/2000/svg" xmlns:xlink="http://www.w3.org/1999/xlink" clip-rule="evenodd" stroke-miterlimit="10" viewBox="0 0 1024 768"><desc>SVG generated by Keynote</desc><defs></defs><g transform="matrix(1.00, 0.00, -0.00, -1.00, 0.0, 768.0)"><g><clipPath id="clip0x6100008af060"><path d="M 0.0 768.0 L 1024.0 768.0 L 1024.0 0.0 L 0.0 0.0 Z M 0.0 768.0 "></path></clipPath><g clip-path="url(#clip0x6100008af060)"><image xlink:href="../../8532EDA3-03AF-4F95-ADCC-1003E38AE155/assets/3B74C7A20D96CA1FC5403CB9FFDFC0BB.jpeg" width="2048.00" height="1536.00" transform="matrix(0.50, 0.00, -0.00, -0.50, 0.0, 768.0)"></image></g></g><g><clipPath id="clip0x600000ea96c0"><path d="M 0.0 768.0 L 1024.0 768.0 L 1024.0 0.0 L 0.0 0.0 Z M 0.0 768.0 "></path></clipPath><g clip-path="url(#clip0x600000ea96c0)"><image xlink:href="../../0719EB9D-A553-416F-AA04-826279622F76/assets/BFB816A29A8F9D16910103F547A6F4F8.png" width="2448.00" height="2448.00" transform="matrix(0.42, 0.00, -0.00, -0.42, 0.0, 806.0)"></image></g></g><path d="M 107.0 661.0 L 970.0 661.0 L 970.0 288.0 L 107.0 288.0 Z M 107.0 661.3 " fill="#76AF6D"></path><g><clipPath id="clip0x6100008af2a0"><path d="M 91.8 288.3 L 985.3 288.3 L 985.3 661.3 L 91.8 661.3 Z M 91.8 288.3 "></path></clipPath><g clip-path="url(#clip0x6100008af2a0)"><text xml:space="preserve" font-family="Palatino-Roman,Palatino" font-size="70.0" fill="#535F55" transform="matrix(1.00, 0.00, -0.00, -1.00, 366.9, 447.8)">Q</text><text xml:space="preserve" font-family="Palatino-Roman,Palatino" font-size="70.0" fill="#535F55" transform="matrix(1.00, 0.00, -0.00, -1.00, 421.9, 447.8)">u</text><text xml:space="preserve" font-family="Palatino-Roman,Palatino" font-size="70.0" fill="#535F55" transform="matrix(1.00, 0.00, -0.00, -1.00, 464.1, 447.8)">e</text><text xml:space="preserve" font-family="Palatino-Roman,Palatino" font-size="70.0" fill="#535F55" transform="matrix(1.00, 0.00, -0.00, -1.00, 497.6, 447.8)">s</text><text xml:space="preserve" font-family="Palatino-Roman,Palatino" font-size="70.0" fill="#535F55" transform="matrix(1.00, 0.00, -0.00, -1.00, 527.3, 447.8)">t</text><text xml:space="preserve" font-family="Palatino-Roman,Palatino" font-size="70.0" fill="#535F55" transform="matrix(1.00, 0.00, -0.00, -1.00, 550.1, 447.8)">i</text><text xml:space="preserve" font-family="Palatino-Roman,Palatino" font-size="70.0" fill="#535F55" transform="matrix(1.00, 0.00, -0.00, -1.00, 570.5, 447.8)">o</text><text xml:space="preserve" font-family="Palatino-Roman,Palatino" font-size="70.0" fill="#535F55" transform="matrix(1.00, 0.00, -0.00, -1.00, 608.7, 447.8)">n</text><text xml:space="preserve" font-family="Palatino-Roman,Palatino" font-size="70.0" fill="#535F55" transform="matrix(1.00, 0.00, -0.00, -1.00, 649.4, 447.8)">s</text><text xml:space="preserve" font-family="Palatino-Roman,Palatino" font-size="70.0" fill="#535F55" transform="matrix(1.00, 0.00, -0.00, -1.00, 679.1, 447.8)">?</text></g></g></g></svg>