<?xml version="1.0" encoding="UTF-8" standalone="no"?><svg xmlns="http://www.w3.org/2000/svg" xmlns:xlink="http://www.w3.org/1999/xlink" clip-rule="evenodd" stroke-miterlimit="10" viewBox="0 0 1024 768"><desc>SVG generated by Keynote</desc><defs><pattern id="FB184904-0C0D-4F7E-A84E-92F4CAC17E3F" patternUnits="userSpaceOnUse" width="350" height="350" viewBox="0 0 350 350"><image xlink:href="A7131D65E20627498CE9C467F5554F17.png" width="350.00" height="350.00"></image></pattern><pattern id="CA644641-3705-4F95-A9F5-B748B8FA6A9A" patternUnits="userSpaceOnUse" width="350" height="350" viewBox="0 0 350 350"><image xlink:href="../../D307BDC3-8BF7-411E-A2AE-233F6C31A926/assets/A7131D65E20627498CE9C467F5554F17.png" width="350.00" height="350.00"></image></pattern></defs><g transform="matrix(1.00, 0.00, -0.00, -1.00, 0.0, 768.0)"><g><clipPath id="clip0x6000008a88e0"><path d="M 0.0 768.0 L 1024.0 768.0 L 1024.0 0.0 L 0.0 0.0 Z M 0.0 768.0 "></path></clipPath><g clip-path="url(#clip0x6000008a88e0)"><image xlink:href="../../8532EDA3-03AF-4F95-ADCC-1003E38AE155/assets/3B74C7A20D96CA1FC5403CB9FFDFC0BB.jpeg" width="2048.00" height="1536.00" transform="matrix(0.50, 0.00, -0.00, -0.50, 0.0, 768.0)"></image></g></g><path d="M 5.0 32.0 L 363.0 32.0 L 363.0 1.0 L 5.0 1.0 Z M 5.2 32.1 " fill="#FEFFFE"></path><g><clipPath id="clip0x6100004a6060"><path d="M 4.5 0.5 L 363.7 0.5 L 363.7 32.8 L 4.5 32.8 Z M 4.5 0.5 "></path></clipPath><g clip-path="url(#clip0x6100004a6060)"><text xml:space="preserve" font-family="Palatino-Roman,Palatino" font-size="17.0" fill="#535F55" transform="matrix(1.00, 0.00, -0.00, -1.00, 9.7, 9.9)">R</text><text xml:space="preserve" font-family="Palatino-Roman,Palatino" font-size="17.0" fill="#535F55" transform="matrix(1.00, 0.00, -0.00, -1.00, 21.0, 9.9)">e</text><text xml:space="preserve" font-family="Palatino-Roman,Palatino" font-size="17.0" fill="#535F55" transform="matrix(1.00, 0.00, -0.00, -1.00, 29.2, 9.9)">a</text><text xml:space="preserve" font-family="Palatino-Roman,Palatino" font-size="17.0" fill="#535F55" transform="matrix(1.00, 0.00, -0.00, -1.00, 37.7, 9.9)">c</text><text xml:space="preserve" font-family="Palatino-Roman,Palatino" font-size="17.0" fill="#535F55" transform="matrix(1.00, 0.00, -0.00, -1.00, 45.2, 9.9)">t</text><text xml:space="preserve" font-family="Palatino-Roman,Palatino" font-size="17.0" fill="#535F55" transform="matrix(1.00, 0.00, -0.00, -1.00, 50.8, 9.9)"> </text><text xml:space="preserve" font-family="Palatino-Roman,Palatino" font-size="17.0" fill="#535F55" transform="matrix(1.00, 0.00, -0.00, -1.00, 55.0, 9.9)">i</text><text xml:space="preserve" font-family="Palatino-Roman,Palatino" font-size="17.0" fill="#535F55" transform="matrix(1.00, 0.00, -0.00, -1.00, 60.0, 9.9)">s</text><text xml:space="preserve" font-family="Palatino-Roman,Palatino" font-size="17.0" fill="#535F55" transform="matrix(1.00, 0.00, -0.00, -1.00, 67.2, 9.9)"> </text><text xml:space="preserve" font-family="Palatino-Roman,Palatino" font-size="17.0" fill="#535F55" transform="matrix(1.00, 0.00, -0.00, -1.00, 71.4, 9.9)">“</text><text xml:space="preserve" font-family="Palatino-Roman,Palatino" font-size="17.0" fill="#535F55" transform="matrix(1.00, 0.00, -0.00, -1.00, 79.9, 9.9)">f</text><text xml:space="preserve" font-family="Palatino-Roman,Palatino" font-size="17.0" fill="#535F55" transform="matrix(1.00, 0.00, -0.00, -1.00, 85.6, 9.9)">u</text><text xml:space="preserve" font-family="Palatino-Roman,Palatino" font-size="17.0" fill="#535F55" transform="matrix(1.00, 0.00, -0.00, -1.00, 95.8, 9.9)">n</text><text xml:space="preserve" font-family="Palatino-Roman,Palatino" font-size="17.0" fill="#535F55" transform="matrix(1.00, 0.00, -0.00, -1.00, 105.7, 9.9)">c</text><text xml:space="preserve" font-family="Palatino-Roman,Palatino" font-size="17.0" fill="#535F55" transform="matrix(1.00, 0.00, -0.00, -1.00, 113.3, 9.9)">t</text><text xml:space="preserve" font-family="Palatino-Roman,Palatino" font-size="17.0" fill="#535F55" transform="matrix(1.00, 0.00, -0.00, -1.00, 118.8, 9.9)">i</text><text xml:space="preserve" font-family="Palatino-Roman,Palatino" font-size="17.0" fill="#535F55" transform="matrix(1.00, 0.00, -0.00, -1.00, 123.8, 9.9)">o</text><text xml:space="preserve" font-family="Palatino-Roman,Palatino" font-size="17.0" fill="#535F55" transform="matrix(1.00, 0.00, -0.00, -1.00, 133.0, 9.9)">n</text><text xml:space="preserve" font-family="Palatino-Roman,Palatino" font-size="17.0" fill="#535F55" transform="matrix(1.00, 0.00, -0.00, -1.00, 142.9, 9.9)">a</text><text xml:space="preserve" font-family="Palatino-Roman,Palatino" font-size="17.0" fill="#535F55" transform="matrix(1.00, 0.00, -0.00, -1.00, 151.4, 9.9)">l</text><text xml:space="preserve" font-family="Palatino-Roman,Palatino" font-size="17.0" fill="#535F55" transform="matrix(1.00, 0.00, -0.00, -1.00, 156.4, 9.9)">”</text><text xml:space="preserve" font-family="Palatino-Roman,Palatino" font-size="17.0" fill="#535F55" transform="matrix(1.00, 0.00, -0.00, -1.00, 164.9, 9.9)"> </text><text xml:space="preserve" font-family="Palatino-Roman,Palatino" font-size="17.0" fill="#535F55" transform="matrix(1.00, 0.00, -0.00, -1.00, 169.1, 9.9)">|</text><text xml:space="preserve" font-family="Palatino-Roman,Palatino" font-size="17.0" fill="#535F55" transform="matrix(1.00, 0.00, -0.00, -1.00, 179.4, 9.9)"> </text><text xml:space="preserve" font-family="Palatino-Roman,Palatino" font-size="17.0" fill="#535F55" transform="matrix(1.00, 0.00, -0.00, -1.00, 183.7, 9.9)">@</text><text xml:space="preserve" font-family="Palatino-Roman,Palatino" font-size="17.0" fill="#535F55" transform="matrix(1.00, 0.00, -0.00, -1.00, 196.4, 9.9)">j</text><text xml:space="preserve" font-family="Palatino-Roman,Palatino" font-size="17.0" fill="#535F55" transform="matrix(1.00, 0.00, -0.00, -1.00, 200.4, 9.9)">o</text><text xml:space="preserve" font-family="Palatino-Roman,Palatino" font-size="17.0" fill="#535F55" transform="matrix(1.00, 0.00, -0.00, -1.00, 209.6, 9.9)">h</text><text xml:space="preserve" font-family="Palatino-Roman,Palatino" font-size="17.0" fill="#535F55" transform="matrix(1.00, 0.00, -0.00, -1.00, 219.5, 9.9)">n</text><text xml:space="preserve" font-family="Palatino-Roman,Palatino" font-size="17.0" fill="#535F55" transform="matrix(1.00, 0.00, -0.00, -1.00, 229.4, 9.9)">k</text><text xml:space="preserve" font-family="Palatino-Roman,Palatino" font-size="17.0" fill="#535F55" transform="matrix(1.00, 0.00, -0.00, -1.00, 238.9, 9.9)">p</text><text xml:space="preserve" font-family="Palatino-Roman,Palatino" font-size="17.0" fill="#535F55" transform="matrix(1.00, 0.00, -0.00, -1.00, 249.1, 9.9)">a</text><text xml:space="preserve" font-family="Palatino-Roman,Palatino" font-size="17.0" fill="#535F55" transform="matrix(1.00, 0.00, -0.00, -1.00, 257.6, 9.9)">u</text><text xml:space="preserve" font-family="Palatino-Roman,Palatino" font-size="17.0" fill="#535F55" transform="matrix(1.00, 0.00, -0.00, -1.00, 267.9, 9.9)">l</text><text xml:space="preserve" font-family="Palatino-Roman,Palatino" font-size="17.0" fill="#535F55" transform="matrix(1.00, 0.00, -0.00, -1.00, 272.8, 9.9)"> </text><text xml:space="preserve" font-family="Palatino-Roman,Palatino" font-size="17.0" fill="#535F55" transform="matrix(1.00, 0.00, -0.00, -1.00, 277.1, 9.9)">|</text><text xml:space="preserve" font-family="Palatino-Roman,Palatino" font-size="17.0" fill="#535F55" transform="matrix(1.00, 0.00, -0.00, -1.00, 287.4, 9.9)"> </text><text xml:space="preserve" font-family="Palatino-Roman,Palatino" font-size="17.0" fill="#535F55" transform="matrix(1.00, 0.00, -0.00, -1.00, 291.6, 9.9)">N</text><text xml:space="preserve" font-family="Palatino-Roman,Palatino" font-size="17.0" fill="#535F55" transform="matrix(1.00, 0.00, -0.00, -1.00, 305.7, 9.9)">a</text><text xml:space="preserve" font-family="Palatino-Roman,Palatino" font-size="17.0" fill="#535F55" transform="matrix(1.00, 0.00, -0.00, -1.00, 314.2, 9.9)">t</text><text xml:space="preserve" font-family="Palatino-Roman,Palatino" font-size="17.0" fill="#535F55" transform="matrix(1.00, 0.00, -0.00, -1.00, 319.8, 9.9)">i</text><text xml:space="preserve" font-family="Palatino-Roman,Palatino" font-size="17.0" fill="#535F55" transform="matrix(1.00, 0.00, -0.00, -1.00, 324.7, 9.9)">o</text><text xml:space="preserve" font-family="Palatino-Roman,Palatino" font-size="17.0" fill="#535F55" transform="matrix(1.00, 0.00, -0.00, -1.00, 334.0, 9.9)">n</text><text xml:space="preserve" font-family="Palatino-Roman,Palatino" font-size="17.0" fill="#535F55" transform="matrix(1.00, 0.00, -0.00, -1.00, 343.9, 9.9)">J</text><text xml:space="preserve" font-family="Palatino-Roman,Palatino" font-size="17.0" fill="#535F55" transform="matrix(1.00, 0.00, -0.00, -1.00, 349.6, 9.9)">S</text></g></g><text xml:space="preserve" font-family="Palatino-Roman,Palatino" font-size="70.0" fill="#535F55" transform="matrix(1.00, 0.00, -0.00, -1.00, 207.5, 632.4)">S</text><text xml:space="preserve" font-family="Palatino-Roman,Palatino" font-size="70.0" fill="#535F55" transform="matrix(1.00, 0.00, -0.00, -1.00, 244.2, 632.4)">p</text><text xml:space="preserve" font-family="Palatino-Roman,Palatino" font-size="70.0" fill="#535F55" transform="matrix(1.00, 0.00, -0.00, -1.00, 286.3, 632.4)">o</text><text xml:space="preserve" font-family="Palatino-Roman,Palatino" font-size="70.0" fill="#535F55" transform="matrix(1.00, 0.00, -0.00, -1.00, 324.5, 632.4)">t</text><text xml:space="preserve" font-family="Palatino-Roman,Palatino" font-size="70.0" fill="#535F55" transform="matrix(1.00, 0.00, -0.00, -1.00, 347.4, 632.4)"> </text><text xml:space="preserve" font-family="Palatino-Roman,Palatino" font-size="70.0" fill="#535F55" transform="matrix(1.00, 0.00, -0.00, -1.00, 364.9, 632.4)">t</text><text xml:space="preserve" font-family="Palatino-Roman,Palatino" font-size="70.0" fill="#535F55" transform="matrix(1.00, 0.00, -0.00, -1.00, 387.7, 632.4)">h</text><text xml:space="preserve" font-family="Palatino-Roman,Palatino" font-size="70.0" fill="#535F55" transform="matrix(1.00, 0.00, -0.00, -1.00, 428.5, 632.4)">e</text><text xml:space="preserve" font-family="Palatino-Roman,Palatino" font-size="70.0" fill="#535F55" transform="matrix(1.00, 0.00, -0.00, -1.00, 462.0, 632.4)"> </text><text xml:space="preserve" font-family="Palatino-Roman,Palatino" font-size="70.0" fill="#535F55" transform="matrix(1.00, 0.00, -0.00, -1.00, 479.5, 632.4)">d</text><text xml:space="preserve" font-family="Palatino-Roman,Palatino" font-size="70.0" fill="#535F55" transform="matrix(1.00, 0.00, -0.00, -1.00, 522.2, 632.4)">i</text><text xml:space="preserve" font-family="Palatino-Roman,Palatino" font-size="70.0" fill="#535F55" transform="matrix(1.00, 0.00, -0.00, -1.00, 542.6, 632.4)">f</text><text xml:space="preserve" font-family="Palatino-Roman,Palatino" font-size="70.0" fill="#535F55" transform="matrix(1.00, 0.00, -0.00, -1.00, 564.7, 632.4)">f</text><text xml:space="preserve" font-family="Palatino-Roman,Palatino" font-size="70.0" fill="#535F55" transform="matrix(1.00, 0.00, -0.00, -1.00, 588.0, 632.4)">e</text><text xml:space="preserve" font-family="Palatino-Roman,Palatino" font-size="70.0" fill="#535F55" transform="matrix(1.00, 0.00, -0.00, -1.00, 621.5, 632.4)">r</text><text xml:space="preserve" font-family="Palatino-Roman,Palatino" font-size="70.0" fill="#535F55" transform="matrix(1.00, 0.00, -0.00, -1.00, 648.0, 632.4)">e</text><text xml:space="preserve" font-family="Palatino-Roman,Palatino" font-size="70.0" fill="#535F55" transform="matrix(1.00, 0.00, -0.00, -1.00, 681.5, 632.4)">n</text><text xml:space="preserve" font-family="Palatino-Roman,Palatino" font-size="70.0" fill="#535F55" transform="matrix(1.00, 0.00, -0.00, -1.00, 722.2, 632.4)">c</text><text xml:space="preserve" font-family="Palatino-Roman,Palatino" font-size="70.0" fill="#535F55" transform="matrix(1.00, 0.00, -0.00, -1.00, 753.3, 632.4)">e</text><text xml:space="preserve" font-family="Palatino-Roman,Palatino" font-size="70.0" fill="#535F55" transform="matrix(1.00, 0.00, -0.00, -1.00, 786.8, 632.4)">s</text><text xml:space="preserve" font-family="Palatino-Roman,Palatino" font-size="70.0" fill="#535F55" transform="matrix(1.00, 0.00, -0.00, -1.00, 816.5, 632.4)"> </text><g><clipPath id="clip0x6080004aa260"><path d="M 50.5 574.5 L 973.5 574.5 L 973.5 78.5 L 50.5 78.5 Z M 50.5 574.5 "></path></clipPath><g clip-path="url(#clip0x6080004aa260)"><g><clipPath id="clip0x6080004b6f80"><path d="M 51.0 574.0 L 512.0 574.0 L 512.0 523.0 L 51.0 523.0 Z M 51.0 574.0 "></path></clipPath><g clip-path="url(#clip0x6080004b6f80)"><path d="M 51.0 523.0 L 512.0 523.0 L 512.0 574.0 L 51.0 574.0 Z M 51.0 523.0 " fill="url(#FB184904-0C0D-4F7E-A84E-92F4CAC17E3F)"></path></g></g></g></g><g><clipPath id="clip0x6100006bf560"><path d="M 50.5 574.5 L 973.5 574.5 L 973.5 78.5 L 50.5 78.5 Z M 50.5 574.5 "></path></clipPath><g clip-path="url(#clip0x6100006bf560)"><g><clipPath id="clip0x6100006bf6e0"><path d="M 512.0 574.0 L 973.0 574.0 L 973.0 523.0 L 512.0 523.0 Z M 512.0 574.0 "></path></clipPath><g clip-path="url(#clip0x6100006bf6e0)"><path d="M 512.0 523.0 L 973.0 523.0 L 973.0 574.0 L 512.0 574.0 Z M 512.0 523.0 " fill="url(#CA644641-3705-4F95-A9F5-B748B8FA6A9A)"></path></g></g></g></g><g><clipPath id="clip0x6000006be3c0"><path d="M 50.5 574.5 L 973.5 574.5 L 973.5 78.5 L 50.5 78.5 Z M 50.5 574.5 "></path></clipPath><g clip-path="url(#clip0x6000006be3c0)"><g><clipPath id="clip0x600000ca7080"><path d="M 51.5 523.5 L 511.5 523.5 L 511.5 573.5 L 51.5 573.5 Z M 51.5 523.5 "></path></clipPath><g clip-path="url(#clip0x600000ca7080)"><text xml:space="preserve" font-family="Palatino-Bold,Palatino" font-weight="bold" font-size="32.0" fill="#F5F5EA" transform="matrix(1.00, 0.00, -0.00, -1.00, 234.4, 536.4)">S</text><text xml:space="preserve" font-family="Palatino-Bold,Palatino" font-weight="bold" font-size="32.0" fill="#F5F5EA" transform="matrix(1.00, 0.00, -0.00, -1.00, 253.9, 536.4)">e</text><text xml:space="preserve" font-family="Palatino-Bold,Palatino" font-weight="bold" font-size="32.0" fill="#F5F5EA" transform="matrix(1.00, 0.00, -0.00, -1.00, 269.9, 536.4)">r</text><text xml:space="preserve" font-family="Palatino-Bold,Palatino" font-weight="bold" font-size="32.0" fill="#F5F5EA" transform="matrix(1.00, 0.00, -0.00, -1.00, 282.4, 536.4)">v</text><text xml:space="preserve" font-family="Palatino-Bold,Palatino" font-weight="bold" font-size="32.0" fill="#F5F5EA" transform="matrix(1.00, 0.00, -0.00, -1.00, 300.2, 536.4)">e</text><text xml:space="preserve" font-family="Palatino-Bold,Palatino" font-weight="bold" font-size="32.0" fill="#F5F5EA" transform="matrix(1.00, 0.00, -0.00, -1.00, 316.2, 536.4)">r</text></g></g></g></g><g><clipPath id="clip0x600000caace0"><path d="M 50.5 574.5 L 973.5 574.5 L 973.5 78.5 L 50.5 78.5 Z M 50.5 574.5 "></path></clipPath><g clip-path="url(#clip0x600000caace0)"><g><clipPath id="clip0x600000caae60"><path d="M 512.5 523.5 L 972.5 523.5 L 972.5 573.5 L 512.5 573.5 Z M 512.5 523.5 "></path></clipPath><g clip-path="url(#clip0x600000caae60)"><text xml:space="preserve" font-family="Palatino-Bold,Palatino" font-weight="bold" font-size="32.0" fill="#F5F5EA" transform="matrix(1.00, 0.00, -0.00, -1.00, 697.2, 536.4)">C</text><text xml:space="preserve" font-family="Palatino-Bold,Palatino" font-weight="bold" font-size="32.0" fill="#F5F5EA" transform="matrix(1.00, 0.00, -0.00, -1.00, 720.3, 536.4)">l</text><text xml:space="preserve" font-family="Palatino-Bold,Palatino" font-weight="bold" font-size="32.0" fill="#F5F5EA" transform="matrix(1.00, 0.00, -0.00, -1.00, 731.0, 536.4)">i</text><text xml:space="preserve" font-family="Palatino-Bold,Palatino" font-weight="bold" font-size="32.0" fill="#F5F5EA" transform="matrix(1.00, 0.00, -0.00, -1.00, 741.6, 536.4)">e</text><text xml:space="preserve" font-family="Palatino-Bold,Palatino" font-weight="bold" font-size="32.0" fill="#F5F5EA" transform="matrix(1.00, 0.00, -0.00, -1.00, 757.6, 536.4)">n</text><text xml:space="preserve" font-family="Palatino-Bold,Palatino" font-weight="bold" font-size="32.0" fill="#F5F5EA" transform="matrix(1.00, 0.00, -0.00, -1.00, 777.2, 536.4)">t</text></g></g></g></g><g><clipPath id="clip0x600000cab280"><path d="M 50.5 574.5 L 973.5 574.5 L 973.5 78.5 L 50.5 78.5 Z M 50.5 574.5 "></path></clipPath><g clip-path="url(#clip0x600000cab280)"><g><clipPath id="clip0x600000cab400"><path d="M 51.5 301.5 L 511.5 301.5 L 511.5 522.5 L 51.5 522.5 Z M 51.5 301.5 "></path></clipPath><g clip-path="url(#clip0x600000cab400)"><text xml:space="preserve" font-family="Palatino-Bold,Palatino" font-weight="bold" font-size="30.0" fill="#7B867F" transform="matrix(1.00, 0.00, -0.00, -1.00, 205.3, 399.8)">S</text><text xml:space="preserve" font-family="Palatino-Bold,Palatino" font-weight="bold" font-size="30.0" fill="#7B867F" transform="matrix(1.00, 0.00, -0.00, -1.00, 223.6, 399.8)">i</text><text xml:space="preserve" font-family="Palatino-Bold,Palatino" font-weight="bold" font-size="30.0" fill="#7B867F" transform="matrix(1.00, 0.00, -0.00, -1.00, 233.6, 399.8)">n</text><text xml:space="preserve" font-family="Palatino-Bold,Palatino" font-weight="bold" font-size="30.0" fill="#7B867F" transform="matrix(1.00, 0.00, -0.00, -1.00, 251.9, 399.8)">g</text><text xml:space="preserve" font-family="Palatino-Bold,Palatino" font-weight="bold" font-size="30.0" fill="#7B867F" transform="matrix(1.00, 0.00, -0.00, -1.00, 268.6, 399.8)">l</text><text xml:space="preserve" font-family="Palatino-Bold,Palatino" font-weight="bold" font-size="30.0" fill="#7B867F" transform="matrix(1.00, 0.00, -0.00, -1.00, 278.6, 399.8)">e</text><text xml:space="preserve" font-family="Palatino-Bold,Palatino" font-weight="bold" font-size="30.0" fill="#7B867F" transform="matrix(1.00, 0.00, -0.00, -1.00, 293.6, 399.8)"> </text><text xml:space="preserve" font-family="Palatino-Bold,Palatino" font-weight="bold" font-size="30.0" fill="#7B867F" transform="matrix(1.00, 0.00, -0.00, -1.00, 301.1, 399.8)">s</text><text xml:space="preserve" font-family="Palatino-Bold,Palatino" font-weight="bold" font-size="30.0" fill="#7B867F" transform="matrix(1.00, 0.00, -0.00, -1.00, 314.4, 399.8)">t</text><text xml:space="preserve" font-family="Palatino-Bold,Palatino" font-weight="bold" font-size="30.0" fill="#7B867F" transform="matrix(1.00, 0.00, -0.00, -1.00, 324.4, 399.8)">e</text><text xml:space="preserve" font-family="Palatino-Bold,Palatino" font-weight="bold" font-size="30.0" fill="#7B867F" transform="matrix(1.00, 0.00, -0.00, -1.00, 339.4, 399.8)">p</text></g></g></g></g><g><clipPath id="clip0x600000caba00"><path d="M 50.5 574.5 L 973.5 574.5 L 973.5 78.5 L 50.5 78.5 Z M 50.5 574.5 "></path></clipPath><g clip-path="url(#clip0x600000caba00)"><g><clipPath id="clip0x600000cabb80"><path d="M 512.5 301.5 L 972.5 301.5 L 972.5 522.5 L 512.5 522.5 Z M 512.5 301.5 "></path></clipPath><g clip-path="url(#clip0x600000cabb80)"><text xml:space="preserve" font-family="Palatino-Bold,Palatino" font-weight="bold" font-size="30.0" fill="#7B867F" transform="matrix(1.00, 0.00, -0.00, -1.00, 671.7, 399.8)">m</text><text xml:space="preserve" font-family="Palatino-Bold,Palatino" font-weight="bold" font-size="30.0" fill="#7B867F" transform="matrix(1.00, 0.00, -0.00, -1.00, 698.4, 399.8)">u</text><text xml:space="preserve" font-family="Palatino-Bold,Palatino" font-weight="bold" font-size="30.0" fill="#7B867F" transform="matrix(1.00, 0.00, -0.00, -1.00, 716.7, 399.8)">l</text><text xml:space="preserve" font-family="Palatino-Bold,Palatino" font-weight="bold" font-size="30.0" fill="#7B867F" transform="matrix(1.00, 0.00, -0.00, -1.00, 726.7, 399.8)">t</text><text xml:space="preserve" font-family="Palatino-Bold,Palatino" font-weight="bold" font-size="30.0" fill="#7B867F" transform="matrix(1.00, 0.00, -0.00, -1.00, 736.7, 399.8)">i</text><text xml:space="preserve" font-family="Palatino-Bold,Palatino" font-weight="bold" font-size="30.0" fill="#7B867F" transform="matrix(1.00, 0.00, -0.00, -1.00, 746.7, 399.8)">-</text><text xml:space="preserve" font-family="Palatino-Bold,Palatino" font-weight="bold" font-size="30.0" fill="#7B867F" transform="matrix(1.00, 0.00, -0.00, -1.00, 756.7, 399.8)">s</text><text xml:space="preserve" font-family="Palatino-Bold,Palatino" font-weight="bold" font-size="30.0" fill="#7B867F" transform="matrix(1.00, 0.00, -0.00, -1.00, 770.0, 399.8)">t</text><text xml:space="preserve" font-family="Palatino-Bold,Palatino" font-weight="bold" font-size="30.0" fill="#7B867F" transform="matrix(1.00, 0.00, -0.00, -1.00, 780.0, 399.8)">e</text><text xml:space="preserve" font-family="Palatino-Bold,Palatino" font-weight="bold" font-size="30.0" fill="#7B867F" transform="matrix(1.00, 0.00, -0.00, -1.00, 795.0, 399.8)">p</text></g></g></g></g><g><clipPath id="clip0x600000cac120"><path d="M 50.5 574.5 L 973.5 574.5 L 973.5 78.5 L 50.5 78.5 Z M 50.5 574.5 "></path></clipPath><g clip-path="url(#clip0x600000cac120)"><g><clipPath id="clip0x600000cac2a0"><path d="M 51.5 79.5 L 511.5 79.5 L 511.5 300.5 L 51.5 300.5 Z M 51.5 79.5 "></path></clipPath><g clip-path="url(#clip0x600000cac2a0)"><text xml:space="preserve" font-family="Palatino-Bold,Palatino" font-weight="bold" font-size="30.0" fill="#7B867F" transform="matrix(1.00, 0.00, -0.00, -1.00, 124.5, 177.8)">c</text><text xml:space="preserve" font-family="Palatino-Bold,Palatino" font-weight="bold" font-size="30.0" fill="#7B867F" transform="matrix(1.00, 0.00, -0.00, -1.00, 137.8, 177.8)">o</text><text xml:space="preserve" font-family="Palatino-Bold,Palatino" font-weight="bold" font-size="30.0" fill="#7B867F" transform="matrix(1.00, 0.00, -0.00, -1.00, 154.5, 177.8)">m</text><text xml:space="preserve" font-family="Palatino-Bold,Palatino" font-weight="bold" font-size="30.0" fill="#7B867F" transform="matrix(1.00, 0.00, -0.00, -1.00, 181.1, 177.8)">p</text><text xml:space="preserve" font-family="Palatino-Bold,Palatino" font-weight="bold" font-size="30.0" fill="#7B867F" transform="matrix(1.00, 0.00, -0.00, -1.00, 199.5, 177.8)">l</text><text xml:space="preserve" font-family="Palatino-Bold,Palatino" font-weight="bold" font-size="30.0" fill="#7B867F" transform="matrix(1.00, 0.00, -0.00, -1.00, 209.4, 177.8)">e</text><text xml:space="preserve" font-family="Palatino-Bold,Palatino" font-weight="bold" font-size="30.0" fill="#7B867F" transform="matrix(1.00, 0.00, -0.00, -1.00, 224.4, 177.8)">t</text><text xml:space="preserve" font-family="Palatino-Bold,Palatino" font-weight="bold" font-size="30.0" fill="#7B867F" transform="matrix(1.00, 0.00, -0.00, -1.00, 234.4, 177.8)">e</text><text xml:space="preserve" font-family="Palatino-Bold,Palatino" font-weight="bold" font-size="30.0" fill="#7B867F" transform="matrix(1.00, 0.00, -0.00, -1.00, 249.4, 177.8)">l</text><text xml:space="preserve" font-family="Palatino-Bold,Palatino" font-weight="bold" font-size="30.0" fill="#7B867F" transform="matrix(1.00, 0.00, -0.00, -1.00, 259.4, 177.8)">y</text><text xml:space="preserve" font-family="Palatino-Bold,Palatino" font-weight="bold" font-size="30.0" fill="#7B867F" transform="matrix(1.00, 0.00, -0.00, -1.00, 276.1, 177.8)"> </text><text xml:space="preserve" font-family="Palatino-Bold,Palatino" font-weight="bold" font-size="30.0" fill="#7B867F" transform="matrix(1.00, 0.00, -0.00, -1.00, 283.6, 177.8)">p</text><text xml:space="preserve" font-family="Palatino-Bold,Palatino" font-weight="bold" font-size="30.0" fill="#7B867F" transform="matrix(1.00, 0.00, -0.00, -1.00, 301.9, 177.8)">r</text><text xml:space="preserve" font-family="Palatino-Bold,Palatino" font-weight="bold" font-size="30.0" fill="#7B867F" transform="matrix(1.00, 0.00, -0.00, -1.00, 313.6, 177.8)">e</text><text xml:space="preserve" font-family="Palatino-Bold,Palatino" font-weight="bold" font-size="30.0" fill="#7B867F" transform="matrix(1.00, 0.00, -0.00, -1.00, 328.6, 177.8)">d</text><text xml:space="preserve" font-family="Palatino-Bold,Palatino" font-weight="bold" font-size="30.0" fill="#7B867F" transform="matrix(1.00, 0.00, -0.00, -1.00, 346.9, 177.8)">i</text><text xml:space="preserve" font-family="Palatino-Bold,Palatino" font-weight="bold" font-size="30.0" fill="#7B867F" transform="matrix(1.00, 0.00, -0.00, -1.00, 356.9, 177.8)">c</text><text xml:space="preserve" font-family="Palatino-Bold,Palatino" font-weight="bold" font-size="30.0" fill="#7B867F" transform="matrix(1.00, 0.00, -0.00, -1.00, 370.2, 177.8)">t</text><text xml:space="preserve" font-family="Palatino-Bold,Palatino" font-weight="bold" font-size="30.0" fill="#7B867F" transform="matrix(1.00, 0.00, -0.00, -1.00, 380.2, 177.8)">a</text><text xml:space="preserve" font-family="Palatino-Bold,Palatino" font-weight="bold" font-size="30.0" fill="#7B867F" transform="matrix(1.00, 0.00, -0.00, -1.00, 395.2, 177.8)">b</text><text xml:space="preserve" font-family="Palatino-Bold,Palatino" font-weight="bold" font-size="30.0" fill="#7B867F" transform="matrix(1.00, 0.00, -0.00, -1.00, 413.5, 177.8)">l</text><text xml:space="preserve" font-family="Palatino-Bold,Palatino" font-weight="bold" font-size="30.0" fill="#7B867F" transform="matrix(1.00, 0.00, -0.00, -1.00, 423.5, 177.8)">e</text></g></g></g></g><g><clipPath id="clip0x6080004b2cc0"><path d="M 50.5 574.5 L 973.5 574.5 L 973.5 78.5 L 50.5 78.5 Z M 50.5 574.5 "></path></clipPath><g clip-path="url(#clip0x6080004b2cc0)"><g><clipPath id="clip0x6080004b2f00"><path d="M 512.5 79.5 L 972.5 79.5 L 972.5 300.5 L 512.5 300.5 Z M 512.5 79.5 "></path></clipPath><g clip-path="url(#clip0x6080004b2f00)"><text xml:space="preserve" font-family="Palatino-BoldItalic,Palatino" font-style="italic" font-weight="bold" font-size="30.0" fill="#7B867F" transform="matrix(1.00, 0.00, -0.00, -1.00, 593.8, 177.8)">t</text><text xml:space="preserve" font-family="Palatino-BoldItalic,Palatino" font-style="italic" font-weight="bold" font-size="30.0" fill="#7B867F" transform="matrix(1.00, 0.00, -0.00, -1.00, 605.5, 177.8)">r</text><text xml:space="preserve" font-family="Palatino-BoldItalic,Palatino" font-style="italic" font-weight="bold" font-size="30.0" fill="#7B867F" transform="matrix(1.00, 0.00, -0.00, -1.00, 617.2, 177.8)">i</text><text xml:space="preserve" font-family="Palatino-BoldItalic,Palatino" font-style="italic" font-weight="bold" font-size="30.0" fill="#7B867F" transform="matrix(1.00, 0.00, -0.00, -1.00, 627.1, 177.8)">e</text><text xml:space="preserve" font-family="Palatino-BoldItalic,Palatino" font-style="italic" font-weight="bold" font-size="30.0" fill="#7B867F" transform="matrix(1.00, 0.00, -0.00, -1.00, 640.5, 177.8)">s</text><text xml:space="preserve" font-family="Palatino-Bold,Palatino" font-weight="bold" font-size="30.0" fill="#7B867F" transform="matrix(1.00, 0.00, -0.00, -1.00, 653.8, 177.8)"> </text><text xml:space="preserve" font-family="Palatino-Bold,Palatino" font-weight="bold" font-size="30.0" fill="#7B867F" transform="matrix(1.00, 0.00, -0.00, -1.00, 661.3, 177.8)">t</text><text xml:space="preserve" font-family="Palatino-Bold,Palatino" font-weight="bold" font-size="30.0" fill="#7B867F" transform="matrix(1.00, 0.00, -0.00, -1.00, 671.3, 177.8)">o</text><text xml:space="preserve" font-family="Palatino-Bold,Palatino" font-weight="bold" font-size="30.0" fill="#7B867F" transform="matrix(1.00, 0.00, -0.00, -1.00, 687.9, 177.8)"> </text><text xml:space="preserve" font-family="Palatino-Bold,Palatino" font-weight="bold" font-size="30.0" fill="#7B867F" transform="matrix(1.00, 0.00, -0.00, -1.00, 695.4, 177.8)">b</text><text xml:space="preserve" font-family="Palatino-Bold,Palatino" font-weight="bold" font-size="30.0" fill="#7B867F" transform="matrix(1.00, 0.00, -0.00, -1.00, 713.8, 177.8)">e</text><text xml:space="preserve" font-family="Palatino-Bold,Palatino" font-weight="bold" font-size="30.0" fill="#7B867F" transform="matrix(1.00, 0.00, -0.00, -1.00, 728.8, 177.8)"> </text><text xml:space="preserve" font-family="Palatino-Bold,Palatino" font-weight="bold" font-size="30.0" fill="#7B867F" transform="matrix(1.00, 0.00, -0.00, -1.00, 736.3, 177.8)">p</text><text xml:space="preserve" font-family="Palatino-Bold,Palatino" font-weight="bold" font-size="30.0" fill="#7B867F" transform="matrix(1.00, 0.00, -0.00, -1.00, 754.6, 177.8)">r</text><text xml:space="preserve" font-family="Palatino-Bold,Palatino" font-weight="bold" font-size="30.0" fill="#7B867F" transform="matrix(1.00, 0.00, -0.00, -1.00, 766.3, 177.8)">e</text><text xml:space="preserve" font-family="Palatino-Bold,Palatino" font-weight="bold" font-size="30.0" fill="#7B867F" transform="matrix(1.00, 0.00, -0.00, -1.00, 781.3, 177.8)">d</text><text xml:space="preserve" font-family="Palatino-Bold,Palatino" font-weight="bold" font-size="30.0" fill="#7B867F" transform="matrix(1.00, 0.00, -0.00, -1.00, 799.6, 177.8)">i</text><text xml:space="preserve" font-family="Palatino-Bold,Palatino" font-weight="bold" font-size="30.0" fill="#7B867F" transform="matrix(1.00, 0.00, -0.00, -1.00, 809.6, 177.8)">c</text><text xml:space="preserve" font-family="Palatino-Bold,Palatino" font-weight="bold" font-size="30.0" fill="#7B867F" transform="matrix(1.00, 0.00, -0.00, -1.00, 822.9, 177.8)">t</text><text xml:space="preserve" font-family="Palatino-Bold,Palatino" font-weight="bold" font-size="30.0" fill="#7B867F" transform="matrix(1.00, 0.00, -0.00, -1.00, 832.9, 177.8)">a</text><text xml:space="preserve" font-family="Palatino-Bold,Palatino" font-weight="bold" font-size="30.0" fill="#7B867F" transform="matrix(1.00, 0.00, -0.00, -1.00, 847.9, 177.8)">b</text><text xml:space="preserve" font-family="Palatino-Bold,Palatino" font-weight="bold" font-size="30.0" fill="#7B867F" transform="matrix(1.00, 0.00, -0.00, -1.00, 866.2, 177.8)">l</text><text xml:space="preserve" font-family="Palatino-Bold,Palatino" font-weight="bold" font-size="30.0" fill="#7B867F" transform="matrix(1.00, 0.00, -0.00, -1.00, 876.2, 177.8)">e</text></g></g></g></g><g><clipPath id="clip0x6180004ae100"><path d="M 50.5 574.5 L 973.5 574.5 L 973.5 78.5 L 50.5 78.5 Z M 50.5 574.5 "></path></clipPath><g clip-path="url(#clip0x6180004ae100)"><path d="M 463.0 1.5 L 463.0 53.0 " fill="none" stroke="#78A0AE" stroke-opacity="0.50" stroke-width="1.00" transform="matrix(1.00, 0.00, 0.00, -1.00, 49.0, 576.0)"></path><path d="M 463.0 53.0 L 463.0 497.5 " fill="none" stroke="#78A0AE" stroke-opacity="0.50" stroke-width="1.00" transform="matrix(1.00, 0.00, 0.00, -1.00, 49.0, 576.0)"></path><path d="M 1.5 275.0 L 924.5 275.0 " fill="none" stroke="#78A0AE" stroke-opacity="0.50" stroke-width="1.00" transform="matrix(1.00, 0.00, 0.00, -1.00, 49.0, 576.0)"></path><path d="M 1.5 53.0 L 924.5 53.0 " fill="none" stroke="#78A0AE" stroke-opacity="0.50" stroke-width="1.00" transform="matrix(1.00, 0.00, 0.00, -1.00, 49.0, 576.0)"></path><path d="M 2.0 1.5 L 2.0 53.0 " fill="none" stroke="#78A0AE" stroke-opacity="0.50" stroke-width="1.00" transform="matrix(1.00, 0.00, 0.00, -1.00, 49.0, 576.0)"></path><path d="M 2.0 53.0 L 2.0 497.5 " fill="none" stroke="#78A0AE" stroke-opacity="0.50" stroke-width="1.00" transform="matrix(1.00, 0.00, 0.00, -1.00, 49.0, 576.0)"></path><path d="M 924.0 1.5 L 924.0 53.0 " fill="none" stroke="#78A0AE" stroke-opacity="0.50" stroke-width="1.00" transform="matrix(1.00, 0.00, 0.00, -1.00, 49.0, 576.0)"></path><path d="M 924.0 53.0 L 924.0 497.5 " fill="none" stroke="#78A0AE" stroke-opacity="0.50" stroke-width="1.00" transform="matrix(1.00, 0.00, 0.00, -1.00, 49.0, 576.0)"></path><path d="M 1.5 2.0 L 924.5 2.0 " fill="none" stroke="#78A0AE" stroke-opacity="0.50" stroke-width="1.00" transform="matrix(1.00, 0.00, 0.00, -1.00, 49.0, 576.0)"></path><path d="M 1.5 497.0 L 924.5 497.0 " fill="none" stroke="#78A0AE" stroke-opacity="0.50" stroke-width="1.00" transform="matrix(1.00, 0.00, 0.00, -1.00, 49.0, 576.0)"></path></g></g></g></svg>