<?xml version="1.0" encoding="UTF-8" standalone="no"?><svg xmlns="http://www.w3.org/2000/svg" xmlns:xlink="http://www.w3.org/1999/xlink" clip-rule="evenodd" stroke-miterlimit="10" viewBox="0 0 1920 1080"><desc>SVG generated by Keynote</desc><defs></defs><g transform="matrix(1.00, 0.00, -0.00, -1.00, 0.0, 1080.0)"><g><clipPath id="clip0x6080028b16a0"><path d="M 0.0 1080.0 L 1920.0 1080.0 L 1920.0 0.0 L 0.0 0.0 Z M 0.0 1080.0 "></path></clipPath><g clip-path="url(#clip0x6080028b16a0)"><image xlink:href="../../8532EDA3-03AF-4F95-ADCC-1003E38AE155/assets/0F43D2572F34A9AFB59E4515ED9A1249.jpeg" width="3840.00" height="2160.00" transform="matrix(0.50, 0.00, -0.00, -0.50, 0.0, 1080.0)"></image></g></g><image xlink:href="../../9D366029-6AE4-4B81-BAB7-08AF897D29F9/assets/A54F9988C7F9AF549E2A8DE84ACE4103.png" width="555.00" height="84.00" transform="matrix(1.00, 0.00, -0.00, -1.00, 115.0, 954.0)"></image><text xml:space="preserve" font-family="HelveticaNeue-Light,Helvetica Neue" font-size="100.0" fill="#FEFFFE" transform="matrix(1.00, 0.00, -0.00, -1.00, 120.0, 879.2)">Y</text><text xml:space="preserve" font-family="HelveticaNeue-Light,Helvetica Neue" font-size="100.0" fill="#FEFFFE" transform="matrix(1.00, 0.00, -0.00, -1.00, 171.9, 879.2)">o</text><text xml:space="preserve" font-family="HelveticaNeue-Light,Helvetica Neue" font-size="100.0" fill="#FEFFFE" transform="matrix(1.00, 0.00, -0.00, -1.00, 227.5, 879.2)">u</text><text xml:space="preserve" font-family="HelveticaNeue-Light,Helvetica Neue" font-size="100.0" fill="#FEFFFE" transform="matrix(1.00, 0.00, -0.00, -1.00, 281.2, 879.2)"> </text><text xml:space="preserve" font-family="HelveticaNeue-Light,Helvetica Neue" font-size="100.0" fill="#FEFFFE" transform="matrix(1.00, 0.00, -0.00, -1.00, 309.0, 879.2)">C</text><text xml:space="preserve" font-family="HelveticaNeue-Light,Helvetica Neue" font-size="100.0" fill="#FEFFFE" transform="matrix(1.00, 0.00, -0.00, -1.00, 379.4, 879.2)">a</text><text xml:space="preserve" font-family="HelveticaNeue-Light,Helvetica Neue" font-size="100.0" fill="#FEFFFE" transform="matrix(1.00, 0.00, -0.00, -1.00, 431.3, 879.2)">n</text><text xml:space="preserve" font-family="HelveticaNeue-Light,Helvetica Neue" font-size="100.0" fill="#FEFFFE" transform="matrix(1.00, 0.00, -0.00, -1.00, 485.0, 879.2)"> </text><text xml:space="preserve" font-family="HelveticaNeue-Light,Helvetica Neue" font-size="100.0" fill="#FEFFFE" transform="matrix(1.00, 0.00, -0.00, -1.00, 512.8, 879.2)">T</text><text xml:space="preserve" font-family="HelveticaNeue-Light,Helvetica Neue" font-size="100.0" fill="#FEFFFE" transform="matrix(1.00, 0.00, -0.00, -1.00, 557.3, 879.2)">o</text><text xml:space="preserve" font-family="HelveticaNeue-Light,Helvetica Neue" font-size="100.0" fill="#FEFFFE" transform="matrix(1.00, 0.00, -0.00, -1.00, 612.9, 879.2)">o</text><image xlink:href="../../00A62E4B-CF4F-400E-8F96-8564F4405DE3/assets/7E3F7FB36267FB73ACA8E09E5AD73BE8.png" width="690.00" height="486.00" transform="matrix(1.59, 0.00, -0.00, -1.59, 369.0, 842.0)"></image><image xlink:href="../../B58A665A-7883-47A2-8819-A7BDC5ED6655/assets/9FD694ED0C25A27572EEB44C0AE700CB.png" width="1336.00" height="690.00" transform="matrix(1.00, 0.00, -0.00, -1.00, 250.0, 801.0)"></image></g></svg>