<?xml version="1.0" encoding="UTF-8" standalone="no"?><svg xmlns="http://www.w3.org/2000/svg" xmlns:xlink="http://www.w3.org/1999/xlink" clip-rule="evenodd" stroke-miterlimit="10" viewBox="0 0 1920 1080"><desc>SVG generated by Keynote</desc><defs></defs><g transform="matrix(1.00, 0.00, -0.00, -1.00, 0.0, 1080.0)"><g><clipPath id="clip0x6000026ab700"><path d="M 0.0 1080.0 L 1920.0 1080.0 L 1920.0 0.0 L 0.0 0.0 Z M 0.0 1080.0 "></path></clipPath><g clip-path="url(#clip0x6000026ab700)"><image xlink:href="../../8532EDA3-03AF-4F95-ADCC-1003E38AE155/assets/0F43D2572F34A9AFB59E4515ED9A1249.jpeg" width="3840.00" height="2160.00" transform="matrix(0.50, 0.00, -0.00, -0.50, 0.0, 1080.0)"></image></g></g><image xlink:href="../../3BC5F725-C88E-4859-BD1B-409D54D8752F/assets/CB487508B9EE57229CD8B6FAD2B3BA23.png" width="258.00" height="194.00" transform="matrix(3.90, 0.00, -0.00, -3.90, 457.2, 843.8)"></image><image xlink:href="../../3BC5F725-C88E-4859-BD1B-409D54D8752F/assets/CFF8D624905AAB7A73B3DE36BE2FF67D.png" width="665.00" height="86.00" transform="matrix(1.00, 0.00, -0.00, -1.00, 624.0, 982.0)"></image><text xml:space="preserve" font-family="HelveticaNeue-Light,Helvetica Neue" font-size="84.0" fill="#FEFFFE" transform="matrix(1.00, 0.00, -0.00, -1.00, 628.5, 919.5)">T</text><text xml:space="preserve" font-family="HelveticaNeue-Light,Helvetica Neue" font-size="84.0" fill="#FEFFFE" transform="matrix(1.00, 0.00, -0.00, -1.00, 675.2, 919.5)">h</text><text xml:space="preserve" font-family="HelveticaNeue-Light,Helvetica Neue" font-size="84.0" fill="#FEFFFE" transform="matrix(1.00, 0.00, -0.00, -1.00, 720.3, 919.5)">a</text><text xml:space="preserve" font-family="HelveticaNeue-Light,Helvetica Neue" font-size="84.0" fill="#FEFFFE" transform="matrix(1.00, 0.00, -0.00, -1.00, 763.9, 919.5)">n</text><text xml:space="preserve" font-family="HelveticaNeue-Light,Helvetica Neue" font-size="84.0" fill="#FEFFFE" transform="matrix(1.00, 0.00, -0.00, -1.00, 809.1, 919.5)">k</text><text xml:space="preserve" font-family="HelveticaNeue-Light,Helvetica Neue" font-size="84.0" fill="#FEFFFE" transform="matrix(1.00, 0.00, -0.00, -1.00, 851.1, 919.5)"> </text><text xml:space="preserve" font-family="HelveticaNeue-Light,Helvetica Neue" font-size="84.0" fill="#FEFFFE" transform="matrix(1.00, 0.00, -0.00, -1.00, 874.4, 919.5)">y</text><text xml:space="preserve" font-family="HelveticaNeue-Light,Helvetica Neue" font-size="84.0" fill="#FEFFFE" transform="matrix(1.00, 0.00, -0.00, -1.00, 913.3, 919.5)">o</text><text xml:space="preserve" font-family="HelveticaNeue-Light,Helvetica Neue" font-size="84.0" fill="#FEFFFE" transform="matrix(1.00, 0.00, -0.00, -1.00, 960.0, 919.5)">u</text><text xml:space="preserve" font-family="HelveticaNeue-Light,Helvetica Neue" font-size="84.0" fill="#FEFFFE" transform="matrix(1.00, 0.00, -0.00, -1.00, 1005.1, 919.5)">,</text><text xml:space="preserve" font-family="HelveticaNeue-Light,Helvetica Neue" font-size="84.0" fill="#FEFFFE" transform="matrix(1.00, 0.00, -0.00, -1.00, 1028.5, 919.5)"> </text><text xml:space="preserve" font-family="HelveticaNeue-Light,Helvetica Neue" font-size="84.0" fill="#FEFFFE" transform="matrix(1.00, 0.00, -0.00, -1.00, 1051.8, 919.5)">S</text><text xml:space="preserve" font-family="HelveticaNeue-Light,Helvetica Neue" font-size="84.0" fill="#FEFFFE" transform="matrix(1.00, 0.00, -0.00, -1.00, 1104.7, 919.5)">k</text><text xml:space="preserve" font-family="HelveticaNeue-Light,Helvetica Neue" font-size="84.0" fill="#FEFFFE" transform="matrix(1.00, 0.00, -0.00, -1.00, 1146.7, 919.5)">y</text><text xml:space="preserve" font-family="HelveticaNeue-Light,Helvetica Neue" font-size="84.0" fill="#FEFFFE" transform="matrix(1.00, 0.00, -0.00, -1.00, 1185.6, 919.5)">l</text><text xml:space="preserve" font-family="HelveticaNeue-Light,Helvetica Neue" font-size="84.0" fill="#FEFFFE" transform="matrix(1.00, 0.00, -0.00, -1.00, 1201.2, 919.5)">a</text><text xml:space="preserve" font-family="HelveticaNeue-Light,Helvetica Neue" font-size="84.0" fill="#FEFFFE" transform="matrix(1.00, 0.00, -0.00, -1.00, 1244.8, 919.5)">r</text><text xml:space="preserve" font-family="HelveticaNeue-Light,Helvetica Neue" font-size="84.0" fill="#FEFFFE" transform="matrix(1.00, 0.00, -0.00, -1.00, 1271.2, 919.5)">!</text></g></svg>