<?xml version="1.0" encoding="UTF-8" standalone="no"?><svg xmlns="http://www.w3.org/2000/svg" xmlns:xlink="http://www.w3.org/1999/xlink" clip-rule="evenodd" stroke-miterlimit="4.00" viewBox="0 0 1024 768"><desc>SVG generated by Keynote</desc><defs></defs><g transform="matrix(1.00, 0.00, -0.00, -1.00, 0.0, 768.0)"><g><clipPath id="clip-43"><path d="M 0.0 768.0 L 1024.0 768.0 L 1024.0 0.0 L 0.0 0.0 Z M 0.0 768.0 "></path></clipPath><g clip-path="url(#clip-43)"><image xlink:href="36501B0F45C9F7ED4F7A6F2DCB34D373.jpeg" width="1024.00" height="768.00" transform="matrix(1.00, 0.00, -0.00, -1.00, 0.0, 768.0)"></image></g></g><g><clipPath id="clip-44"><path d="M 511.0 719.0 L 975.0 719.0 L 975.0 48.0 L 511.0 48.0 Z M 511.0 719.0 "></path></clipPath><g clip-path="url(#clip-44)"><image xlink:href="4292B0DA503CF319243FCA9E668CED2D.jpeg" width="527.00" height="671.00" transform="matrix(1.00, 0.00, -0.00, -1.00, 479.0, 719.0)"></image></g></g><image xlink:href="F75CB5034050103CBBFD25175DB65032.png" width="466.00" height="673.00" transform="matrix(1.00, 0.00, -0.00, 1.00, 510.0, 47.0)"></image><text xml:space="preserve" font-family="Palatino-Roman" font-size="70.0" fill="#535F55" transform="matrix(1.00, 0.00, -0.00, -1.00, 78.0, 383.0)">J</text><text xml:space="preserve" font-family="Palatino-Roman" font-size="70.0" fill="#535F55" transform="matrix(1.00, 0.00, -0.00, -1.00, 101.3, 383.0)">o</text><text xml:space="preserve" font-family="Palatino-Roman" font-size="70.0" fill="#535F55" transform="matrix(1.00, 0.00, -0.00, -1.00, 139.5, 383.0)">h</text><text xml:space="preserve" font-family="Palatino-Roman" font-size="70.0" fill="#535F55" transform="matrix(1.00, 0.00, -0.00, -1.00, 180.3, 383.0)">n</text><text xml:space="preserve" font-family="Palatino-Roman" font-size="70.0" fill="#535F55" transform="matrix(1.00, 0.00, -0.00, -1.00, 221.0, 383.0)"> </text><text xml:space="preserve" font-family="Palatino-Roman" font-size="70.0" fill="#535F55" transform="matrix(1.00, 0.00, -0.00, -1.00, 238.5, 383.0)">K</text><text xml:space="preserve" font-family="Palatino-Roman" font-size="70.0" fill="#535F55" transform="matrix(1.00, 0.00, -0.00, -1.00, 289.3, 383.0)">.</text><text xml:space="preserve" font-family="Palatino-Roman" font-size="70.0" fill="#535F55" transform="matrix(1.00, 0.00, -0.00, -1.00, 306.8, 383.0)"> </text><text xml:space="preserve" font-family="Palatino-Roman" font-size="70.0" fill="#535F55" transform="matrix(1.00, 0.00, -0.00, -1.00, 324.3, 383.0)">P</text><text xml:space="preserve" font-family="Palatino-Roman" font-size="70.0" fill="#535F55" transform="matrix(1.00, 0.00, -0.00, -1.00, 366.6, 383.0)">a</text><text xml:space="preserve" font-family="Palatino-Roman" font-size="70.0" fill="#535F55" transform="matrix(1.00, 0.00, -0.00, -1.00, 401.6, 383.0)">u</text><text xml:space="preserve" font-family="Palatino-Roman" font-size="70.0" fill="#535F55" transform="matrix(1.00, 0.00, -0.00, -1.00, 443.8, 383.0)">l</text><text xml:space="preserve" font-family="Helvetica-Oblique" font-style="italic" font-size="32.0" fill="#707D74" transform="matrix(1.00, 0.00, -0.00, -1.00, 187.0, 305.0)">@</text><text xml:space="preserve" font-family="Helvetica-Oblique" font-style="italic" font-size="32.0" fill="#707D74" transform="matrix(1.00, 0.00, -0.00, -1.00, 219.5, 305.0)">j</text><text xml:space="preserve" font-family="Helvetica-Oblique" font-style="italic" font-size="32.0" fill="#707D74" transform="matrix(1.00, 0.00, -0.00, -1.00, 226.6, 305.0)">o</text><text xml:space="preserve" font-family="Helvetica-Oblique" font-style="italic" font-size="32.0" fill="#707D74" transform="matrix(1.00, 0.00, -0.00, -1.00, 244.4, 305.0)">h</text><text xml:space="preserve" font-family="Helvetica-Oblique" font-style="italic" font-size="32.0" fill="#707D74" transform="matrix(1.00, 0.00, -0.00, -1.00, 262.2, 305.0)">n</text><text xml:space="preserve" font-family="Helvetica-Oblique" font-style="italic" font-size="32.0" fill="#707D74" transform="matrix(1.00, 0.00, -0.00, -1.00, 280.0, 305.0)">k</text><text xml:space="preserve" font-family="Helvetica-Oblique" font-style="italic" font-size="32.0" fill="#707D74" transform="matrix(1.00, 0.00, -0.00, -1.00, 296.0, 305.0)">p</text><text xml:space="preserve" font-family="Helvetica-Oblique" font-style="italic" font-size="32.0" fill="#707D74" transform="matrix(1.00, 0.00, -0.00, -1.00, 313.8, 305.0)">a</text><text xml:space="preserve" font-family="Helvetica-Oblique" font-style="italic" font-size="32.0" fill="#707D74" transform="matrix(1.00, 0.00, -0.00, -1.00, 331.6, 305.0)">u</text><text xml:space="preserve" font-family="Helvetica-Oblique" font-style="italic" font-size="32.0" fill="#707D74" transform="matrix(1.00, 0.00, -0.00, -1.00, 349.4, 305.0)">l</text><g><clipPath id="clip-45"><path d="M 218.2 301.1 L 356.2 301.1 L 356.2 304.7 L 218.2 304.7 Z M 218.2 301.1 "></path></clipPath><g clip-path="url(#clip-45)"><path d="M 168.2 37.1 L 305.2 37.1 " fill="none" stroke="#707D74" stroke-width="1.58" stroke-miterlimit="0.00" transform="matrix(1.00, 0.00, 0.00, -1.00, 51.0, 340.0)"></path></g></g><image xlink:href="A9B31C56D581EE8BB993F0A9D9CD8EF1.png" width="425.00" height="35.00" transform="matrix(1.00, 0.00, -0.00, -1.00, 59.0, 278.0)"></image></g></svg>